<svg width="24" height="24" viewBox="0 0 24 24" fill="none" xmlns="http://www.w3.org/2000/svg">
<path d="M12 22C6.48 22 2 17.52 2 12C2 6.48 6.48 2 12 2C17.52 2 22 6.48 22 12C22 17.52 17.52 22 12 22ZM15.53 11.97C15.38 11.82 15.19 11.75 15 11.75C14.81 11.75 14.62 11.82 14.47 11.97L12.75 13.69V8.5C12.75 8.09 12.41 7.75 12 7.75C11.59 7.75 11.25 8.09 11.25 8.5V13.69L9.53 11.97C9.24 11.68 8.76 11.68 8.47 11.97C8.18 12.26 8.18 12.74 8.47 13.03L11.47 16.03C11.76 16.32 12.24 16.32 12.53 16.03L15.53 13.03C15.82 12.74 15.82 12.26 15.53 11.97Z" fill="#039855"/>
</svg>
