<svg width="45" height="44" viewBox="0 0 45 44" fill="none" xmlns="http://www.w3.org/2000/svg">
<path d="M25 6.76738L25.0007 6.76879L28.2246 13.2166C28.2251 13.2176 28.2256 13.2185 28.226 13.2195C28.5135 13.8049 29.0101 14.3306 29.5483 14.7277C30.0878 15.1258 30.7369 15.4446 31.3782 15.5515L31.3786 15.5516L37.2265 16.5232C38.9672 16.8133 39.7845 17.5434 40.0114 18.2495C40.2379 18.954 40 20.0194 38.7463 21.2646L38.7445 21.2664L34.1978 25.813C33.7004 26.3104 33.3494 26.9978 33.1523 27.6861C32.9552 28.3748 32.8899 29.1425 33.043 29.8257L33.043 29.8257L33.0441 29.8307L34.3457 35.4585C34.8444 37.6227 34.4249 38.7393 33.8578 39.1527C33.2894 39.5671 32.0933 39.6257 30.1779 38.4943L24.6972 35.2498C24.6971 35.2498 24.697 35.2497 24.6969 35.2496C24.058 34.8711 23.2618 34.705 22.5067 34.705C21.7509 34.705 20.9528 34.8714 20.3077 35.2468L20.3077 35.2468L20.3028 35.2496L14.8211 38.4946L14.8204 38.4951C12.9179 39.6241 11.7208 39.5633 11.149 39.1461C10.5777 38.7292 10.1561 37.6101 10.6539 35.4591L10.6539 35.459L11.9555 29.8307L11.9556 29.8307L11.9567 29.8257C12.1098 29.1425 12.0445 28.3748 11.8473 27.6861C11.6503 26.9978 11.2992 26.3104 10.8018 25.813L6.25516 21.2664C5.00983 20.021 4.77002 18.9544 4.99554 18.2482C5.22083 17.5427 6.03324 16.8132 7.77313 16.5232L13.6211 15.5516L13.6237 15.5511C14.2567 15.4436 14.9009 15.124 15.4367 14.7267C15.9716 14.3301 16.4679 13.8047 16.7553 13.2196L19.98 6.77019C19.98 6.77 19.9801 6.7698 19.9802 6.76961C20.806 5.12706 21.761 4.55713 22.4975 4.55713C23.2328 4.55713 24.1833 5.12553 25 6.76738Z" fill="#FDB022" stroke="#FDB022" stroke-width="1.5" stroke-linecap="round" stroke-linejoin="round"/>
<path d="M18.3194 21.1174C19.0071 21.1174 19.5646 20.5599 19.5646 19.8722C19.5646 19.1844 19.0071 18.627 18.3194 18.627C17.6317 18.627 17.0742 19.1844 17.0742 19.8722C17.0742 20.5599 17.6317 21.1174 18.3194 21.1174Z" fill="#DC6803"/>
<path d="M26.7745 21.1174C27.4622 21.1174 28.0197 20.5599 28.0197 19.8722C28.0197 19.1844 27.4622 18.627 26.7745 18.627C26.0868 18.627 25.5293 19.1844 25.5293 19.8722C25.5293 20.5599 26.0868 21.1174 26.7745 21.1174Z" fill="#DC6803"/>
<path d="M27.3643 26.3555C27.3589 26.378 27.3576 26.3865 27.3554 26.398L27.3495 26.4292L27.3387 26.4857C27.3311 26.5223 27.323 26.556 27.3149 26.5906C27.2987 26.6581 27.2791 26.7237 27.2596 26.7887C27.2185 26.916 27.1702 27.0408 27.115 27.1626C27.0044 27.4054 26.8687 27.636 26.7103 27.8506C26.3871 28.2821 25.9856 28.649 25.5268 28.9323C25.2995 29.0711 25.0617 29.1922 24.8157 29.2942C24.5736 29.3929 24.3247 29.4737 24.0708 29.5359C23.5799 29.6554 23.0766 29.7157 22.5714 29.7158C22.0726 29.721 21.5748 29.6697 21.0875 29.5629L20.9011 29.5193C20.8391 29.5051 20.777 29.4847 20.7154 29.4676C20.6538 29.4505 20.5918 29.4334 20.5304 29.4109L20.3465 29.3466C20.0999 29.2557 19.8607 29.1457 19.6313 29.0175C19.3987 28.8877 19.1778 28.7383 18.9708 28.5707C18.7636 28.4009 18.5727 28.2121 18.4006 28.0069C18.3577 27.9556 18.3174 27.9016 18.2765 27.8495C18.2356 27.7973 18.1973 27.7416 18.1603 27.686C18.0859 27.5747 18.0177 27.4594 17.9559 27.3407C17.8931 27.2212 17.8379 27.098 17.7904 26.9717C17.7679 26.9077 17.7443 26.8425 17.7243 26.7748C17.7144 26.7397 17.7047 26.7073 17.6953 26.6693L17.6816 26.6125L17.6742 26.581C17.6712 26.5686 17.6699 26.5614 17.6629 26.5371C17.6028 26.3674 17.6127 26.1807 17.6902 26.0182C17.7678 25.8557 17.9067 25.7306 18.0765 25.6705C18.2463 25.6105 18.4329 25.6203 18.5955 25.6978C18.758 25.7754 18.883 25.9143 18.9431 26.0841C18.9409 26.0724 18.9445 26.0774 18.9463 26.0776C18.9481 26.0778 18.9512 26.0807 18.9539 26.083C18.9566 26.0852 18.9654 26.0927 18.9721 26.0992L19.0108 26.1378C19.0384 26.1653 19.0661 26.1938 19.0955 26.2217C19.1529 26.2786 19.2151 26.3341 19.2772 26.3876C19.4013 26.4939 19.5325 26.5916 19.67 26.6799C19.8054 26.7674 19.9461 26.8463 20.0913 26.9162C20.2372 26.9847 20.3867 27.0453 20.5392 27.0976C20.6941 27.1508 20.8517 27.1958 21.0113 27.2325C21.0929 27.2499 21.1732 27.269 21.2571 27.2822C21.2986 27.2894 21.3389 27.2984 21.3814 27.3047L21.508 27.3231C21.8572 27.37 22.2092 27.392 22.5615 27.389C22.9078 27.3897 23.2536 27.3633 23.5957 27.3099C23.7582 27.2844 23.9193 27.2508 24.0785 27.2092C24.2347 27.1676 24.386 27.117 24.5351 27.0612C24.832 26.9447 25.1128 26.7907 25.3705 26.6028C25.5028 26.5051 25.6286 26.399 25.7471 26.2851C25.806 26.2269 25.8654 26.1675 25.9207 26.1066L25.9621 26.0616L26.0016 26.0167L26.039 25.9744C26.0457 25.9672 26.0511 25.9618 26.0565 25.9564C26.0586 25.9538 26.0612 25.9516 26.0641 25.9499C26.0664 25.9499 26.0695 25.9447 26.068 25.9548C26.0943 25.8696 26.1371 25.7904 26.194 25.7218C26.2509 25.6531 26.3208 25.5963 26.3997 25.5547C26.4785 25.513 26.5648 25.4873 26.6536 25.479C26.7424 25.4707 26.8319 25.48 26.9172 25.5063C27.0024 25.5326 27.0816 25.5754 27.1502 25.6323C27.2189 25.6893 27.2756 25.7591 27.3173 25.838C27.3589 25.9168 27.3847 26.0031 27.393 26.0919C27.4013 26.1807 27.392 26.2703 27.3657 26.3555H27.3643Z" fill="#DC6803"/>
</svg>
