<svg width="25" height="25" viewBox="0 0 25 25" fill="none" xmlns="http://www.w3.org/2000/svg">
<path d="M9.69543 19.671C9.50543 19.671 9.31543 19.601 9.16543 19.451L3.09543 13.381C2.80543 13.091 2.80543 12.611 3.09543 12.321L9.16543 6.25095C9.45543 5.96095 9.93543 5.96095 10.2254 6.25095C10.5154 6.54095 10.5154 7.02095 10.2254 7.31095L4.68543 12.851L10.2254 18.391C10.5154 18.681 10.5154 19.161 10.2254 19.451C10.0854 19.601 9.88543 19.671 9.69543 19.671Z" fill="white"/>
<path d="M20.6249 13.601H3.79492C3.38492 13.601 3.04492 13.261 3.04492 12.851C3.04492 12.441 3.38492 12.101 3.79492 12.101H20.6249C21.0349 12.101 21.3749 12.441 21.3749 12.851C21.3749 13.261 21.0349 13.601 20.6249 13.601Z" fill="white"/>
</svg>
