<svg width="20" height="20" viewBox="0 0 20 20" fill="none" xmlns="http://www.w3.org/2000/svg">
<path d="M10.0002 0.833252C4.94933 0.833252 0.833496 4.94908 0.833496 9.99992C0.833496 15.0508 4.94933 19.1666 10.0002 19.1666C15.051 19.1666 19.1668 15.0508 19.1668 9.99992C19.1668 4.94908 15.051 0.833252 10.0002 0.833252ZM14.3818 7.89158L9.18433 13.0891C9.05599 13.2174 8.88183 13.2908 8.6985 13.2908C8.51516 13.2908 8.341 13.2174 8.21266 13.0891L5.6185 10.4949C5.35266 10.2291 5.35266 9.78908 5.6185 9.52325C5.88433 9.25742 6.32433 9.25742 6.59016 9.52325L8.6985 11.6316L13.4102 6.91992C13.676 6.65409 14.116 6.65409 14.3818 6.91992C14.6477 7.18575 14.6477 7.61658 14.3818 7.89158Z" fill="#8F7A63"/>
</svg>
