<svg width="14" height="14" viewBox="0 0 14 14" fill="none" xmlns="http://www.w3.org/2000/svg">
<path d="M9.79301 0.333313H4.20634C1.77967 0.333313 0.333008 1.77998 0.333008 4.20665V9.78665C0.333008 12.22 1.77967 13.6666 4.20634 13.6666H9.78634C12.213 13.6666 13.6597 12.22 13.6597 9.79331V4.20665C13.6663 1.77998 12.2197 0.333313 9.79301 0.333313ZM10.1863 5.46665L6.40634 9.24665C6.31301 9.33998 6.18634 9.39331 6.05301 9.39331C5.91967 9.39331 5.79301 9.33998 5.69967 9.24665L3.81301 7.35998C3.61967 7.16665 3.61967 6.84665 3.81301 6.65331C4.00634 6.45998 4.32634 6.45998 4.51967 6.65331L6.05301 8.18665L9.47968 4.75998C9.67301 4.56665 9.99301 4.56665 10.1863 4.75998C10.3797 4.95331 10.3797 5.26665 10.1863 5.46665Z" fill="white"/>
</svg>
