<svg width="133" height="139" viewBox="0 0 133 139" fill="none" xmlns="http://www.w3.org/2000/svg">
<circle cx="65" cy="65" r="65" transform="matrix(1 0 0 -1 1.5 130)" fill="url(#paint0_linear_325_14512)"/>
<g filter="url(#filter0_d_325_14512)">
<rect x="16.5" y="15" width="100" height="100" rx="50" fill="url(#paint1_linear_325_14512)" shape-rendering="crispEdges"/>
<path d="M66.5002 38.3334C51.8068 38.3334 39.8335 50.3067 39.8335 65C39.8335 79.6934 51.8068 91.6667 66.5002 91.6667C81.1935 91.6667 93.1668 79.6934 93.1668 65C93.1668 50.3067 81.1935 38.3334 66.5002 38.3334ZM79.2468 58.8667L64.1268 73.9867C63.7535 74.36 63.2468 74.5734 62.7135 74.5734C62.1802 74.5734 61.6735 74.36 61.3002 73.9867L53.7535 66.44C52.9802 65.6667 52.9802 64.3867 53.7535 63.6134C54.5268 62.84 55.8068 62.84 56.5802 63.6134L62.7135 69.7467L76.4202 56.04C77.1935 55.2667 78.4735 55.2667 79.2468 56.04C80.0202 56.8134 80.0202 58.0667 79.2468 58.8667Z" fill="url(#paint2_linear_325_14512)"/>
</g>
<defs>
<filter id="filter0_d_325_14512" x="0.5" y="7" width="132" height="132" filterUnits="userSpaceOnUse" color-interpolation-filters="sRGB">
<feFlood flood-opacity="0" result="BackgroundImageFix"/>
<feColorMatrix in="SourceAlpha" type="matrix" values="0 0 0 0 0 0 0 0 0 0 0 0 0 0 0 0 0 0 127 0" result="hardAlpha"/>
<feOffset dy="8"/>
<feGaussianBlur stdDeviation="8"/>
<feComposite in2="hardAlpha" operator="out"/>
<feColorMatrix type="matrix" values="0 0 0 0 0.788235 0 0 0 0 0.619608 0 0 0 0 0.435294 0 0 0 0.14 0"/>
<feBlend mode="normal" in2="BackgroundImageFix" result="effect1_dropShadow_325_14512"/>
<feBlend mode="normal" in="SourceGraphic" in2="effect1_dropShadow_325_14512" result="shape"/>
</filter>
<linearGradient id="paint0_linear_325_14512" x1="65" y1="0" x2="65" y2="130" gradientUnits="userSpaceOnUse">
<stop stop-color="white"/>
<stop offset="1" stop-color="#FFF7EF"/>
</linearGradient>
<linearGradient id="paint1_linear_325_14512" x1="33" y1="27" x2="125" y2="155.5" gradientUnits="userSpaceOnUse">
<stop stop-color="#C99E6F"/>
<stop offset="1" stop-color="#8F7A63"/>
</linearGradient>
<linearGradient id="paint2_linear_325_14512" x1="66.5002" y1="38.3334" x2="66.5002" y2="91.6667" gradientUnits="userSpaceOnUse">
<stop stop-color="white"/>
<stop offset="1" stop-color="#FFF8F0"/>
</linearGradient>
</defs>
</svg>
