<svg width="24" height="24" viewBox="0 0 24 24" fill="none" xmlns="http://www.w3.org/2000/svg">
<g clip-path="url(#clip0_266_7066)">
<path d="M15.1684 5.23201L16.0804 3.79201C15.2164 3.64801 14.4004 3.64801 13.9204 3.64801H9.64844C9.69644 3.64801 10.8004 3.64801 14.8324 5.08801C14.9284 5.18401 15.0724 5.23201 15.1684 5.23201ZM21.3604 16.464C19.4884 12.48 20.6404 8.97601 19.5364 6.14401C19.2964 5.52001 18.9124 5.08801 18.3844 4.75201L17.1364 7.20001C17.6644 8.83201 16.9924 10.992 17.4244 13.104C18.1444 16.32 20.7364 18.72 20.7364 18.72C19.1044 16.08 19.0564 13.104 19.0564 13.104C19.4884 15.552 21.2644 16.416 21.3604 16.464ZM23.4724 4.89601C23.3764 4.65601 23.1844 4.56001 22.9444 4.56001C22.8484 4.56001 22.8004 4.56001 22.7044 4.60801L19.9684 5.95201C20.1604 6.43201 20.2564 6.91201 20.3524 7.39201L23.2324 5.56801C23.4724 5.42401 23.5684 5.13601 23.4724 4.89601Z" fill="#C99E6F"/>
<path d="M16.3202 7.77601L19.4882 1.39201C19.5362 1.29601 19.5362 1.24801 19.5362 1.15201C19.5362 0.912007 19.3922 0.720007 19.2002 0.624007C18.9602 0.528007 18.6242 0.624007 18.4802 0.864007L13.1042 9.40801L11.4722 10.224L11.7122 10.704C11.7602 10.8 11.8082 10.944 11.8082 11.04L12.1442 10.896L12.5282 11.28L12.6722 11.424C12.8162 11.616 12.9602 11.76 13.2002 12L13.1522 12.192L13.4402 12.336L13.9202 12.672L14.7362 11.04L16.8962 9.64801C16.9442 8.88001 16.9442 8.16001 16.7522 7.58401L16.3202 7.77601ZM14.0642 10.848C13.8722 11.04 13.5842 11.04 13.3922 10.848C13.2002 10.656 13.2002 10.368 13.3922 10.176C13.5842 9.98401 13.8722 9.98401 14.0642 10.176C14.2082 10.368 14.2082 10.656 14.0642 10.848ZM14.0162 13.68C14.1122 13.488 14.0642 13.296 13.9682 13.152L13.7762 12.96V13.008C13.3922 12.864 12.7202 12.24 12.4322 12.768L8.68818 19.2C7.87218 20.592 8.44818 22.368 9.88818 23.088C11.4242 23.856 13.2482 23.232 14.0642 21.744C15.1682 19.68 13.6322 17.376 13.6322 17.376C13.6322 17.376 12.6722 15.936 14.0162 13.68ZM12.6722 22.128C11.7602 22.8 10.5122 22.704 9.84018 21.792C9.12018 20.832 9.26418 19.344 10.2722 18.48C11.3282 17.616 12.7202 17.856 13.3442 18.96C13.9682 20.016 13.6322 21.408 12.6722 22.128ZM11.3282 11.232C11.3762 11.136 11.3762 10.992 11.2802 10.896L11.0402 10.416L10.8482 10.032C10.7522 9.79201 10.4642 9.74401 10.2242 9.84001C7.96818 11.184 6.52818 10.224 6.52818 10.224C6.52818 10.224 4.22418 8.68801 2.16018 9.79201C0.672179 10.608 0.0481794 12.432 0.816179 13.968C1.53618 15.408 3.31218 15.936 4.70418 15.168L11.0882 11.52C11.2322 11.424 11.2802 11.328 11.3282 11.232ZM5.42418 13.584C4.56018 14.592 3.07218 14.736 2.11218 14.016C1.20018 13.344 1.10418 12.096 1.77618 11.184C2.49618 10.272 3.88818 9.88801 4.89618 10.512C6.04818 11.136 6.28818 12.528 5.42418 13.584Z" fill="#7F6957"/>
</g>
<defs>
<clipPath id="clip0_266_7066">
<rect width="24" height="24" fill="white"/>
</clipPath>
</defs>
</svg>
