<svg width="112" height="110" viewBox="0 0 112 110" fill="none" xmlns="http://www.w3.org/2000/svg">
<path fill-rule="evenodd" clip-rule="evenodd" d="M48.434 10.5881C48.7772 5.47546 50.6846 0.230774 56.5001 0.230774C62.3155 0.230774 64.2229 5.47546 64.5662 10.5881C70.4421 11.7758 75.8373 14.6698 80.0768 18.9081C84.4693 23.3023 87.4141 28.9339 88.5166 35.0484C95.9023 31.4409 108.004 36.0702 111.356 45.4484C111.356 45.4484 108.606 45.7572 103.231 49.5109C98.7237 52.6594 93.2251 53.2037 89.063 51.8469C89.3799 59.2658 90.8916 66.585 93.5399 73.5223L101.935 95.5187C101.998 95.667 102.053 95.8133 102.102 95.9616C102.52 97.2311 102.368 98.4925 101.632 99.7194C100.875 100.981 99.3371 102.273 97.0499 103.412C89.7069 107.064 73.7616 109.8 56.5001 109.8C39.2385 109.8 23.2932 107.064 15.9502 103.412C13.663 102.273 12.1254 100.981 11.3677 99.7194C10.6344 98.4966 10.4821 97.2412 10.8944 95.9778L10.9026 95.9473C10.9497 95.808 11.0019 95.6705 11.059 95.535L19.5293 73.1506C19.72 72.6466 20.1031 72.2391 20.5943 72.0176C21.0855 71.796 21.6446 71.7787 22.1486 71.9694C22.6526 72.1602 23.0601 72.5433 23.2816 73.0345C23.5032 73.5257 23.5205 74.0848 23.3298 74.5887L17.6158 89.685L17.7133 89.6383C18.0708 89.4636 18.4446 89.297 18.8346 89.1345C20.2043 88.5322 21.6059 88.0053 23.0332 87.5562C30.9937 85.0273 42.6876 83.3942 56.5001 83.3942C73.7718 83.3942 87.7407 85.9658 95.2868 89.6383L95.3538 89.6708L89.7435 74.9706C86.6307 66.8133 85.0037 58.1646 84.9396 49.4337C83.6863 48.1947 82.8941 46.6245 82.7763 44.7842C79.4288 45.0706 75.8721 46.1573 73.6763 47.2623C73.4379 47.3846 73.1776 47.4585 72.9105 47.4798C72.6434 47.5011 72.3747 47.4693 72.1199 47.3862C71.8651 47.3032 71.6293 47.1706 71.426 46.996C71.2227 46.8214 71.0559 46.6083 70.9353 46.369C70.8148 46.1297 70.7427 45.8689 70.7234 45.6017C70.704 45.3344 70.7377 45.066 70.8226 44.8118C70.9074 44.5576 71.0417 44.3227 71.2177 44.1207C71.3938 43.9186 71.608 43.7534 71.8482 43.6345C74.631 42.233 79.2216 40.9695 83.4548 40.7603C83.8122 39.7711 84.2774 38.8936 84.834 38.1237C84.2517 31.5495 81.2286 25.4317 76.3602 20.9754C71.4919 16.5192 65.1313 14.0475 58.5313 14.0473H54.4688C50.1821 14.0473 45.9599 15.0909 42.1668 17.088C38.3737 19.085 35.1238 21.9755 32.6979 25.5097C32.3924 25.9535 31.9235 26.258 31.3939 26.3567C30.8642 26.4553 30.3171 26.3399 29.8724 26.0358C29.429 25.73 29.1248 25.2609 29.0266 24.7313C28.9283 24.2017 29.044 23.6548 29.3483 23.2103C33.8295 16.6839 40.6743 12.1571 48.434 10.5881ZM65.8926 88.6409C66.4362 89.9522 66.699 91.3628 66.6641 92.7818C66.6292 94.2009 66.2974 95.5969 65.6899 96.8798C65.0825 98.1628 64.213 99.3042 63.1375 100.231C62.0619 101.157 60.8042 101.848 59.4454 102.258C58.0866 102.669 56.6569 102.79 55.2483 102.614C53.8398 102.438 52.4837 101.969 51.2675 101.237C50.0513 100.505 49.002 99.5266 48.1872 98.3643C47.3724 97.202 46.8102 95.8818 46.5368 94.4889C48.0804 92.3508 50.1097 90.6099 52.4578 89.4095C54.8059 88.2092 57.4055 87.5837 60.0426 87.5847C62.1002 87.5847 64.0705 87.9584 65.8926 88.6409ZM1.25209 59.6631C8.93022 67.1665 24.7943 69.1856 37.9283 64.1705C51.3793 59.0314 55.4113 54.4144 64.2919 51.2416C64.7746 51.0422 65.1621 50.6648 65.374 50.1875C65.586 49.7102 65.6062 49.1697 65.4304 48.6779C65.2547 48.1862 64.8964 47.7809 64.43 47.5461C63.9635 47.3113 63.4246 47.265 62.9249 47.4167C54.0179 50.5997 49.9716 55.2208 36.478 60.3741C24.8958 64.7981 10.864 63.3742 4.09178 56.7564C3.70633 56.3798 3.18707 56.1718 2.64824 56.1781C2.10941 56.1844 1.59514 56.4045 1.21858 56.7899C0.842012 57.1754 0.63399 57.6946 0.640275 58.2335C0.646561 58.7723 0.866638 59.2865 1.25209 59.6631ZM1.37194 41.4895C8.59709 47.5041 15.2454 50.4555 20.5754 51.1766C25.0035 51.7778 28.611 50.8617 31.1115 48.9503C33.7358 46.9455 35.241 43.8255 35.1719 39.893C35.1029 35.993 33.6424 33.2203 31.664 31.447C26.7402 27.0372 18.4893 28.7922 16.9435 35.4039C16.8828 35.6637 16.8739 35.9329 16.9173 36.1962C16.9606 36.4594 17.0554 36.7116 17.1962 36.9382C17.337 37.1648 17.5211 37.3615 17.7379 37.517C17.9547 37.6725 18.2 37.7838 18.4598 37.8444C18.7196 37.9051 18.9889 37.9141 19.2521 37.8707C19.5154 37.8273 19.7675 37.7325 19.9941 37.5917C20.2208 37.4509 20.4174 37.2669 20.5729 37.0501C20.7284 36.8332 20.8397 36.5879 20.9004 36.3281C21.7372 32.745 26.2832 32.0828 28.9522 34.4736C30.2299 35.6172 31.0647 37.4494 31.1094 39.9641C31.146 42.0461 30.559 43.797 29.3829 45.0544C28.1865 46.3341 26.4132 47.0816 24.2337 47.2562C19.0885 47.6747 11.9791 45.0341 3.97194 38.3675C3.55793 38.0227 3.02392 37.8565 2.48737 37.9055C1.95083 37.9544 1.4557 38.2145 1.11092 38.6285C0.76614 39.0425 0.599944 39.5765 0.648894 40.1131C0.697843 40.6496 0.95793 41.1447 1.37194 41.4895Z" fill="#E6E3DB"/>
</svg>
