<svg width="32" height="35" viewBox="0 0 32 35" fill="none" xmlns="http://www.w3.org/2000/svg">
<g filter="url(#filter0_d_269_13661)">
<path d="M25.6001 15V22.2C25.6001 24.852 23.4521 27 20.8001 27H11.2001C8.54815 27 6.40015 24.852 6.40015 22.2V15C6.40015 14.34 6.94015 13.8 7.60015 13.8H9.96415C10.6241 13.8 11.1641 14.34 11.1641 15V18.768C11.1641 19.656 11.6561 20.472 12.4361 20.892C12.7841 21.084 13.1681 21.18 13.5641 21.18C14.0201 21.18 14.4761 21.048 14.8721 20.784L16.0121 20.04L17.0681 20.748C17.8001 21.24 18.7361 21.3 19.5161 20.88C20.3081 20.46 20.8001 19.656 20.8001 18.756V15C20.8001 14.34 21.3401 13.8 22.0001 13.8H24.4001C25.0601 13.8 25.6001 14.34 25.6001 15Z" fill="white"/>
<path d="M27.4001 9.0001V10.2001C27.4001 11.5201 26.7641 12.6001 25.0001 12.6001H7.0001C5.1641 12.6001 4.6001 11.5201 4.6001 10.2001V9.0001C4.6001 7.6801 5.1641 6.6001 7.0001 6.6001H25.0001C26.7641 6.6001 27.4001 7.6801 27.4001 9.0001Z" fill="white"/>
<path d="M15.568 6.60017H8.94399C8.53599 6.15617 8.54799 5.47217 8.97999 5.04017L10.684 3.33617C11.128 2.89217 11.86 2.89217 12.304 3.33617L15.568 6.60017Z" fill="white"/>
<path d="M23.0442 6.60017H16.4202L19.6842 3.33617C20.1282 2.89217 20.8602 2.89217 21.3042 3.33617L23.0082 5.04017C23.4402 5.47217 23.4522 6.15617 23.0442 6.60017Z" fill="white"/>
<path d="M18.3641 13.8C19.0241 13.8 19.5641 14.34 19.5641 15V18.756C19.5641 19.716 18.4961 20.292 17.7041 19.752L16.6241 19.032C16.2281 18.768 15.7121 18.768 15.3041 19.032L14.1761 19.776C13.3841 20.304 12.3281 19.728 12.3281 18.78V15C12.3281 14.34 12.8681 13.8 13.5281 13.8H18.3641Z" fill="white"/>
</g>
<defs>
<filter id="filter0_d_269_13661" x="-2.3999" y="0.600098" width="36.8" height="36.8" filterUnits="userSpaceOnUse" color-interpolation-filters="sRGB">
<feFlood flood-opacity="0" result="BackgroundImageFix"/>
<feColorMatrix in="SourceAlpha" type="matrix" values="0 0 0 0 0 0 0 0 0 0 0 0 0 0 0 0 0 0 127 0" result="hardAlpha"/>
<feOffset dy="4"/>
<feGaussianBlur stdDeviation="2"/>
<feComposite in2="hardAlpha" operator="out"/>
<feColorMatrix type="matrix" values="0 0 0 0 0.504167 0 0 0 0 0.425964 0 0 0 0 0.340313 0 0 0 1 0"/>
<feBlend mode="normal" in2="BackgroundImageFix" result="effect1_dropShadow_269_13661"/>
<feBlend mode="normal" in="SourceGraphic" in2="effect1_dropShadow_269_13661" result="shape"/>
</filter>
</defs>
</svg>
