<svg width="20" height="20" viewBox="0 0 20 20" fill="none" xmlns="http://www.w3.org/2000/svg">
<path d="M16.6663 9.99996V15C16.6663 16.8416 15.1747 18.3333 13.333 18.3333H6.66634C4.82467 18.3333 3.33301 16.8416 3.33301 15V9.99996C3.33301 9.54163 3.70801 9.16663 4.16634 9.16663H5.80801C6.26634 9.16663 6.64134 9.54163 6.64134 9.99996V12.6166C6.64134 13.2333 6.98301 13.8 7.52467 14.0916C7.76634 14.225 8.03301 14.2916 8.30801 14.2916C8.62467 14.2916 8.94134 14.2 9.21634 14.0166L10.008 13.5L10.7413 13.9916C11.2497 14.3333 11.8997 14.375 12.4413 14.0833C12.9913 13.7916 13.333 13.2333 13.333 12.6083V9.99996C13.333 9.54163 13.708 9.16663 14.1663 9.16663H15.833C16.2913 9.16663 16.6663 9.54163 16.6663 9.99996Z" fill="#C99E6F"/>
<path d="M17.9163 5.83329V6.66663C17.9163 7.58329 17.4747 8.33329 16.2497 8.33329H3.74967C2.47467 8.33329 2.08301 7.58329 2.08301 6.66663V5.83329C2.08301 4.91663 2.47467 4.16663 3.74967 4.16663H16.2497C17.4747 4.16663 17.9163 4.91663 17.9163 5.83329Z" fill="#C99E6F"/>
<path d="M9.69998 4.16662H5.09998C4.81665 3.85828 4.82498 3.38328 5.12498 3.08328L6.30832 1.89995C6.61665 1.59162 7.12498 1.59162 7.43332 1.89995L9.69998 4.16662Z" fill="#C99E6F"/>
<path d="M14.892 4.16662H10.292L12.5587 1.89995C12.867 1.59162 13.3753 1.59162 13.6837 1.89995L14.867 3.08328C15.167 3.38328 15.1753 3.85828 14.892 4.16662Z" fill="#C99E6F"/>
<path d="M11.6419 9.16663C12.1002 9.16663 12.4752 9.54163 12.4752 9.99996V12.6083C12.4752 13.275 11.7335 13.675 11.1835 13.3L10.4335 12.8C10.1585 12.6166 9.8002 12.6166 9.51686 12.8L8.73353 13.3166C8.18353 13.6833 7.4502 13.2833 7.4502 12.625V9.99996C7.4502 9.54163 7.8252 9.16663 8.28353 9.16663H11.6419Z" fill="#C99E6F"/>
</svg>
