<svg width="25" height="24" viewBox="0 0 25 24" fill="none" xmlns="http://www.w3.org/2000/svg">
<path d="M23.251 12.2332C23.251 11.3699 23.1796 10.7399 23.0248 10.0865H12.9653V13.9832H18.87C18.751 14.9515 18.1082 16.4099 16.6796 17.3898L16.6596 17.5203L19.8402 19.935L20.0606 19.9565C22.0843 18.1249 23.251 15.4298 23.251 12.2332Z" fill="#4285F4"/>
<path d="M12.9645 22.5C15.8573 22.5 18.2858 21.5666 20.0597 19.9566L16.6787 17.3898C15.774 18.0082 14.5597 18.4399 12.9645 18.4399C10.1312 18.4399 7.72645 16.6082 6.86922 14.0765L6.74358 14.087L3.43632 16.5954L3.39307 16.7132C5.15495 20.1432 8.77399 22.5 12.9645 22.5Z" fill="#34A853"/>
<path d="M6.86997 14.0766C6.64379 13.4233 6.51289 12.7232 6.51289 11.9999C6.51289 11.2765 6.64379 10.5766 6.85807 9.92325L6.85208 9.78411L3.50337 7.23547L3.39381 7.28655C2.66765 8.7099 2.25098 10.3083 2.25098 11.9999C2.25098 13.6916 2.66765 15.2899 3.39381 16.7132L6.86997 14.0766Z" fill="#FBBC05"/>
<path d="M12.9645 5.55997C14.9764 5.55997 16.3335 6.41163 17.1074 7.12335L20.1312 4.23C18.2741 2.53834 15.8574 1.5 12.9645 1.5C8.77402 1.5 5.15496 3.85665 3.39307 7.28662L6.85734 9.92332C7.72647 7.39166 10.1312 5.55997 12.9645 5.55997Z" fill="#EB4335"/>
</svg>
