<svg width="20" height="20" viewBox="0 0 20 20" fill="none" xmlns="http://www.w3.org/2000/svg">
<path d="M10.0003 18.0417C9.74199 18.0417 9.49199 18.0084 9.28366 17.9334C6.10033 16.8417 1.04199 12.9667 1.04199 7.24171C1.04199 4.32504 3.40033 1.95837 6.30033 1.95837C7.70866 1.95837 9.02533 2.50837 10.0003 3.49171C10.9753 2.50837 12.292 1.95837 13.7003 1.95837C16.6003 1.95837 18.9587 4.33337 18.9587 7.24171C18.9587 12.975 13.9003 16.8417 10.717 17.9334C10.5087 18.0084 10.2587 18.0417 10.0003 18.0417ZM6.30033 3.20837C4.09199 3.20837 2.29199 5.01671 2.29199 7.24171C2.29199 12.9334 7.76699 16.1 9.69199 16.7584C9.84199 16.8084 10.167 16.8084 10.317 16.7584C12.2337 16.1 17.717 12.9417 17.717 7.24171C17.717 5.01671 15.917 3.20837 13.7087 3.20837C12.442 3.20837 11.267 3.80004 10.5087 4.82504C10.2753 5.14171 9.74199 5.14171 9.50866 4.82504C8.73366 3.79171 7.56699 3.20837 6.30033 3.20837Z" fill="#1C1917"/>
</svg>
