<svg width="56" height="44" viewBox="0 0 56 44" fill="none" xmlns="http://www.w3.org/2000/svg">
<g clip-path="url(#clip0_318_11693)">
<path d="M20.3357 21.1384V26.19H26.3561C23.8692 28.1924 21.8097 30.7026 20.3357 33.5626C18.1519 29.3245 14.678 25.8506 10.4374 23.6642C14.6703 21.483 18.1416 18.0143 20.328 13.7814C21.4004 15.8641 22.8019 17.7889 24.5065 19.4935L28.0762 15.9237C24.7111 12.5586 22.8589 8.0874 22.8589 3.32861H17.8074C17.8074 13.1493 9.81822 21.1384 -0.00244141 21.1384V26.19C9.81822 26.19 17.8074 34.1791 17.8074 43.9998H22.8589C22.8589 34.1791 30.8481 26.19 40.6687 26.19V21.1384H20.3331H20.3357Z" fill="#F5F4F1"/>
<path d="M37.3758 5.5724C36.7852 5.81073 36.1298 5.92989 35.4071 5.92989C34.4745 5.92989 33.7543 5.6812 33.2466 5.18123C32.7492 4.69162 32.5005 4.0155 32.5005 3.14508C32.5005 2.19177 32.7725 1.43534 33.3191 0.875786C33.8864 0.295509 34.6765 0.00537109 35.6946 0.00537109C36.2567 0.00537109 36.8008 0.0882678 37.3215 0.254061L37.1013 1.26436C36.6609 1.08303 36.1687 0.99495 35.6272 0.99495C34.9796 0.99495 34.4874 1.19183 34.1507 1.58559C33.8502 1.9379 33.7025 2.40937 33.7025 2.99742C33.7025 3.58547 33.8579 4.08544 34.1688 4.41962C34.4874 4.76157 34.9433 4.93254 35.534 4.93254C35.8008 4.93254 36.0443 4.89886 36.2671 4.82892V2.82645H37.3733V5.56981L37.3758 5.5724Z" fill="#F5F4F1"/>
<path d="M38.547 5.84666V0.0957031H39.6532V4.8778H41.5209V5.84666H38.5444H38.547Z" fill="#F5F4F1"/>
<path d="M46.4715 5.12664C45.9431 5.67065 45.2825 5.94266 44.4872 5.94266C43.6271 5.94266 42.9717 5.68101 42.5184 5.16032C42.0858 4.66294 41.8682 3.9635 41.8682 3.05941C41.8682 2.15531 42.1454 1.38593 42.6971 0.816014C43.223 0.272005 43.8862 0 44.6815 0C45.5415 0 46.1969 0.259052 46.6451 0.777156C47.0803 1.27713 47.2979 1.97657 47.2979 2.87807C47.2979 3.77957 47.0207 4.55673 46.4689 5.12664H46.4715ZM45.7384 1.54654C45.4742 1.18128 45.0908 0.997351 44.5856 0.997351C44.1401 0.997351 43.7748 1.16314 43.495 1.49732C43.1997 1.84704 43.0546 2.3237 43.0546 2.9247C43.0546 3.5257 43.179 4.0438 43.4302 4.39093C43.6945 4.75361 44.0779 4.93494 44.5779 4.93494C45.026 4.93494 45.3913 4.76915 45.6736 4.44015C45.9664 4.09043 46.114 3.61378 46.114 3.00759C46.114 2.40141 45.9897 1.89367 45.7384 1.54654Z" fill="#F5F4F1"/>
<path d="M53.9114 5.84666H52.5461L51.7146 2.67586C51.6369 2.37795 51.5618 1.98419 51.4892 1.4894H51.4814C51.44 1.88834 51.3701 2.27692 51.269 2.64996L50.4375 5.84666H49.1474L47.6812 0.0957031H48.8676L49.6499 3.27427C49.738 3.6214 49.8106 4.00998 49.8624 4.44001H49.8701C49.9427 3.98407 50.0178 3.60845 50.0955 3.30795L50.9737 0.0957031H52.1472L53.0332 3.29241C53.1446 3.69912 53.2197 4.07215 53.2611 4.40892H53.2689C53.3311 4.00221 53.401 3.63435 53.4865 3.31054L54.2688 0.0982936H55.375L53.9088 5.84925L53.9114 5.84666Z" fill="#F5F4F1"/>
<path d="M37.1145 11.4188C37.1145 12.9731 36.3193 13.7503 34.7287 13.7503C33.2443 13.7503 32.5034 13.0534 32.5034 11.6623V7.90347H33.6096V11.5898C33.6096 11.9887 33.6899 12.2866 33.8505 12.4809C34.0396 12.7115 34.3556 12.8255 34.8038 12.8255C35.252 12.8255 35.5421 12.7244 35.7286 12.525C35.9203 12.3203 36.0162 11.9732 36.0162 11.4887V7.90088H37.1145V11.4188Z" fill="#F5F4F1"/>
<path d="M41.5132 11.0976C41.0987 11.4887 40.5314 11.6856 39.8112 11.6856C39.6688 11.6856 39.5367 11.6804 39.4123 11.6701V13.6544H38.3062V7.90345C38.832 7.87755 39.3709 7.86719 39.9175 7.86719C40.6195 7.86719 41.1583 8.02003 41.5365 8.3283C41.9122 8.63657 42.0987 9.07437 42.0987 9.6391C42.0987 10.2401 41.9044 10.7271 41.5158 11.1002L41.5132 11.0976ZM39.8397 8.77905C39.6947 8.77905 39.5522 8.78164 39.4123 8.78682V10.7168C39.5548 10.7478 39.7102 10.7634 39.8838 10.7634C40.5936 10.7634 40.9485 10.424 40.9485 9.74791C40.9485 9.07178 40.5806 8.77905 39.8423 8.77905H39.8397Z" fill="#F5F4F1"/>
</g>
<defs>
<clipPath id="clip0_318_11693">
<rect width="55.3776" height="44" fill="white"/>
</clipPath>
</defs>
</svg>
