<svg width="20" height="20" viewBox="0 0 20 20" fill="none" xmlns="http://www.w3.org/2000/svg">
<path d="M14.1665 1.66663H5.83317C3.53317 1.66663 1.6665 3.52496 1.6665 5.81663V10.8V11.6333C1.6665 13.925 3.53317 15.7833 5.83317 15.7833H7.08317C7.30817 15.7833 7.60817 15.9333 7.74984 16.1166L8.99984 17.775C9.54984 18.5083 10.4498 18.5083 10.9998 17.775L12.2498 16.1166C12.4082 15.9083 12.6582 15.7833 12.9165 15.7833H14.1665C16.4665 15.7833 18.3332 13.925 18.3332 11.6333V5.81663C18.3332 3.52496 16.4665 1.66663 14.1665 1.66663ZM6.6665 9.99996C6.19984 9.99996 5.83317 9.62496 5.83317 9.16663C5.83317 8.70829 6.20817 8.33329 6.6665 8.33329C7.12484 8.33329 7.49984 8.70829 7.49984 9.16663C7.49984 9.62496 7.13317 9.99996 6.6665 9.99996ZM9.99984 9.99996C9.53317 9.99996 9.1665 9.62496 9.1665 9.16663C9.1665 8.70829 9.5415 8.33329 9.99984 8.33329C10.4582 8.33329 10.8332 8.70829 10.8332 9.16663C10.8332 9.62496 10.4665 9.99996 9.99984 9.99996ZM13.3332 9.99996C12.8665 9.99996 12.4998 9.62496 12.4998 9.16663C12.4998 8.70829 12.8748 8.33329 13.3332 8.33329C13.7915 8.33329 14.1665 8.70829 14.1665 9.16663C14.1665 9.62496 13.7998 9.99996 13.3332 9.99996Z" fill="#8F7A63"/>
</svg>
