<svg width="14" height="12" viewBox="0 0 14 12" fill="none" xmlns="http://www.w3.org/2000/svg">
<path fill-rule="evenodd" clip-rule="evenodd" d="M12.7906 10.7698C12.5035 11.0684 12.0287 11.0777 11.7302 10.7906L7.23017 6.54062C7.08311 6.39922 7 6.20401 7 6C7 5.79599 7.08311 5.60078 7.23017 5.45938L11.7302 1.20937C12.0287 0.922279 12.5035 0.931589 12.7906 1.23017C13.0777 1.52875 13.0684 2.00353 12.7698 2.29062L8.83208 6L12.7698 9.70937C13.0684 9.99647 13.0777 10.4713 12.7906 10.7698ZM6.79062 10.7698C6.50353 11.0684 6.02875 11.0777 5.73017 10.7906L1.23017 6.54063C1.08311 6.39922 0.999999 6.20401 0.999999 6C0.999999 5.79599 1.08311 5.60078 1.23017 5.45938L5.73017 1.20938C6.02875 0.92228 6.50353 0.93159 6.79062 1.23017C7.07772 1.52875 7.06841 2.00353 6.76983 2.29062L2.83208 6L6.76983 9.70937C7.06841 9.99647 7.07772 10.4713 6.79062 10.7698Z" fill="white" stroke="white" stroke-width="0.5" stroke-linecap="round" stroke-linejoin="round"/>
</svg>
