<svg width="107" height="124" viewBox="0 0 107 124" fill="none" xmlns="http://www.w3.org/2000/svg">
<path fill-rule="evenodd" clip-rule="evenodd" d="M53.5001 51.51L46.9087 41.8169C46.6057 41.3714 46.1381 41.0645 45.6088 40.9637C45.0795 40.8629 44.5318 40.9766 44.0863 41.2796C43.6408 41.5826 43.3339 42.0503 43.2331 42.5796C43.1324 43.1089 43.246 43.6565 43.549 44.102L50.2989 54.0288L13.7018 65.942L5.43261 53.6794L26.4032 46.8645C26.6596 46.7843 26.8975 46.654 27.1031 46.4813C27.3088 46.3085 27.4781 46.0966 27.6014 45.858C27.7246 45.6193 27.7993 45.3586 27.8211 45.0909C27.8429 44.8232 27.8114 44.5538 27.7284 44.2983C27.6454 44.0429 27.5126 43.8064 27.3376 43.6026C27.1626 43.3988 26.9489 43.2318 26.7089 43.1112C26.4689 42.9905 26.2074 42.9187 25.9394 42.8998C25.6715 42.8809 25.4025 42.9153 25.1479 43.0011L4.1773 49.8159C3.57866 50.0098 3.03337 50.3403 2.58456 50.7814C2.13576 51.2224 1.79578 51.7619 1.59152 52.357C1.38612 52.9515 1.32177 53.5856 1.40355 54.2092C1.48534 54.8329 1.71102 55.4289 2.06277 55.9503L10.4254 68.347L0.882614 82.4947C0.530606 83.0163 0.304574 83.6125 0.22234 84.2364C0.140107 84.8602 0.203919 85.4947 0.408747 86.0897C0.613576 86.6846 0.953819 87.2239 1.40265 87.6649C1.85148 88.106 2.39663 88.4367 2.99511 88.6311L10.8439 91.1803V105.95C10.8439 108.641 12.609 111.013 15.1867 111.785L51.7492 122.754C52.8912 123.097 54.109 123.097 55.251 122.754L91.8135 111.785C93.0688 111.409 94.1693 110.638 94.9517 109.587C95.734 108.536 96.1565 107.26 96.1564 105.95V91.1803L104.005 88.6311C104.603 88.4364 105.148 88.1054 105.597 87.6644C106.045 87.2233 106.385 86.6841 106.59 86.0892C106.795 85.4944 106.859 84.8601 106.777 84.2363C106.695 83.6126 106.469 83.0164 106.118 82.4947L96.5748 68.347L104.937 55.9503C105.65 54.8941 105.825 53.5616 105.409 52.357C105.204 51.7619 104.864 51.2224 104.416 50.7814C103.967 50.3403 103.422 50.0098 102.823 49.8159L66.2685 37.9372C65.4319 37.6654 64.5297 37.6726 63.6975 37.9576C62.8652 38.2426 62.148 38.79 61.6536 39.5175L53.5001 51.51ZM53.4656 85.1983L44.1645 98.9214C43.671 99.6507 42.9538 100.2 42.121 100.486C41.2882 100.772 40.385 100.78 39.5475 100.508L14.9064 92.5006V105.95C14.9063 106.387 15.0472 106.812 15.3081 107.162C15.569 107.513 15.936 107.77 16.3546 107.895L52.9171 118.864C53.0678 118.909 53.2232 118.937 53.3803 118.945C53.2442 112.634 53.3945 93.3314 53.4656 85.1983ZM13.5393 87.7841L40.8028 96.6424L50.3029 82.6267L13.7039 70.752L4.25043 84.7656L13.4642 87.7597L13.5393 87.7841ZM93.536 87.7597L102.75 84.7656L93.2964 70.752L56.6973 82.6267L66.1975 96.6424L93.4609 87.7841L93.536 87.7597ZM53.5001 79.393L87.554 68.343L53.5001 57.2584V79.393ZM101.568 53.6794L93.2984 65.942L56.7014 54.0288L65.0132 41.8027L101.568 53.6794ZM39.0092 54.7153C38.4319 53.9374 37.9197 53.1134 37.4776 52.2514C37.2333 51.7711 36.8082 51.4076 36.2959 51.2407C35.7835 51.0739 35.2259 51.1174 34.7456 51.3617C34.2653 51.606 33.9018 52.0311 33.7349 52.5435C33.5681 53.0558 33.6116 53.6135 33.8559 54.0938C34.3718 55.1053 34.9975 56.1189 35.7389 57.1244C36.0623 57.5472 36.5388 57.8262 37.0659 57.9013C37.5929 57.9763 38.1284 57.8415 38.557 57.5257C38.9856 57.21 39.2732 56.7386 39.3577 56.213C39.4423 55.6874 39.3171 55.1496 39.0092 54.7153ZM36.0395 46.4258C36.0598 45.6072 36.1796 44.813 36.399 44.0513C36.4725 43.7948 36.4948 43.5263 36.4645 43.2613C36.4342 42.9962 36.3521 42.7397 36.2227 42.5063C36.0933 42.273 35.9192 42.0675 35.7104 41.9014C35.5016 41.7354 35.2621 41.6121 35.0056 41.5386C34.7491 41.4651 34.4807 41.4429 34.2156 41.4731C33.9505 41.5034 33.694 41.5855 33.4607 41.7149C33.2273 41.8443 33.0218 42.0184 32.8557 42.2272C32.6897 42.4361 32.5664 42.6756 32.4929 42.932C32.1787 44.0365 32.0054 45.1763 31.977 46.3242C31.9635 46.8629 32.1646 47.385 32.536 47.7754C32.9074 48.1659 33.4187 48.3928 33.9575 48.4063C34.4962 48.4197 35.0182 48.2186 35.4086 47.8472C35.7991 47.4758 36.026 46.9645 36.0395 46.4258ZM39.1636 39.6414C39.6856 39.158 40.2706 38.7111 40.9104 38.3069C41.3662 38.0195 41.6891 37.5628 41.8081 37.0373C41.9272 36.5118 41.8326 35.9605 41.5452 35.5048C41.2578 35.049 40.8011 34.7261 40.2756 34.6071C39.7501 34.488 39.1988 34.5826 38.7431 34.87C37.9095 35.3937 37.1261 35.9935 36.4031 36.6616C36.0179 37.0301 35.793 37.5352 35.7769 38.0681C35.7608 38.6009 35.9548 39.1187 36.3171 39.5098C36.6794 39.9008 37.1809 40.1338 37.7134 40.1584C38.2459 40.1831 38.7667 39.9974 39.1636 39.6414ZM46.7178 36.1375C47.7899 35.9417 48.8746 35.8222 49.9637 35.78C50.4893 35.7394 50.9785 35.4964 51.3283 35.1021C51.6781 34.7077 51.8611 34.193 51.8387 33.6664C51.8163 33.1398 51.5903 32.6424 51.2083 32.2792C50.8263 31.916 50.3181 31.7153 49.791 31.7195C48.4504 31.7764 47.1789 31.9206 45.9784 32.142C45.4486 32.2401 44.9794 32.5446 44.6741 32.9886C44.3687 33.4325 44.2523 33.9796 44.3503 34.5095C44.4484 35.0393 44.7529 35.5085 45.1969 35.8138C45.6409 36.1191 46.1879 36.2356 46.7178 36.1375ZM57.3046 36.0177C59.0373 36.038 60.6501 35.977 62.1471 35.845C62.6788 35.7912 63.1678 35.53 63.5083 35.118C63.8487 34.7061 64.013 34.1766 63.9657 33.6443C63.9184 33.112 63.6633 32.6198 63.2556 32.2744C62.8479 31.9289 62.3204 31.758 61.7876 31.7988C60.4165 31.9186 58.9398 31.9755 57.3514 31.9552C56.8126 31.949 56.2935 32.157 55.9082 32.5336C55.5229 32.9101 55.3029 33.4243 55.2968 33.9631C55.2906 34.5018 55.4986 35.0209 55.8752 35.4062C56.2517 35.7915 56.7659 36.0115 57.3046 36.0177ZM68.8239 34.5999C70.8348 33.9844 72.5329 33.1963 73.9548 32.2924C74.1798 32.149 74.3744 31.9627 74.5274 31.7441C74.6804 31.5255 74.7888 31.279 74.8465 31.0185C74.9043 30.758 74.9101 30.4887 74.8638 30.226C74.8174 29.9632 74.7197 29.7122 74.5764 29.4872C74.433 29.2622 74.2467 29.0676 74.0281 28.9146C73.8096 28.7616 73.563 28.6532 73.3025 28.5954C73.042 28.5377 72.7727 28.5319 72.51 28.5782C72.2472 28.6246 71.9962 28.7223 71.7712 28.8656C70.4821 29.665 69.091 30.2867 67.6356 30.7141C67.1203 30.8716 66.6887 31.2275 66.4358 31.7033C66.1828 32.179 66.1292 32.7358 66.2868 33.2511C66.4444 33.7664 66.8002 34.198 67.276 34.4509C67.7518 34.7039 68.3086 34.7574 68.8239 34.5999ZM79.1629 26.6069C80.0769 24.7085 80.5008 22.6114 80.3959 20.507C80.3835 20.2406 80.3187 19.9791 80.2053 19.7377C80.0918 19.4962 79.932 19.2795 79.7348 19.0998C79.5376 18.9202 79.3069 18.7811 79.056 18.6906C78.805 18.6001 78.5387 18.5599 78.2722 18.5723C78.0057 18.5847 77.7443 18.6494 77.5029 18.7629C77.2614 18.8763 77.0447 19.0362 76.865 19.2334C76.6853 19.4306 76.5463 19.6613 76.4558 19.9122C76.3653 20.1632 76.3251 20.4295 76.3375 20.6959C76.4105 22.1251 76.1242 23.5497 75.5046 24.8397C75.2973 25.321 75.2838 25.8637 75.467 26.3547C75.6501 26.8457 76.0158 27.247 76.4876 27.4749C76.9595 27.7029 77.5011 27.7398 77.9996 27.5781C78.498 27.4164 78.9148 27.0684 79.1629 26.6069ZM51.4181 9.44079C52.6815 3.51767 57.8287 0.74501 61.3936 0.84251C64.9523 0.94001 66.9328 3.89954 61.8932 9.44079H64.7512C65.2899 9.44079 65.8066 9.6548 66.1875 10.0357C66.5684 10.4167 66.7825 10.9333 66.7825 11.472C66.7825 12.0108 66.5684 12.5274 66.1875 12.9084C65.8066 13.2893 65.2899 13.5033 64.7512 13.5033H61.9318C66.9226 19.0181 64.9421 21.9614 61.3936 22.0609C57.8368 22.1584 52.7039 19.398 51.4262 13.5033H51.15C50.627 13.4799 50.1331 13.2557 49.7713 12.8773C49.4095 12.4989 49.2075 11.9956 49.2075 11.472C49.2075 10.9485 49.4095 10.4452 49.7713 10.0668C50.1331 9.68841 50.627 9.46419 51.15 9.44079H51.4181ZM77.869 13.3245C76.3882 11.3238 74.3793 9.93032 72.1896 9.48142C71.67 9.39345 71.1364 9.51072 70.7015 9.80851C70.2666 10.1063 69.9644 10.5613 69.8585 11.0777C69.7526 11.594 69.8513 12.1313 70.1339 12.5762C70.4164 13.0211 70.8607 13.339 71.3731 13.4627C72.6365 13.7206 73.7496 14.588 74.6048 15.7438C74.7636 15.9581 74.9632 16.139 75.1919 16.2763C75.4207 16.4135 75.6743 16.5043 75.9382 16.5435C76.202 16.5828 76.4711 16.5697 76.7299 16.5049C76.9887 16.4402 77.2322 16.3251 77.4465 16.1663C77.6609 16.0074 77.8418 15.8079 77.979 15.5791C78.1162 15.3503 78.2071 15.0968 78.2463 14.8329C78.2855 14.569 78.2724 14.3 78.2077 14.0412C78.1429 13.7824 78.0279 13.5389 77.869 13.3245Z" fill="#E6E3DB"/>
</svg>
