<svg width="20" height="23" viewBox="0 0 20 23" fill="none" xmlns="http://www.w3.org/2000/svg">
<path d="M0.21098 11.9913L0.530448 11.7699C0.530448 11.7699 0.381923 13.6531 0.603309 14.2163C0.824695 14.7796 1.16378 16.419 1.72425 17.3494L1.79711 16.9823C1.79711 16.9823 2.30994 18.2041 2.55655 18.4507C2.80316 18.6973 4.59106 20.4572 5.98663 21.0177C7.3822 21.5781 8.335 22.0209 8.335 22.0209L9.60727 22.3011L9.9996 22.4188L10.3919 22.2927L11.6642 22.0125C11.6642 22.0125 12.617 21.5781 14.0126 21.0177C15.4081 20.4572 17.1932 18.6917 17.437 18.4479C17.6809 18.2041 18.1965 16.9795 18.1965 16.9795L18.2693 17.3466C18.8298 16.4162 19.1745 14.7768 19.3903 14.2135C19.6061 13.6503 19.4632 11.7671 19.4632 11.7671L19.7826 11.9885C19.7826 11.9885 20.1245 10.1025 19.9508 9.53921C19.777 8.97594 19.8807 8.04836 19.9339 7.36178C19.9872 6.67521 19.8807 4.96577 19.9339 4.30442C19.9872 3.64306 19.6677 0 19.6677 0V1.24705C19.6677 1.24705 19.7182 3.48893 19.4463 4.25677C19.1745 5.02462 18.8354 5.92137 18.8354 5.92137C18.7008 6.16471 18.5865 6.41871 18.4935 6.68081C18.3871 7.04523 18.3296 7.42218 18.3226 7.80175C18.2275 8.17796 18.0515 8.52893 17.807 8.83022C17.5884 9.00116 16.218 9.11045 16.218 9.11045L15.4081 8.76016C14.7298 8.57959 14.0852 8.28998 13.4997 7.90264C12.5441 7.2665 12.3256 7.48789 12.3256 7.48789C11.916 7.2551 11.468 7.09755 11.0028 7.0227C10.6457 7.04991 10.301 7.16547 9.9996 7.35898C9.69823 7.16547 9.35348 7.04991 8.99636 7.0227C8.53122 7.09755 8.08324 7.2551 7.67365 7.48789C7.67365 7.48789 7.45506 7.2665 6.49946 7.90264C5.91398 8.28998 5.26945 8.57959 4.59106 8.76016L3.78398 9.12726C3.78398 9.12726 2.41363 9.00396 2.19505 8.84703C1.95049 8.54574 1.77453 8.19478 1.67941 7.81857C1.67237 7.43899 1.61489 7.06204 1.50847 6.69763C1.41554 6.43553 1.30119 6.18152 1.16658 5.93819C1.16658 5.93819 0.824695 5.03303 0.555669 4.27359C0.286643 3.51415 0.334284 1.26386 0.334284 1.26386V0C0.334284 0 0.0176178 3.64306 0.0680602 4.30722C0.118503 4.97138 0.00921073 6.68081 0.0680602 7.36458C0.12691 8.04836 0.227794 8.98154 0.0512459 9.54201C-0.125302 10.1025 0.21098 11.9913 0.21098 11.9913ZM7.62601 9.98479C8.13884 9.86148 8.94872 9.78862 9.02719 9.7634C9.26335 9.75071 9.50002 9.75071 9.73618 9.7634H10.2798C10.516 9.75071 10.7527 9.75071 10.9888 9.7634C11.0617 9.78862 11.8716 9.86148 12.39 9.98479C12.7652 10.0814 13.1332 10.204 13.4913 10.3519C13.4913 10.3519 12.2415 10.719 12.0537 10.719C11.866 10.719 10.745 10.7863 9.9996 10.7498C9.25418 10.7863 8.0884 10.719 7.94548 10.719C7.80256 10.719 6.52468 10.3519 6.52468 10.3519C6.8828 10.204 7.2508 10.0814 7.62601 9.98479Z" fill="#8F7A63"/>
</svg>
