<svg width="20" height="20" viewBox="0 0 20 20" fill="none" xmlns="http://www.w3.org/2000/svg">
<path d="M9.99992 0.833374C4.94908 0.833374 0.833252 4.94921 0.833252 10C0.833252 15.0509 4.94908 19.1667 9.99992 19.1667C15.0508 19.1667 19.1666 15.0509 19.1666 10C19.1666 4.94921 15.0508 0.833374 9.99992 0.833374ZM13.6666 10.6875H10.6874V13.6667C10.6874 14.0425 10.3758 14.3542 9.99992 14.3542C9.62408 14.3542 9.31242 14.0425 9.31242 13.6667V10.6875H6.33325C5.95742 10.6875 5.64575 10.3759 5.64575 10C5.64575 9.62421 5.95742 9.31254 6.33325 9.31254H9.31242V6.33337C9.31242 5.95754 9.62408 5.64587 9.99992 5.64587C10.3758 5.64587 10.6874 5.95754 10.6874 6.33337V9.31254H13.6666C14.0424 9.31254 14.3541 9.62421 14.3541 10C14.3541 10.3759 14.0424 10.6875 13.6666 10.6875Z" fill="#8F7A63"/>
</svg>
