<svg width="20" height="21" viewBox="0 0 20 21" fill="none" xmlns="http://www.w3.org/2000/svg">
<path fill-rule="evenodd" clip-rule="evenodd" d="M13.7711 2.1665H13.828C14.5645 2.1665 15.1584 2.16649 15.6366 2.21195C16.1296 2.25884 16.5593 2.35814 16.9456 2.59488C17.3367 2.83457 17.6656 3.16344 17.9053 3.55459C18.142 3.94091 18.2413 4.37052 18.2882 4.86361C18.3337 5.34175 18.3337 5.93571 18.3337 6.67219V6.72914C18.3337 7.21306 18.3337 7.61691 18.3025 7.94492C18.2699 8.28783 18.1991 8.6074 18.0195 8.90051C17.8437 9.18736 17.6026 9.42853 17.3157 9.6043C17.0226 9.78392 16.703 9.85467 16.3601 9.88728C16.0321 9.91846 15.6283 9.91845 15.1443 9.91844L14.2236 9.91844C13.5271 9.91847 12.9463 9.91848 12.4852 9.8565C11.9986 9.79107 11.5592 9.64714 11.2061 9.29406C10.853 8.94098 10.7091 8.5016 10.6437 8.01494C10.5817 7.55387 10.5817 6.97308 10.5817 6.27658L10.5817 5.35588C10.5817 4.87196 10.5817 4.46805 10.6129 4.14003C10.6455 3.79712 10.7162 3.47755 10.8959 3.18443C11.0716 2.89759 11.3128 2.65642 11.5997 2.48064C11.8928 2.30102 12.2123 2.23028 12.5552 2.19767C12.8833 2.16649 13.2872 2.16649 13.7711 2.1665ZM14.4577 7.01147C14.0581 7.01147 13.8584 7.01147 13.7173 6.91138C13.6676 6.87607 13.6241 6.83261 13.5888 6.78284C13.4887 6.64179 13.4887 6.44202 13.4887 6.04248C13.4887 5.64295 13.4887 5.44316 13.5888 5.30211C13.6241 5.25234 13.6676 5.20888 13.7173 5.17356C13.8584 5.07348 14.0581 5.07348 14.4577 5.07348C14.8572 5.07348 15.057 5.07348 15.1981 5.17356C15.2478 5.20888 15.2913 5.25234 15.3266 5.30211C15.4267 5.44316 15.4267 5.64293 15.4267 6.04247C15.4267 6.44201 15.4267 6.64178 15.3266 6.78284C15.2913 6.83261 15.2478 6.87607 15.1981 6.91138C15.057 7.01147 14.8572 7.01147 14.4577 7.01147Z" fill="#8F7A63"/>
<path fill-rule="evenodd" clip-rule="evenodd" d="M8.401 2.48064C8.10789 2.30102 7.78832 2.23028 7.44541 2.19767C7.11738 2.16649 6.71352 2.16649 6.22958 2.1665H6.17269C5.43622 2.1665 4.84223 2.16649 4.3641 2.21195C3.87101 2.25884 3.4414 2.35814 3.05508 2.59488C2.66393 2.83457 2.33506 3.16344 2.09537 3.55459C1.85863 3.94091 1.75932 4.37052 1.71244 4.86361C1.66698 5.34174 1.66699 5.93569 1.66699 6.67216V6.72905C1.66698 7.213 1.66697 7.61689 1.69816 7.94492C1.73077 8.28783 1.80151 8.6074 1.98113 8.90051C2.15691 9.18736 2.39808 9.42853 2.68492 9.6043C2.97804 9.78392 3.29761 9.85467 3.64052 9.88728C3.96852 9.91846 4.37235 9.91845 4.85625 9.91844L5.77707 9.91844C6.47355 9.91847 7.05436 9.91848 7.51543 9.8565C8.00209 9.79107 8.44147 9.64714 8.79455 9.29406C9.14762 8.94098 9.29155 8.5016 9.35698 8.01494C9.41897 7.55387 9.41895 6.97309 9.41893 6.2766L9.41893 5.35589C9.41894 4.87199 9.41895 4.46803 9.38776 4.14003C9.35516 3.79712 9.28441 3.47755 9.10479 3.18443C8.92901 2.89759 8.68785 2.65642 8.401 2.48064ZM4.8026 6.91138C4.94365 7.01147 5.14342 7.01147 5.54296 7.01147C5.9425 7.01147 6.14227 7.01147 6.28333 6.91138C6.3331 6.87607 6.37656 6.83261 6.41187 6.78284C6.51195 6.64178 6.51195 6.44201 6.51195 6.04247C6.51195 5.64293 6.51195 5.44316 6.41187 5.30211C6.37656 5.25234 6.3331 5.20888 6.28333 5.17356C6.14227 5.07348 5.9425 5.07348 5.54296 5.07348C5.14342 5.07348 4.94365 5.07348 4.8026 5.17356C4.75283 5.20888 4.70937 5.25234 4.67405 5.30211C4.57397 5.44316 4.57397 5.64293 4.57397 6.04247C4.57397 6.44201 4.57397 6.64178 4.67405 6.78284C4.70937 6.83261 4.75283 6.87607 4.8026 6.91138Z" fill="#8F7A63"/>
<path fill-rule="evenodd" clip-rule="evenodd" d="M7.51543 11.1432C8.00209 11.2086 8.44147 11.3525 8.79455 11.7056C9.14762 12.0587 9.29155 12.4981 9.35698 12.9847C9.41897 13.4458 9.41895 14.0266 9.41893 14.7231L9.41893 15.6438C9.41894 16.1277 9.41895 16.5316 9.38776 16.8596C9.35516 17.2026 9.28441 17.5221 9.10479 17.8152C8.92901 18.1021 8.68785 18.3433 8.401 18.519C8.10789 18.6987 7.78832 18.7694 7.44541 18.802C7.11739 18.8332 6.71347 18.8332 6.22955 18.8332H6.17268C5.43619 18.8332 4.84224 18.8332 4.3641 18.7877C3.87101 18.7408 3.4414 18.6415 3.05508 18.4048C2.66393 18.1651 2.33506 17.8362 2.09537 17.4451C1.85863 17.0588 1.75932 16.6292 1.71244 16.1361C1.66698 15.6579 1.66699 15.064 1.66699 14.3275V14.2706C1.66698 13.7867 1.66697 13.3828 1.69816 13.0548C1.73077 12.7118 1.80151 12.3923 1.98113 12.0992C2.15691 11.8123 2.39808 11.5712 2.68492 11.3954C2.97804 11.2158 3.29761 11.145 3.64052 11.1124C3.96853 11.0812 4.37239 11.0812 4.8563 11.0812L5.77707 11.0812C6.47357 11.0812 7.05436 11.0812 7.51543 11.1432ZM5.54296 15.9262C5.14342 15.9262 4.94365 15.9262 4.8026 15.8261C4.75283 15.7908 4.70937 15.7473 4.67405 15.6976C4.57397 15.5565 4.57397 15.3567 4.57397 14.9572C4.57397 14.5577 4.57397 14.3579 4.67405 14.2168C4.70937 14.1671 4.75283 14.1236 4.8026 14.0883C4.94365 13.9882 5.14342 13.9882 5.54295 13.9882C5.94249 13.9882 6.14227 13.9882 6.28333 14.0883C6.3331 14.1236 6.37656 14.1671 6.41187 14.2168C6.51195 14.3579 6.51195 14.5577 6.51195 14.9572C6.51195 15.3567 6.51195 15.5565 6.41187 15.6976C6.37656 15.7473 6.3331 15.7908 6.28333 15.8261C6.14227 15.9262 5.9425 15.9262 5.54296 15.9262Z" fill="#8F7A63"/>
<path d="M10.5817 14.3461V14.3758H11.7445C11.7445 13.8193 11.7452 13.4458 11.7742 13.1609C11.8022 12.8859 11.8516 12.7587 11.9078 12.6747C11.9785 12.5689 12.0694 12.478 12.1752 12.4073C12.2592 12.3512 12.3863 12.3017 12.6614 12.2737C12.9462 12.2447 13.3198 12.244 13.8763 12.244H15.4267V11.0812H13.8466C13.3275 11.0812 12.8944 11.0812 12.5438 11.1169C12.1767 11.1542 11.8361 11.2354 11.5291 11.4405C11.2964 11.596 11.0965 11.7959 10.941 12.0287C10.7359 12.3356 10.6547 12.6762 10.6174 13.0433C10.5817 13.3939 10.5817 13.827 10.5817 14.3461Z" fill="#8F7A63"/>
<path d="M18.3337 15.9458V15.9262H17.1709C17.1709 16.2953 17.1706 16.5431 17.1575 16.7349C17.1447 16.9215 17.1219 17.0124 17.0971 17.0722C16.9988 17.3096 16.8101 17.4983 16.5727 17.5966C16.5129 17.6214 16.422 17.6442 16.2354 17.657C16.0436 17.6701 15.7958 17.6704 15.4267 17.6704H13.8763V18.8332H15.4463C15.7908 18.8332 16.0784 18.8332 16.3146 18.8171C16.5604 18.8003 16.7926 18.7641 17.0177 18.6709C17.54 18.4545 17.955 18.0395 18.1714 17.5172C18.2646 17.2921 18.3008 17.0599 18.3176 16.8141C18.3337 16.5779 18.3337 16.2903 18.3337 15.9458Z" fill="#8F7A63"/>
<path d="M11.7445 18.2518C11.7445 18.5729 11.4842 18.8332 11.1631 18.8332C10.842 18.8332 10.5817 18.5729 10.5817 18.2518V15.9262H11.7445V18.2518Z" fill="#8F7A63"/>
<path d="M17.7523 11.0812C17.4312 11.0812 17.1709 11.3415 17.1709 11.6626V14.3758H18.3337V11.6626C18.3337 11.3415 18.0734 11.0812 17.7523 11.0812Z" fill="#8F7A63"/>
<path d="M13.3971 14.3476C13.3337 14.5007 13.3337 14.6949 13.3337 15.0832C13.3337 15.4715 13.3337 15.6656 13.3971 15.8187C13.4817 16.0229 13.6439 16.1852 13.8481 16.2697C14.0012 16.3332 14.1954 16.3332 14.5837 16.3332C14.9719 16.3332 15.1661 16.3332 15.3192 16.2697C15.5234 16.1852 15.6856 16.0229 15.7702 15.8187C15.8337 15.6656 15.8337 15.4715 15.8337 15.0832C15.8337 14.6949 15.8337 14.5007 15.7702 14.3476C15.6856 14.1434 15.5234 13.9812 15.3192 13.8966C15.1661 13.8332 14.9719 13.8332 14.5837 13.8332C14.1954 13.8332 14.0012 13.8332 13.8481 13.8966C13.6439 13.9812 13.4817 14.1434 13.3971 14.3476Z" fill="#8F7A63"/>
</svg>
