<svg width="126" height="127" viewBox="0 0 126 127" fill="none" xmlns="http://www.w3.org/2000/svg">
<path d="M3.40541 0.206543H0V3.61195H3.40541V0.206543Z" fill="black"/>
<path d="M6.81081 0.206543H3.40541V3.61195H6.81081V0.206543Z" fill="black"/>
<path d="M10.2162 0.206543H6.81081V3.61195H10.2162V0.206543Z" fill="black"/>
<path d="M13.6216 0.206543H10.2162V3.61195H13.6216V0.206543Z" fill="black"/>
<path d="M17.027 0.206543H13.6216V3.61195H17.027V0.206543Z" fill="black"/>
<path d="M20.4324 0.206543H17.027V3.61195H20.4324V0.206543Z" fill="black"/>
<path d="M23.8378 0.206543H20.4324V3.61195H23.8378V0.206543Z" fill="black"/>
<path d="M30.6487 0.206543H27.2432V3.61195H30.6487V0.206543Z" fill="black"/>
<path d="M34.0541 0.206543H30.6487V3.61195H34.0541V0.206543Z" fill="black"/>
<path d="M37.4595 0.206543H34.0541V3.61195H37.4595V0.206543Z" fill="black"/>
<path d="M40.8649 0.206543H37.4595V3.61195H40.8649V0.206543Z" fill="black"/>
<path d="M51.0811 0.206543H47.6757V3.61195H51.0811V0.206543Z" fill="black"/>
<path d="M54.4865 0.206543H51.0811V3.61195H54.4865V0.206543Z" fill="black"/>
<path d="M61.2973 0.206543H57.8919V3.61195H61.2973V0.206543Z" fill="black"/>
<path d="M81.7297 0.206543H78.3243V3.61195H81.7297V0.206543Z" fill="black"/>
<path d="M88.5405 0.206543H85.1351V3.61195H88.5405V0.206543Z" fill="black"/>
<path d="M91.9459 0.206543H88.5405V3.61195H91.9459V0.206543Z" fill="black"/>
<path d="M95.3514 0.206543H91.9459V3.61195H95.3514V0.206543Z" fill="black"/>
<path d="M98.7568 0.206543H95.3514V3.61195H98.7568V0.206543Z" fill="black"/>
<path d="M105.568 0.206543H102.162V3.61195H105.568V0.206543Z" fill="black"/>
<path d="M108.973 0.206543H105.568V3.61195H108.973V0.206543Z" fill="black"/>
<path d="M112.378 0.206543H108.973V3.61195H112.378V0.206543Z" fill="black"/>
<path d="M115.784 0.206543H112.378V3.61195H115.784V0.206543Z" fill="black"/>
<path d="M119.189 0.206543H115.784V3.61195H119.189V0.206543Z" fill="black"/>
<path d="M122.595 0.206543H119.189V3.61195H122.595V0.206543Z" fill="black"/>
<path d="M126 0.206543H122.595V3.61195H126V0.206543Z" fill="black"/>
<path d="M3.40541 3.61195H0V7.01735H3.40541V3.61195Z" fill="black"/>
<path d="M23.8378 3.61195H20.4324V7.01735H23.8378V3.61195Z" fill="black"/>
<path d="M34.0541 3.61195H30.6487V7.01735H34.0541V3.61195Z" fill="black"/>
<path d="M37.4595 3.61195H34.0541V7.01735H37.4595V3.61195Z" fill="black"/>
<path d="M40.8649 3.61195H37.4595V7.01735H40.8649V3.61195Z" fill="black"/>
<path d="M68.1081 3.61195H64.7027V7.01735H68.1081V3.61195Z" fill="black"/>
<path d="M74.9189 3.61195H71.5135V7.01735H74.9189V3.61195Z" fill="black"/>
<path d="M78.3243 3.61195H74.9189V7.01735H78.3243V3.61195Z" fill="black"/>
<path d="M85.1351 3.61195H81.7297V7.01735H85.1351V3.61195Z" fill="black"/>
<path d="M88.5405 3.61195H85.1351V7.01735H88.5405V3.61195Z" fill="black"/>
<path d="M91.9459 3.61195H88.5405V7.01735H91.9459V3.61195Z" fill="black"/>
<path d="M105.568 3.61195H102.162V7.01735H105.568V3.61195Z" fill="black"/>
<path d="M126 3.61195H122.595V7.01735H126V3.61195Z" fill="black"/>
<path d="M3.40541 7.01735H0V10.4228H3.40541V7.01735Z" fill="black"/>
<path d="M10.2162 7.01735H6.81081V10.4228H10.2162V7.01735Z" fill="black"/>
<path d="M13.6216 7.01735H10.2162V10.4228H13.6216V7.01735Z" fill="black"/>
<path d="M17.027 7.01735H13.6216V10.4228H17.027V7.01735Z" fill="black"/>
<path d="M23.8378 7.01735H20.4324V10.4228H23.8378V7.01735Z" fill="black"/>
<path d="M37.4595 7.01735H34.0541V10.4228H37.4595V7.01735Z" fill="black"/>
<path d="M44.2703 7.01735H40.8649L40.8649 10.4228H44.2703V7.01735Z" fill="black"/>
<path d="M47.6757 7.01735H44.2703V10.4228H47.6757V7.01735Z" fill="black"/>
<path d="M61.2973 7.01735H57.8919V10.4228H61.2973V7.01735Z" fill="black"/>
<path d="M71.5135 7.01735H68.1081V10.4228H71.5135V7.01735Z" fill="black"/>
<path d="M74.9189 7.01735H71.5135V10.4228H74.9189V7.01735Z" fill="black"/>
<path d="M78.3243 7.01735H74.9189V10.4228H78.3243V7.01735Z" fill="black"/>
<path d="M85.1351 7.01735H81.7297V10.4228H85.1351V7.01735Z" fill="black"/>
<path d="M88.5405 7.01735H85.1351V10.4228H88.5405V7.01735Z" fill="black"/>
<path d="M91.9459 7.01735H88.5405V10.4228H91.9459V7.01735Z" fill="black"/>
<path d="M95.3514 7.01735H91.9459V10.4228H95.3514V7.01735Z" fill="black"/>
<path d="M98.7568 7.01735H95.3514V10.4228H98.7568V7.01735Z" fill="black"/>
<path d="M105.568 7.01735H102.162V10.4228H105.568V7.01735Z" fill="black"/>
<path d="M112.378 7.01735H108.973V10.4228H112.378V7.01735Z" fill="black"/>
<path d="M115.784 7.01735H112.378V10.4228H115.784V7.01735Z" fill="black"/>
<path d="M119.189 7.01735H115.784V10.4228H119.189V7.01735Z" fill="black"/>
<path d="M126 7.01735H122.595V10.4228H126V7.01735Z" fill="black"/>
<path d="M3.40541 10.4228H0V13.8282H3.40541V10.4228Z" fill="black"/>
<path d="M10.2162 10.4228H6.81081V13.8282H10.2162V10.4228Z" fill="black"/>
<path d="M13.6216 10.4228H10.2162V13.8282H13.6216V10.4228Z" fill="black"/>
<path d="M17.027 10.4228H13.6216V13.8282H17.027V10.4228Z" fill="black"/>
<path d="M23.8378 10.4228H20.4324V13.8282H23.8378V10.4228Z" fill="black"/>
<path d="M30.6487 10.4228H27.2432V13.8282H30.6487V10.4228Z" fill="black"/>
<path d="M34.0541 10.4228H30.6487V13.8282H34.0541V10.4228Z" fill="black"/>
<path d="M37.4595 10.4228H34.0541V13.8282H37.4595V10.4228Z" fill="black"/>
<path d="M40.8649 10.4228H37.4595V13.8282H40.8649L40.8649 10.4228Z" fill="black"/>
<path d="M47.6757 10.4228H44.2703L44.2703 13.8282H47.6757V10.4228Z" fill="black"/>
<path d="M51.0811 10.4228H47.6757V13.8282H51.0811V10.4228Z" fill="black"/>
<path d="M54.4865 10.4228H51.0811V13.8282H54.4865V10.4228Z" fill="black"/>
<path d="M57.8919 10.4228H54.4865V13.8282H57.8919L57.8919 10.4228Z" fill="black"/>
<path d="M61.2973 10.4228H57.8919L57.8919 13.8282H61.2973V10.4228Z" fill="black"/>
<path d="M64.7027 10.4228H61.2973V13.8282H64.7027V10.4228Z" fill="black"/>
<path d="M78.3243 10.4228H74.9189V13.8282H78.3243V10.4228Z" fill="black"/>
<path d="M91.9459 10.4228H88.5405V13.8282H91.9459V10.4228Z" fill="black"/>
<path d="M105.568 10.4228H102.162V13.8282H105.568V10.4228Z" fill="black"/>
<path d="M112.378 10.4228H108.973V13.8282H112.378V10.4228Z" fill="black"/>
<path d="M115.784 10.4228H112.378V13.8282H115.784V10.4228Z" fill="black"/>
<path d="M119.189 10.4228H115.784V13.8282H119.189V10.4228Z" fill="black"/>
<path d="M126 10.4228H122.595V13.8282H126V10.4228Z" fill="black"/>
<path d="M3.40541 13.8282H0V17.2336H3.40541V13.8282Z" fill="black"/>
<path d="M10.2162 13.8282H6.81081V17.2336H10.2162V13.8282Z" fill="black"/>
<path d="M13.6216 13.8282H10.2162V17.2336H13.6216V13.8282Z" fill="black"/>
<path d="M17.027 13.8282H13.6216V17.2336H17.027V13.8282Z" fill="black"/>
<path d="M23.8378 13.8282H20.4324V17.2336H23.8378V13.8282Z" fill="black"/>
<path d="M30.6487 13.8282H27.2432V17.2336H30.6487V13.8282Z" fill="black"/>
<path d="M44.2703 13.8282H40.8649L40.8649 17.2336H44.2703L44.2703 13.8282Z" fill="black"/>
<path d="M47.6757 13.8282H44.2703L44.2703 17.2336H47.6757V13.8282Z" fill="black"/>
<path d="M61.2973 13.8282H57.8919L57.8919 17.2336H61.2973V13.8282Z" fill="black"/>
<path d="M68.1081 13.8282H64.7027V17.2336H68.1081V13.8282Z" fill="black"/>
<path d="M74.9189 13.8282H71.5135V17.2336H74.9189V13.8282Z" fill="black"/>
<path d="M85.1351 13.8282H81.7297V17.2336H85.1351V13.8282Z" fill="black"/>
<path d="M105.568 13.8282H102.162V17.2336H105.568V13.8282Z" fill="black"/>
<path d="M112.378 13.8282H108.973V17.2336H112.378V13.8282Z" fill="black"/>
<path d="M115.784 13.8282H112.378V17.2336H115.784V13.8282Z" fill="black"/>
<path d="M119.189 13.8282H115.784V17.2336H119.189V13.8282Z" fill="black"/>
<path d="M126 13.8282H122.595V17.2336H126V13.8282Z" fill="black"/>
<path d="M3.40541 17.2336H0V20.639H3.40541V17.2336Z" fill="black"/>
<path d="M23.8378 17.2336H20.4324V20.639H23.8378V17.2336Z" fill="black"/>
<path d="M30.6487 17.2336H27.2432V20.639H30.6487V17.2336Z" fill="black"/>
<path d="M34.0541 17.2336H30.6487V20.639H34.0541V17.2336Z" fill="black"/>
<path d="M37.4595 17.2336H34.0541V20.639H37.4595V17.2336Z" fill="black"/>
<path d="M44.2703 17.2336H40.8649V20.639H44.2703V17.2336Z" fill="black"/>
<path d="M47.6757 17.2336H44.2703V20.639H47.6757V17.2336Z" fill="black"/>
<path d="M51.0811 17.2336H47.6757V20.639H51.0811V17.2336Z" fill="black"/>
<path d="M54.4865 17.2336H51.0811V20.639H54.4865V17.2336Z" fill="black"/>
<path d="M64.7027 17.2336H61.2973L61.2973 20.639H64.7027V17.2336Z" fill="black"/>
<path d="M68.1081 17.2336H64.7027V20.639H68.1081V17.2336Z" fill="black"/>
<path d="M71.5135 17.2336H68.1081V20.639H71.5135V17.2336Z" fill="black"/>
<path d="M74.9189 17.2336H71.5135V20.639H74.9189V17.2336Z" fill="black"/>
<path d="M78.3243 17.2336H74.9189V20.639H78.3243V17.2336Z" fill="black"/>
<path d="M81.7297 17.2336H78.3243V20.639H81.7297V17.2336Z" fill="black"/>
<path d="M85.1351 17.2336H81.7297V20.639H85.1351V17.2336Z" fill="black"/>
<path d="M88.5405 17.2336H85.1351V20.639H88.5405V17.2336Z" fill="black"/>
<path d="M91.9459 17.2336H88.5405V20.639H91.9459V17.2336Z" fill="black"/>
<path d="M98.7568 17.2336H95.3514V20.639H98.7568V17.2336Z" fill="black"/>
<path d="M105.568 17.2336H102.162V20.639H105.568V17.2336Z" fill="black"/>
<path d="M126 17.2336H122.595V20.639H126V17.2336Z" fill="black"/>
<path d="M3.40541 20.639H0V24.0444H3.40541V20.639Z" fill="black"/>
<path d="M6.81081 20.639H3.40541V24.0444H6.81081V20.639Z" fill="black"/>
<path d="M10.2162 20.639H6.81081V24.0444H10.2162V20.639Z" fill="black"/>
<path d="M13.6216 20.639H10.2162V24.0444H13.6216V20.639Z" fill="black"/>
<path d="M17.027 20.639H13.6216V24.0444H17.027V20.639Z" fill="black"/>
<path d="M20.4324 20.639H17.027V24.0444H20.4324V20.639Z" fill="black"/>
<path d="M23.8378 20.639H20.4324V24.0444H23.8378V20.639Z" fill="black"/>
<path d="M30.6487 20.639H27.2432V24.0444H30.6487V20.639Z" fill="black"/>
<path d="M37.4595 20.639H34.0541V24.0444H37.4595V20.639Z" fill="black"/>
<path d="M44.2703 20.639H40.8649V24.0444H44.2703V20.639Z" fill="black"/>
<path d="M51.0811 20.639H47.6757V24.0444H51.0811V20.639Z" fill="black"/>
<path d="M57.8919 20.639H54.4865L54.4865 24.0444H57.8919V20.639Z" fill="black"/>
<path d="M64.7027 20.639H61.2973V24.0444H64.7027V20.639Z" fill="black"/>
<path d="M71.5135 20.639H68.1081V24.0444H71.5135V20.639Z" fill="black"/>
<path d="M78.3243 20.639H74.9189V24.0444H78.3243V20.639Z" fill="black"/>
<path d="M85.1351 20.639H81.7297V24.0444H85.1351V20.639Z" fill="black"/>
<path d="M91.9459 20.639H88.5405V24.0444H91.9459V20.639Z" fill="black"/>
<path d="M98.7568 20.639H95.3514V24.0444H98.7568V20.639Z" fill="black"/>
<path d="M105.568 20.639H102.162V24.0444H105.568V20.639Z" fill="black"/>
<path d="M108.973 20.639H105.568V24.0444H108.973V20.639Z" fill="black"/>
<path d="M112.378 20.639H108.973V24.0444H112.378V20.639Z" fill="black"/>
<path d="M115.784 20.639H112.378V24.0444H115.784V20.639Z" fill="black"/>
<path d="M119.189 20.639H115.784V24.0444H119.189V20.639Z" fill="black"/>
<path d="M122.595 20.639H119.189V24.0444H122.595V20.639Z" fill="black"/>
<path d="M126 20.639H122.595V24.0444H126V20.639Z" fill="black"/>
<path d="M30.6487 24.0444H27.2432V27.4498H30.6487V24.0444Z" fill="black"/>
<path d="M44.2703 24.0444H40.8649V27.4498H44.2703V24.0444Z" fill="black"/>
<path d="M57.8919 24.0444H54.4865V27.4498H57.8919V24.0444Z" fill="black"/>
<path d="M61.2973 24.0444H57.8919V27.4498H61.2973L61.2973 24.0444Z" fill="black"/>
<path d="M74.9189 24.0444H71.5135V27.4498H74.9189V24.0444Z" fill="black"/>
<path d="M78.3243 24.0444H74.9189V27.4498H78.3243V24.0444Z" fill="black"/>
<path d="M91.9459 24.0444H88.5405V27.4498H91.9459V24.0444Z" fill="black"/>
<path d="M95.3514 24.0444H91.9459V27.4498H95.3514V24.0444Z" fill="black"/>
<path d="M3.40541 27.4498H0V30.8552H3.40541V27.4498Z" fill="black"/>
<path d="M6.81081 27.4498H3.40541V30.8552H6.81081V27.4498Z" fill="black"/>
<path d="M10.2162 27.4498H6.81081V30.8552H10.2162V27.4498Z" fill="black"/>
<path d="M17.027 27.4498H13.6216V30.8552H17.027V27.4498Z" fill="black"/>
<path d="M23.8378 27.4498H20.4324V30.8552H23.8378V27.4498Z" fill="black"/>
<path d="M30.6487 27.4498H27.2432V30.8552H30.6487V27.4498Z" fill="black"/>
<path d="M34.0541 27.4498H30.6487V30.8552H34.0541V27.4498Z" fill="black"/>
<path d="M47.6757 27.4498H44.2703L44.2703 30.8552H47.6757V27.4498Z" fill="black"/>
<path d="M54.4865 27.4498H51.0811V30.8552H54.4865L54.4865 27.4498Z" fill="black"/>
<path d="M57.8919 27.4498H54.4865L54.4865 30.8552H57.8919V27.4498Z" fill="black"/>
<path d="M61.2973 27.4498H57.8919V30.8552H61.2973V27.4498Z" fill="black"/>
<path d="M64.7027 27.4498H61.2973V30.8552H64.7027V27.4498Z" fill="black"/>
<path d="M78.3243 27.4498H74.9189V30.8552H78.3243V27.4498Z" fill="black"/>
<path d="M88.5405 27.4498H85.1351V30.8552H88.5405V27.4498Z" fill="black"/>
<path d="M102.162 27.4498H98.7568V30.8552H102.162V27.4498Z" fill="black"/>
<path d="M105.568 27.4498H102.162V30.8552H105.568V27.4498Z" fill="black"/>
<path d="M108.973 27.4498H105.568V30.8552H108.973V27.4498Z" fill="black"/>
<path d="M112.378 27.4498H108.973V30.8552H112.378V27.4498Z" fill="black"/>
<path d="M115.784 27.4498H112.378V30.8552H115.784V27.4498Z" fill="black"/>
<path d="M126 27.4498H122.595V30.8552H126V27.4498Z" fill="black"/>
<path d="M3.40541 30.8552H0V34.2606H3.40541V30.8552Z" fill="black"/>
<path d="M27.2432 30.8552H23.8378V34.2606H27.2432V30.8552Z" fill="black"/>
<path d="M40.8649 30.8552H37.4595V34.2606H40.8649V30.8552Z" fill="black"/>
<path d="M44.2703 30.8552H40.8649V34.2606H44.2703L44.2703 30.8552Z" fill="black"/>
<path d="M51.0811 30.8552H47.6757V34.2606H51.0811L51.0811 30.8552Z" fill="black"/>
<path d="M54.4865 30.8552H51.0811L51.0811 34.2606H54.4865V30.8552Z" fill="black"/>
<path d="M61.2973 30.8552H57.8919L57.8919 34.2606H61.2973V30.8552Z" fill="black"/>
<path d="M68.1081 30.8552H64.7027V34.2606H68.1081V30.8552Z" fill="black"/>
<path d="M71.5135 30.8552H68.1081V34.2606H71.5135V30.8552Z" fill="black"/>
<path d="M74.9189 30.8552H71.5135V34.2606H74.9189V30.8552Z" fill="black"/>
<path d="M88.5405 30.8552H85.1351V34.2606H88.5405V30.8552Z" fill="black"/>
<path d="M91.9459 30.8552H88.5405V34.2606H91.9459V30.8552Z" fill="black"/>
<path d="M105.568 30.8552H102.162V34.2606H105.568V30.8552Z" fill="black"/>
<path d="M108.973 30.8552H105.568V34.2606H108.973V30.8552Z" fill="black"/>
<path d="M115.784 30.8552H112.378V34.2606H115.784V30.8552Z" fill="black"/>
<path d="M122.595 30.8552H119.189V34.2606H122.595V30.8552Z" fill="black"/>
<path d="M10.2162 34.2606H6.81081V37.666H10.2162V34.2606Z" fill="black"/>
<path d="M13.6216 34.2606H10.2162V37.666H13.6216V34.2606Z" fill="black"/>
<path d="M17.027 34.2606H13.6216V37.666H17.027V34.2606Z" fill="black"/>
<path d="M20.4324 34.2606H17.027V37.666H20.4324V34.2606Z" fill="black"/>
<path d="M23.8378 34.2606H20.4324V37.666H23.8378V34.2606Z" fill="black"/>
<path d="M44.2703 34.2606H40.8649L40.8649 37.666H44.2703V34.2606Z" fill="black"/>
<path d="M47.6757 34.2606H44.2703V37.666H47.6757V34.2606Z" fill="black"/>
<path d="M51.0811 34.2606H47.6757V37.666H51.0811V34.2606Z" fill="black"/>
<path d="M54.4865 34.2606H51.0811V37.666H54.4865V34.2606Z" fill="black"/>
<path d="M57.8919 34.2606H54.4865V37.666H57.8919L57.8919 34.2606Z" fill="black"/>
<path d="M61.2973 34.2606H57.8919L57.8919 37.666H61.2973V34.2606Z" fill="black"/>
<path d="M68.1081 34.2606H64.7027V37.666H68.1081V34.2606Z" fill="black"/>
<path d="M71.5135 34.2606H68.1081V37.666H71.5135V34.2606Z" fill="black"/>
<path d="M78.3243 34.2606H74.9189V37.666H78.3243V34.2606Z" fill="black"/>
<path d="M88.5405 34.2606H85.1351V37.666H88.5405V34.2606Z" fill="black"/>
<path d="M95.3514 34.2606H91.9459V37.666H95.3514V34.2606Z" fill="black"/>
<path d="M102.162 34.2606H98.7568V37.666H102.162V34.2606Z" fill="black"/>
<path d="M115.784 34.2606H112.378V37.666H115.784V34.2606Z" fill="black"/>
<path d="M17.027 37.666H13.6216V41.0714H17.027V37.666Z" fill="black"/>
<path d="M30.6487 37.666H27.2432V41.0714H30.6487V37.666Z" fill="black"/>
<path d="M34.0541 37.666H30.6487V41.0714H34.0541V37.666Z" fill="black"/>
<path d="M37.4595 37.666H34.0541V41.0714H37.4595V37.666Z" fill="black"/>
<path d="M44.2703 37.666H40.8649V41.0714H44.2703V37.666Z" fill="black"/>
<path d="M51.0811 37.666H47.6757V41.0714H51.0811V37.666Z" fill="black"/>
<path d="M54.4865 37.666H51.0811V41.0714H54.4865V37.666Z" fill="black"/>
<path d="M64.7027 37.666H61.2973L61.2973 41.0714H64.7027V37.666Z" fill="black"/>
<path d="M74.9189 37.666H71.5135V41.0714H74.9189V37.666Z" fill="black"/>
<path d="M78.3243 37.666H74.9189V41.0714H78.3243V37.666Z" fill="black"/>
<path d="M88.5405 37.666H85.1351V41.0714H88.5405V37.666Z" fill="black"/>
<path d="M91.9459 37.666H88.5405V41.0714H91.9459V37.666Z" fill="black"/>
<path d="M95.3514 37.666H91.9459V41.0714H95.3514V37.666Z" fill="black"/>
<path d="M98.7568 37.666H95.3514V41.0714H98.7568V37.666Z" fill="black"/>
<path d="M102.162 37.666H98.7568V41.0714H102.162V37.666Z" fill="black"/>
<path d="M105.568 37.666H102.162V41.0714H105.568V37.666Z" fill="black"/>
<path d="M108.973 37.666H105.568V41.0714H108.973V37.666Z" fill="black"/>
<path d="M6.81081 41.0714H3.40541V44.4768H6.81081V41.0714Z" fill="black"/>
<path d="M10.2162 41.0714H6.81081V44.4768H10.2162V41.0714Z" fill="black"/>
<path d="M13.6216 41.0714L10.2162 41.0714V44.4768H13.6216V41.0714Z" fill="black"/>
<path d="M17.027 41.0714H13.6216V44.4768H17.027V41.0714Z" fill="black"/>
<path d="M23.8378 41.0714H20.4324V44.4768H23.8378V41.0714Z" fill="black"/>
<path d="M30.6487 41.0714H27.2432V44.4768H30.6487V41.0714Z" fill="black"/>
<path d="M34.0541 41.0714H30.6487V44.4768H34.0541V41.0714Z" fill="black"/>
<path d="M51.0811 41.0714H47.6757V44.4768H51.0811V41.0714Z" fill="black"/>
<path d="M57.8919 41.0714L54.4865 41.0714L54.4865 44.4768H57.8919V41.0714Z" fill="black"/>
<path d="M64.7027 41.0714H61.2973V44.4768H64.7027V41.0714Z" fill="black"/>
<path d="M68.1081 41.0714L64.7027 41.0714V44.4768H68.1081V41.0714Z" fill="black"/>
<path d="M78.3243 41.0714H74.9189V44.4768H78.3243V41.0714Z" fill="black"/>
<path d="M85.1351 41.0714L81.7297 41.0714V44.4768H85.1351V41.0714Z" fill="black"/>
<path d="M88.5405 41.0714H85.1351V44.4768H88.5405V41.0714Z" fill="black"/>
<path d="M91.9459 41.0714H88.5405V44.4768H91.9459V41.0714Z" fill="black"/>
<path d="M95.3514 41.0714H91.9459V44.4768H95.3514V41.0714Z" fill="black"/>
<path d="M98.7568 41.0714H95.3514V44.4768H98.7568V41.0714Z" fill="black"/>
<path d="M108.973 41.0714H105.568V44.4768H108.973V41.0714Z" fill="black"/>
<path d="M112.378 41.0714L108.973 41.0714V44.4768H112.378V41.0714Z" fill="black"/>
<path d="M126 41.0714H122.595V44.4768H126V41.0714Z" fill="black"/>
<path d="M6.81081 44.4768H3.40541V47.8822H6.81081V44.4768Z" fill="black"/>
<path d="M17.027 44.4768H13.6216V47.8822H17.027V44.4768Z" fill="black"/>
<path d="M40.8649 44.4768H37.4595V47.8822H40.8649V44.4768Z" fill="black"/>
<path d="M51.0811 44.4768H47.6757V47.8822H51.0811V44.4768Z" fill="black"/>
<path d="M61.2973 44.4768H57.8919L57.8919 47.8822H61.2973L61.2973 44.4768Z" fill="black"/>
<path d="M64.7027 44.4768H61.2973L61.2973 47.8822H64.7027V44.4768Z" fill="black"/>
<path d="M68.1081 44.4768H64.7027V47.8822H68.1081V44.4768Z" fill="black"/>
<path d="M78.3243 44.4768H74.9189V47.8822H78.3243V44.4768Z" fill="black"/>
<path d="M85.1351 44.4768H81.7297V47.8822H85.1351V44.4768Z" fill="black"/>
<path d="M95.3514 44.4768H91.9459V47.8822H95.3514V44.4768Z" fill="black"/>
<path d="M98.7568 44.4768H95.3514V47.8822H98.7568V44.4768Z" fill="black"/>
<path d="M102.162 44.4768L98.7568 44.4768V47.8822H102.162V44.4768Z" fill="black"/>
<path d="M105.568 44.4768L102.162 44.4768V47.8822H105.568V44.4768Z" fill="black"/>
<path d="M115.784 44.4768L112.378 44.4768V47.8822H115.784V44.4768Z" fill="black"/>
<path d="M119.189 44.4768H115.784V47.8822H119.189V44.4768Z" fill="black"/>
<path d="M126 44.4768H122.595V47.8822H126V44.4768Z" fill="black"/>
<path d="M10.2162 47.8822H6.81081V51.2876H10.2162V47.8822Z" fill="black"/>
<path d="M13.6216 47.8822H10.2162V51.2876H13.6216V47.8822Z" fill="black"/>
<path d="M23.8378 47.8822H20.4324V51.2876H23.8378V47.8822Z" fill="black"/>
<path d="M27.2432 47.8822H23.8378V51.2876H27.2432V47.8822Z" fill="black"/>
<path d="M47.6757 47.8822H44.2703V51.2876H47.6757V47.8822Z" fill="black"/>
<path d="M57.8919 47.8822H54.4865V51.2876H57.8919L57.8919 47.8822Z" fill="black"/>
<path d="M61.2973 47.8822H57.8919L57.8919 51.2876H61.2973V47.8822Z" fill="black"/>
<path d="M64.7027 47.8822H61.2973V51.2876H64.7027V47.8822Z" fill="black"/>
<path d="M68.1081 47.8822H64.7027V51.2876H68.1081V47.8822Z" fill="black"/>
<path d="M81.7297 47.8822H78.3243V51.2876H81.7297V47.8822Z" fill="black"/>
<path d="M88.5405 47.8822H85.1351V51.2876H88.5405V47.8822Z" fill="black"/>
<path d="M91.9459 47.8822H88.5405V51.2876H91.9459V47.8822Z" fill="black"/>
<path d="M102.162 47.8822H98.7568V51.2876H102.162V47.8822Z" fill="black"/>
<path d="M105.568 47.8822H102.162V51.2876H105.568V47.8822Z" fill="black"/>
<path d="M112.378 47.8822H108.973V51.2876H112.378V47.8822Z" fill="black"/>
<path d="M119.189 47.8822H115.784V51.2876H119.189V47.8822Z" fill="black"/>
<path d="M122.595 47.8822H119.189V51.2876H122.595V47.8822Z" fill="black"/>
<path d="M3.40541 51.2876H0V54.693H3.40541V51.2876Z" fill="black"/>
<path d="M6.81081 51.2876L3.40541 51.2876V54.693H6.81081V51.2876Z" fill="black"/>
<path d="M10.2162 51.2876H6.81081V54.693H10.2162V51.2876Z" fill="black"/>
<path d="M13.6216 51.2876H10.2162V54.693H13.6216V51.2876Z" fill="black"/>
<path d="M17.027 51.2876L13.6216 51.2876V54.693H17.027V51.2876Z" fill="black"/>
<path d="M20.4324 51.2876L17.027 51.2876V54.693H20.4324V51.2876Z" fill="black"/>
<path d="M27.2432 51.2876H23.8378V54.693H27.2432V51.2876Z" fill="black"/>
<path d="M30.6487 51.2876L27.2432 51.2876V54.693H30.6487V51.2876Z" fill="black"/>
<path d="M37.4595 51.2876H34.0541V54.693H37.4595V51.2876Z" fill="black"/>
<path d="M44.2703 51.2876L40.8649 51.2876V54.693H44.2703L44.2703 51.2876Z" fill="black"/>
<path d="M47.6757 51.2876H44.2703L44.2703 54.693H47.6757V51.2876Z" fill="black"/>
<path d="M51.0811 51.2876L47.6757 51.2876V54.693H51.0811V51.2876Z" fill="black"/>
<path d="M54.4865 51.2876L51.0811 51.2876V54.693H54.4865L54.4865 51.2876Z" fill="black"/>
<path d="M57.8919 51.2876H54.4865L54.4865 54.693H57.8919V51.2876Z" fill="black"/>
<path d="M68.1081 51.2876H64.7027V54.693H68.1081V51.2876Z" fill="black"/>
<path d="M74.9189 51.2876H71.5135V54.693H74.9189V51.2876Z" fill="black"/>
<path d="M78.3243 51.2876L74.9189 51.2876V54.693H78.3243V51.2876Z" fill="black"/>
<path d="M85.1351 51.2876H81.7297V54.693H85.1351V51.2876Z" fill="black"/>
<path d="M91.9459 51.2876H88.5405V54.693H91.9459V51.2876Z" fill="black"/>
<path d="M98.7568 51.2876L95.3514 51.2876V54.693H98.7568V51.2876Z" fill="black"/>
<path d="M102.162 51.2876H98.7568V54.693H102.162V51.2876Z" fill="black"/>
<path d="M105.568 51.2876H102.162V54.693H105.568V51.2876Z" fill="black"/>
<path d="M108.973 51.2876H105.568V54.693H108.973V51.2876Z" fill="black"/>
<path d="M122.595 51.2876H119.189V54.693H122.595V51.2876Z" fill="black"/>
<path d="M3.40541 54.693H0V58.0984H3.40541V54.693Z" fill="black"/>
<path d="M10.2162 54.693H6.81081V58.0984H10.2162V54.693Z" fill="black"/>
<path d="M23.8378 54.693H20.4324V58.0984H23.8378V54.693Z" fill="black"/>
<path d="M34.0541 54.693H30.6487V58.0984H34.0541V54.693Z" fill="black"/>
<path d="M37.4595 54.693H34.0541V58.0984H37.4595V54.693Z" fill="black"/>
<path d="M40.8649 54.693H37.4595V58.0984H40.8649L40.8649 54.693Z" fill="black"/>
<path d="M44.2703 54.693H40.8649L40.8649 58.0984H44.2703V54.693Z" fill="black"/>
<path d="M54.4865 54.693H51.0811L51.0811 58.0984H54.4865V54.693Z" fill="black"/>
<path d="M64.7027 54.693L61.2973 54.693V58.0984H64.7027V54.693Z" fill="black"/>
<path d="M68.1081 54.693H64.7027V58.0984H68.1081V54.693Z" fill="black"/>
<path d="M78.3243 54.693H74.9189V58.0984H78.3243V54.693Z" fill="black"/>
<path d="M95.3514 54.693H91.9459V58.0984H95.3514V54.693Z" fill="black"/>
<path d="M98.7568 54.693H95.3514V58.0984H98.7568V54.693Z" fill="black"/>
<path d="M108.973 54.693H105.568V58.0984H108.973V54.693Z" fill="black"/>
<path d="M112.378 54.693L108.973 54.693V58.0984H112.378V54.693Z" fill="black"/>
<path d="M126 54.693L122.595 54.693V58.0984H126V54.693Z" fill="black"/>
<path d="M13.6216 58.0984L10.2162 58.0984V61.5038H13.6216V58.0984Z" fill="black"/>
<path d="M17.027 58.0984H13.6216V61.5038H17.027V58.0984Z" fill="black"/>
<path d="M20.4324 58.0984L17.027 58.0984V61.5038H20.4324V58.0984Z" fill="black"/>
<path d="M30.6487 58.0984L27.2432 58.0984V61.5038H30.6487V58.0984Z" fill="black"/>
<path d="M40.8649 58.0984H37.4595V61.5038H40.8649V58.0984Z" fill="black"/>
<path d="M51.0811 58.0984L47.6757 58.0984V61.5038H51.0811L51.0811 58.0984Z" fill="black"/>
<path d="M57.8919 58.0984L54.4865 58.0984L54.4865 61.5038H57.8919V58.0984Z" fill="black"/>
<path d="M64.7027 58.0984H61.2973V61.5038H64.7027V58.0984Z" fill="black"/>
<path d="M71.5135 58.0984L68.1081 58.0984V61.5038H71.5135V58.0984Z" fill="black"/>
<path d="M74.9189 58.0984L71.5135 58.0984V61.5038H74.9189V58.0984Z" fill="black"/>
<path d="M85.1351 58.0984H81.7297V61.5038H85.1351V58.0984Z" fill="black"/>
<path d="M102.162 58.0984L98.7568 58.0984V61.5038H102.162V58.0984Z" fill="black"/>
<path d="M105.568 58.0984L102.162 58.0984V61.5038H105.568V58.0984Z" fill="black"/>
<path d="M115.784 58.0984L112.378 58.0984V61.5038H115.784V58.0984Z" fill="black"/>
<path d="M119.189 58.0984H115.784V61.5038H119.189V58.0984Z" fill="black"/>
<path d="M122.595 58.0984L119.189 58.0984V61.5038H122.595V58.0984Z" fill="black"/>
<path d="M17.027 61.5038H13.6216V64.9092H17.027V61.5038Z" fill="black"/>
<path d="M23.8378 61.5038L20.4324 61.5038V64.9092H23.8378V61.5038Z" fill="black"/>
<path d="M27.2432 61.5038L23.8378 61.5038V64.9092H27.2432V61.5038Z" fill="black"/>
<path d="M30.6487 61.5038H27.2432V64.9092H30.6487V61.5038Z" fill="black"/>
<path d="M37.4595 61.5038L34.0541 61.5038V64.9092H37.4595V61.5038Z" fill="black"/>
<path d="M40.8649 61.5038H37.4595V64.9092H40.8649V61.5038Z" fill="black"/>
<path d="M47.6757 61.5038L44.2703 61.5038V64.9092H47.6757V61.5038Z" fill="black"/>
<path d="M51.0811 61.5038H47.6757V64.9092H51.0811V61.5038Z" fill="black"/>
<path d="M57.8919 61.5038H54.4865V64.9092H57.8919V61.5038Z" fill="black"/>
<path d="M61.2973 61.5038H57.8919V64.9092H61.2973L61.2973 61.5038Z" fill="black"/>
<path d="M64.7027 61.5038H61.2973L61.2973 64.9092H64.7027V61.5038Z" fill="black"/>
<path d="M81.7297 61.5038L78.3243 61.5038V64.9092H81.7297V61.5038Z" fill="black"/>
<path d="M88.5405 61.5038L85.1351 61.5038V64.9092H88.5405V61.5038Z" fill="black"/>
<path d="M95.3514 61.5038H91.9459V64.9092H95.3514V61.5038Z" fill="black"/>
<path d="M102.162 61.5038H98.7568V64.9092H102.162V61.5038Z" fill="black"/>
<path d="M105.568 61.5038H102.162V64.9092H105.568V61.5038Z" fill="black"/>
<path d="M112.378 61.5038L108.973 61.5038V64.9092H112.378V61.5038Z" fill="black"/>
<path d="M119.189 61.5038H115.784V64.9092H119.189V61.5038Z" fill="black"/>
<path d="M6.81081 64.9092H3.40541V68.3147H6.81081V64.9092Z" fill="black"/>
<path d="M10.2162 64.9092H6.81081V68.3147H10.2162V64.9092Z" fill="black"/>
<path d="M17.027 64.9092H13.6216V68.3147H17.027V64.9092Z" fill="black"/>
<path d="M27.2432 64.9092H23.8378V68.3147H27.2432V64.9092Z" fill="black"/>
<path d="M30.6487 64.9092H27.2432V68.3147H30.6487V64.9092Z" fill="black"/>
<path d="M34.0541 64.9092H30.6487V68.3147H34.0541V64.9092Z" fill="black"/>
<path d="M40.8649 64.9092H37.4595V68.3147H40.8649V64.9092Z" fill="black"/>
<path d="M44.2703 64.9092H40.8649V68.3147H44.2703L44.2703 64.9092Z" fill="black"/>
<path d="M51.0811 64.9092H47.6757V68.3147H51.0811V64.9092Z" fill="black"/>
<path d="M54.4865 64.9092H51.0811V68.3147H54.4865L54.4865 64.9092Z" fill="black"/>
<path d="M57.8919 64.9092H54.4865L54.4865 68.3147H57.8919V64.9092Z" fill="black"/>
<path d="M61.2973 64.9092H57.8919V68.3147H61.2973V64.9092Z" fill="black"/>
<path d="M64.7027 64.9092H61.2973V68.3147H64.7027V64.9092Z" fill="black"/>
<path d="M71.5135 64.9092H68.1081V68.3147H71.5135V64.9092Z" fill="black"/>
<path d="M74.9189 64.9092H71.5135V68.3147H74.9189V64.9092Z" fill="black"/>
<path d="M85.1351 64.9092H81.7297V68.3147H85.1351V64.9092Z" fill="black"/>
<path d="M91.9459 64.9092H88.5405V68.3147H91.9459V64.9092Z" fill="black"/>
<path d="M102.162 64.9092H98.7568V68.3147H102.162V64.9092Z" fill="black"/>
<path d="M105.568 64.9092H102.162V68.3147H105.568V64.9092Z" fill="black"/>
<path d="M108.973 64.9092H105.568V68.3147H108.973V64.9092Z" fill="black"/>
<path d="M115.784 64.9092H112.378V68.3147H115.784V64.9092Z" fill="black"/>
<path d="M126 64.9092H122.595V68.3147H126V64.9092Z" fill="black"/>
<path d="M3.40541 68.3147H0V71.7201H3.40541V68.3147Z" fill="black"/>
<path d="M13.6216 68.3147H10.2162V71.7201H13.6216V68.3147Z" fill="black"/>
<path d="M20.4324 68.3147H17.027V71.7201H20.4324V68.3147Z" fill="black"/>
<path d="M23.8378 68.3147H20.4324V71.7201H23.8378V68.3147Z" fill="black"/>
<path d="M27.2432 68.3147H23.8378V71.7201H27.2432V68.3147Z" fill="black"/>
<path d="M30.6487 68.3147H27.2432V71.7201H30.6487V68.3147Z" fill="black"/>
<path d="M34.0541 68.3147H30.6487V71.7201H34.0541V68.3147Z" fill="black"/>
<path d="M44.2703 68.3147H40.8649L40.8649 71.7201H44.2703V68.3147Z" fill="black"/>
<path d="M51.0811 68.3147H47.6757V71.7201H51.0811V68.3147Z" fill="black"/>
<path d="M57.8919 68.3147H54.4865L54.4865 71.7201H57.8919V68.3147Z" fill="black"/>
<path d="M61.2973 68.3147H57.8919V71.7201H61.2973V68.3147Z" fill="black"/>
<path d="M68.1081 68.3147H64.7027V71.7201H68.1081V68.3147Z" fill="black"/>
<path d="M74.9189 68.3147H71.5135V71.7201H74.9189V68.3147Z" fill="black"/>
<path d="M81.7297 68.3147H78.3243V71.7201H81.7297V68.3147Z" fill="black"/>
<path d="M85.1351 68.3147H81.7297V71.7201H85.1351V68.3147Z" fill="black"/>
<path d="M91.9459 68.3147H88.5405V71.7201H91.9459V68.3147Z" fill="black"/>
<path d="M98.7568 68.3147H95.3514V71.7201H98.7568V68.3147Z" fill="black"/>
<path d="M102.162 68.3147H98.7568V71.7201H102.162V68.3147Z" fill="black"/>
<path d="M126 68.3147H122.595V71.7201H126V68.3147Z" fill="black"/>
<path d="M6.81081 71.7201H3.40541V75.1255H6.81081V71.7201Z" fill="black"/>
<path d="M10.2162 71.7201H6.81081V75.1255H10.2162V71.7201Z" fill="black"/>
<path d="M13.6216 71.7201H10.2162V75.1255H13.6216V71.7201Z" fill="black"/>
<path d="M17.027 71.7201H13.6216V75.1255H17.027V71.7201Z" fill="black"/>
<path d="M34.0541 71.7201H30.6487V75.1255H34.0541V71.7201Z" fill="black"/>
<path d="M37.4595 71.7201H34.0541V75.1255H37.4595V71.7201Z" fill="black"/>
<path d="M51.0811 71.7201H47.6757V75.1255H51.0811V71.7201Z" fill="black"/>
<path d="M61.2973 71.7201H57.8919L57.8919 75.1255H61.2973V71.7201Z" fill="black"/>
<path d="M71.5135 71.7201H68.1081V75.1255H71.5135V71.7201Z" fill="black"/>
<path d="M74.9189 71.7201H71.5135V75.1255H74.9189V71.7201Z" fill="black"/>
<path d="M78.3243 71.7201H74.9189V75.1255H78.3243V71.7201Z" fill="black"/>
<path d="M88.5405 71.7201H85.1351V75.1255H88.5405V71.7201Z" fill="black"/>
<path d="M91.9459 71.7201H88.5405V75.1255H91.9459V71.7201Z" fill="black"/>
<path d="M115.784 71.7201H112.378V75.1255H115.784V71.7201Z" fill="black"/>
<path d="M6.81081 75.1255H3.40541V78.5309H6.81081V75.1255Z" fill="black"/>
<path d="M23.8378 75.1255H20.4324V78.5309H23.8378V75.1255Z" fill="black"/>
<path d="M34.0541 75.1255H30.6487V78.5309H34.0541V75.1255Z" fill="black"/>
<path d="M37.4595 75.1255H34.0541V78.5309H37.4595V75.1255Z" fill="black"/>
<path d="M44.2703 75.1255H40.8649V78.5309H44.2703V75.1255Z" fill="black"/>
<path d="M51.0811 75.1255H47.6757V78.5309H51.0811V75.1255Z" fill="black"/>
<path d="M68.1081 75.1255H64.7027V78.5309H68.1081V75.1255Z" fill="black"/>
<path d="M74.9189 75.1255H71.5135V78.5309H74.9189V75.1255Z" fill="black"/>
<path d="M85.1351 75.1255H81.7297V78.5309H85.1351V75.1255Z" fill="black"/>
<path d="M88.5405 75.1255H85.1351V78.5309H88.5405V75.1255Z" fill="black"/>
<path d="M91.9459 75.1255H88.5405V78.5309H91.9459V75.1255Z" fill="black"/>
<path d="M95.3514 75.1255H91.9459V78.5309H95.3514V75.1255Z" fill="black"/>
<path d="M98.7568 75.1255H95.3514V78.5309H98.7568V75.1255Z" fill="black"/>
<path d="M102.162 75.1255H98.7568V78.5309H102.162V75.1255Z" fill="black"/>
<path d="M115.784 75.1255H112.378V78.5309H115.784V75.1255Z" fill="black"/>
<path d="M119.189 75.1255H115.784V78.5309H119.189V75.1255Z" fill="black"/>
<path d="M20.4324 78.5309H17.027V81.9363H20.4324V78.5309Z" fill="black"/>
<path d="M27.2432 78.5309H23.8378V81.9363H27.2432V78.5309Z" fill="black"/>
<path d="M34.0541 78.5309H30.6487V81.9363H34.0541V78.5309Z" fill="black"/>
<path d="M37.4595 78.5309H34.0541V81.9363H37.4595V78.5309Z" fill="black"/>
<path d="M40.8649 78.5309H37.4595V81.9363H40.8649L40.8649 78.5309Z" fill="black"/>
<path d="M47.6757 78.5309H44.2703L44.2703 81.9363H47.6757V78.5309Z" fill="black"/>
<path d="M54.4865 78.5309H51.0811L51.0811 81.9363H54.4865V78.5309Z" fill="black"/>
<path d="M64.7027 78.5309H61.2973V81.9363H64.7027V78.5309Z" fill="black"/>
<path d="M74.9189 78.5309H71.5135V81.9363H74.9189V78.5309Z" fill="black"/>
<path d="M78.3243 78.5309H74.9189V81.9363H78.3243V78.5309Z" fill="black"/>
<path d="M81.7297 78.5309H78.3243V81.9363H81.7297V78.5309Z" fill="black"/>
<path d="M85.1351 78.5309H81.7297V81.9363H85.1351V78.5309Z" fill="black"/>
<path d="M88.5405 78.5309H85.1351V81.9363H88.5405V78.5309Z" fill="black"/>
<path d="M105.568 78.5309H102.162V81.9363H105.568V78.5309Z" fill="black"/>
<path d="M108.973 78.5309H105.568V81.9363H108.973V78.5309Z" fill="black"/>
<path d="M115.784 78.5309H112.378V81.9363H115.784V78.5309Z" fill="black"/>
<path d="M119.189 78.5309H115.784V81.9363H119.189V78.5309Z" fill="black"/>
<path d="M126 78.5309H122.595V81.9363H126V78.5309Z" fill="black"/>
<path d="M3.40541 81.9363H0V85.3417H3.40541V81.9363Z" fill="black"/>
<path d="M13.6216 81.9363H10.2162V85.3417H13.6216V81.9363Z" fill="black"/>
<path d="M23.8378 81.9363H20.4324V85.3417H23.8378V81.9363Z" fill="black"/>
<path d="M27.2432 81.9363H23.8378V85.3417H27.2432V81.9363Z" fill="black"/>
<path d="M34.0541 81.9363H30.6487V85.3417H34.0541V81.9363Z" fill="black"/>
<path d="M44.2703 81.9363H40.8649L40.8649 85.3417H44.2703L44.2703 81.9363Z" fill="black"/>
<path d="M51.0811 81.9363H47.6757V85.3417H51.0811L51.0811 81.9363Z" fill="black"/>
<path d="M57.8919 81.9363H54.4865L54.4865 85.3417H57.8919V81.9363Z" fill="black"/>
<path d="M61.2973 81.9363H57.8919V85.3417H61.2973L61.2973 81.9363Z" fill="black"/>
<path d="M68.1081 81.9363H64.7027V85.3417H68.1081V81.9363Z" fill="black"/>
<path d="M71.5135 81.9363H68.1081V85.3417H71.5135V81.9363Z" fill="black"/>
<path d="M74.9189 81.9363H71.5135V85.3417H74.9189V81.9363Z" fill="black"/>
<path d="M81.7297 81.9363H78.3243V85.3417H81.7297V81.9363Z" fill="black"/>
<path d="M85.1351 81.9363H81.7297V85.3417H85.1351V81.9363Z" fill="black"/>
<path d="M95.3514 81.9363H91.9459V85.3417H95.3514V81.9363Z" fill="black"/>
<path d="M98.7568 81.9363H95.3514V85.3417H98.7568V81.9363Z" fill="black"/>
<path d="M108.973 81.9363H105.568V85.3417H108.973V81.9363Z" fill="black"/>
<path d="M115.784 81.9363H112.378V85.3417H115.784V81.9363Z" fill="black"/>
<path d="M119.189 81.9363H115.784V85.3417H119.189V81.9363Z" fill="black"/>
<path d="M3.40541 85.3417H0V88.7471H3.40541V85.3417Z" fill="black"/>
<path d="M10.2162 85.3417H6.81081V88.7471H10.2162V85.3417Z" fill="black"/>
<path d="M13.6216 85.3417H10.2162V88.7471H13.6216V85.3417Z" fill="black"/>
<path d="M20.4324 85.3417H17.027V88.7471H20.4324V85.3417Z" fill="black"/>
<path d="M27.2432 85.3417H23.8378V88.7471H27.2432V85.3417Z" fill="black"/>
<path d="M47.6757 85.3417H44.2703L44.2703 88.7471H47.6757V85.3417Z" fill="black"/>
<path d="M57.8919 85.3417H54.4865V88.7471H57.8919V85.3417Z" fill="black"/>
<path d="M61.2973 85.3417H57.8919V88.7471H61.2973V85.3417Z" fill="black"/>
<path d="M68.1081 85.3417H64.7027V88.7471H68.1081V85.3417Z" fill="black"/>
<path d="M74.9189 85.3417H71.5135V88.7471H74.9189V85.3417Z" fill="black"/>
<path d="M88.5405 85.3417H85.1351V88.7471H88.5405V85.3417Z" fill="black"/>
<path d="M91.9459 85.3417H88.5405V88.7471H91.9459V85.3417Z" fill="black"/>
<path d="M98.7568 85.3417H95.3514V88.7471H98.7568V85.3417Z" fill="black"/>
<path d="M105.568 85.3417H102.162V88.7471H105.568V85.3417Z" fill="black"/>
<path d="M108.973 85.3417H105.568V88.7471H108.973V85.3417Z" fill="black"/>
<path d="M119.189 85.3417H115.784V88.7471H119.189V85.3417Z" fill="black"/>
<path d="M6.81081 88.7471H3.40541V92.1525H6.81081V88.7471Z" fill="black"/>
<path d="M17.027 88.7471H13.6216V92.1525H17.027V88.7471Z" fill="black"/>
<path d="M23.8378 88.7471H20.4324V92.1525H23.8378V88.7471Z" fill="black"/>
<path d="M27.2432 88.7471H23.8378V92.1525H27.2432V88.7471Z" fill="black"/>
<path d="M44.2703 88.7471H40.8649V92.1525H44.2703L44.2703 88.7471Z" fill="black"/>
<path d="M47.6757 88.7471H44.2703L44.2703 92.1525H47.6757V88.7471Z" fill="black"/>
<path d="M51.0811 88.7471H47.6757V92.1525H51.0811V88.7471Z" fill="black"/>
<path d="M57.8919 88.7471H54.4865V92.1525H57.8919V88.7471Z" fill="black"/>
<path d="M68.1081 88.7471H64.7027V92.1525H68.1081V88.7471Z" fill="black"/>
<path d="M71.5135 88.7471H68.1081V92.1525H71.5135V88.7471Z" fill="black"/>
<path d="M74.9189 88.7471H71.5135V92.1525H74.9189V88.7471Z" fill="black"/>
<path d="M81.7297 88.7471H78.3243V92.1525H81.7297V88.7471Z" fill="black"/>
<path d="M88.5405 88.7471H85.1351V92.1525H88.5405V88.7471Z" fill="black"/>
<path d="M102.162 88.7471H98.7568V92.1525H102.162V88.7471Z" fill="black"/>
<path d="M105.568 88.7471H102.162V92.1525H105.568V88.7471Z" fill="black"/>
<path d="M112.378 88.7471H108.973V92.1525H112.378V88.7471Z" fill="black"/>
<path d="M115.784 88.7471H112.378V92.1525H115.784V88.7471Z" fill="black"/>
<path d="M119.189 88.7471H115.784V92.1525H119.189V88.7471Z" fill="black"/>
<path d="M122.595 88.7471H119.189V92.1525H122.595V88.7471Z" fill="black"/>
<path d="M126 88.7471H122.595V92.1525H126V88.7471Z" fill="black"/>
<path d="M30.6487 92.1525H27.2432V95.5579H30.6487V92.1525Z" fill="black"/>
<path d="M34.0541 92.1525H30.6487V95.5579H34.0541V92.1525Z" fill="black"/>
<path d="M37.4595 92.1525H34.0541V95.5579H37.4595V92.1525Z" fill="black"/>
<path d="M44.2703 92.1525H40.8649V95.5579H44.2703V92.1525Z" fill="black"/>
<path d="M47.6757 92.1525H44.2703V95.5579H47.6757V92.1525Z" fill="black"/>
<path d="M51.0811 92.1525H47.6757V95.5579H51.0811V92.1525Z" fill="black"/>
<path d="M54.4865 92.1525H51.0811V95.5579H54.4865L54.4865 92.1525Z" fill="black"/>
<path d="M61.2973 92.1525H57.8919L57.8919 95.5579H61.2973V92.1525Z" fill="black"/>
<path d="M64.7027 92.1525H61.2973V95.5579H64.7027V92.1525Z" fill="black"/>
<path d="M74.9189 92.1525H71.5135V95.5579H74.9189V92.1525Z" fill="black"/>
<path d="M78.3243 92.1525H74.9189V95.5579H78.3243V92.1525Z" fill="black"/>
<path d="M81.7297 92.1525H78.3243V95.5579H81.7297V92.1525Z" fill="black"/>
<path d="M85.1351 92.1525H81.7297V95.5579H85.1351V92.1525Z" fill="black"/>
<path d="M88.5405 92.1525H85.1351V95.5579H88.5405V92.1525Z" fill="black"/>
<path d="M91.9459 92.1525H88.5405V95.5579H91.9459V92.1525Z" fill="black"/>
<path d="M95.3514 92.1525H91.9459V95.5579H95.3514V92.1525Z" fill="black"/>
<path d="M98.7568 92.1525H95.3514V95.5579H98.7568V92.1525Z" fill="black"/>
<path d="M108.973 92.1525H105.568V95.5579H108.973V92.1525Z" fill="black"/>
<path d="M112.378 92.1525H108.973V95.5579H112.378V92.1525Z" fill="black"/>
<path d="M119.189 92.1525H115.784V95.5579H119.189V92.1525Z" fill="black"/>
<path d="M122.595 92.1525H119.189V95.5579H122.595V92.1525Z" fill="black"/>
<path d="M126 92.1525H122.595V95.5579H126V92.1525Z" fill="black"/>
<path d="M3.40541 95.5579H0V98.9633H3.40541V95.5579Z" fill="black"/>
<path d="M17.027 95.5579H13.6216V98.9633H17.027V95.5579Z" fill="black"/>
<path d="M23.8378 95.5579H20.4324V98.9633H23.8378V95.5579Z" fill="black"/>
<path d="M30.6487 95.5579H27.2432V98.9633H30.6487V95.5579Z" fill="black"/>
<path d="M44.2703 95.5579H40.8649V98.9633H44.2703V95.5579Z" fill="black"/>
<path d="M47.6757 95.5579H44.2703V98.9633H47.6757V95.5579Z" fill="black"/>
<path d="M57.8919 95.5579H54.4865L54.4865 98.9633H57.8919L57.8919 95.5579Z" fill="black"/>
<path d="M61.2973 95.5579H57.8919L57.8919 98.9633H61.2973V95.5579Z" fill="black"/>
<path d="M68.1081 95.5579H64.7027V98.9633H68.1081V95.5579Z" fill="black"/>
<path d="M71.5135 95.5579H68.1081V98.9633H71.5135V95.5579Z" fill="black"/>
<path d="M81.7297 95.5579H78.3243V98.9633H81.7297V95.5579Z" fill="black"/>
<path d="M85.1351 95.5579H81.7297V98.9633H85.1351V95.5579Z" fill="black"/>
<path d="M91.9459 95.5579H88.5405V98.9633H91.9459V95.5579Z" fill="black"/>
<path d="M98.7568 95.5579H95.3514V98.9633H98.7568V95.5579Z" fill="black"/>
<path d="M102.162 95.5579H98.7568V98.9633H102.162V95.5579Z" fill="black"/>
<path d="M105.568 95.5579H102.162V98.9633H105.568V95.5579Z" fill="black"/>
<path d="M108.973 95.5579H105.568V98.9633H108.973V95.5579Z" fill="black"/>
<path d="M112.378 95.5579H108.973V98.9633H112.378V95.5579Z" fill="black"/>
<path d="M115.784 95.5579H112.378V98.9633H115.784V95.5579Z" fill="black"/>
<path d="M119.189 95.5579H115.784V98.9633H119.189V95.5579Z" fill="black"/>
<path d="M126 95.5579H122.595V98.9633H126V95.5579Z" fill="black"/>
<path d="M30.6487 98.9633H27.2432V102.369H30.6487V98.9633Z" fill="black"/>
<path d="M40.8649 98.9633H37.4595V102.369H40.8649L40.8649 98.9633Z" fill="black"/>
<path d="M57.8919 98.9633H54.4865V102.369H57.8919V98.9633Z" fill="black"/>
<path d="M64.7027 98.9633H61.2973L61.2973 102.369H64.7027V98.9633Z" fill="black"/>
<path d="M68.1081 98.9633H64.7027V102.369H68.1081V98.9633Z" fill="black"/>
<path d="M71.5135 98.9633H68.1081V102.369H71.5135V98.9633Z" fill="black"/>
<path d="M74.9189 98.9633H71.5135V102.369H74.9189V98.9633Z" fill="black"/>
<path d="M78.3243 98.9633H74.9189V102.369H78.3243V98.9633Z" fill="black"/>
<path d="M95.3514 98.9633H91.9459V102.369H95.3514V98.9633Z" fill="black"/>
<path d="M98.7568 98.9633H95.3514V102.369H98.7568V98.9633Z" fill="black"/>
<path d="M112.378 98.9633H108.973V102.369H112.378V98.9633Z" fill="black"/>
<path d="M115.784 98.9633H112.378V102.369H115.784V98.9633Z" fill="black"/>
<path d="M119.189 98.9633H115.784V102.369H119.189V98.9633Z" fill="black"/>
<path d="M126 98.9633H122.595V102.369H126V98.9633Z" fill="black"/>
<path d="M3.40541 102.369H0V105.774H3.40541V102.369Z" fill="black"/>
<path d="M6.81081 102.369H3.40541V105.774H6.81081V102.369Z" fill="black"/>
<path d="M10.2162 102.369H6.81081V105.774H10.2162V102.369Z" fill="black"/>
<path d="M13.6216 102.369H10.2162V105.774H13.6216V102.369Z" fill="black"/>
<path d="M17.027 102.369H13.6216V105.774H17.027V102.369Z" fill="black"/>
<path d="M20.4324 102.369H17.027V105.774H20.4324V102.369Z" fill="black"/>
<path d="M23.8378 102.369H20.4324V105.774H23.8378V102.369Z" fill="black"/>
<path d="M37.4595 102.369H34.0541V105.774H37.4595V102.369Z" fill="black"/>
<path d="M40.8649 102.369H37.4595V105.774H40.8649V102.369Z" fill="black"/>
<path d="M44.2703 102.369H40.8649V105.774H44.2703V102.369Z" fill="black"/>
<path d="M51.0811 102.369H47.6757V105.774H51.0811V102.369Z" fill="black"/>
<path d="M57.8919 102.369H54.4865V105.774H57.8919V102.369Z" fill="black"/>
<path d="M64.7027 102.369H61.2973V105.774H64.7027V102.369Z" fill="black"/>
<path d="M68.1081 102.369H64.7027V105.774H68.1081V102.369Z" fill="black"/>
<path d="M71.5135 102.369H68.1081V105.774H71.5135V102.369Z" fill="black"/>
<path d="M81.7297 102.369H78.3243V105.774H81.7297V102.369Z" fill="black"/>
<path d="M85.1351 102.369H81.7297V105.774H85.1351V102.369Z" fill="black"/>
<path d="M91.9459 102.369H88.5405V105.774H91.9459V102.369Z" fill="black"/>
<path d="M98.7568 102.369H95.3514V105.774H98.7568V102.369Z" fill="black"/>
<path d="M105.568 102.369H102.162V105.774H105.568V102.369Z" fill="black"/>
<path d="M112.378 102.369H108.973V105.774H112.378V102.369Z" fill="black"/>
<path d="M115.784 102.369H112.378V105.774H115.784V102.369Z" fill="black"/>
<path d="M122.595 102.369H119.189V105.774H122.595V102.369Z" fill="black"/>
<path d="M3.40541 105.774H0V109.18H3.40541V105.774Z" fill="black"/>
<path d="M23.8378 105.774H20.4324V109.18H23.8378V105.774Z" fill="black"/>
<path d="M34.0541 105.774H30.6487V109.18H34.0541V105.774Z" fill="black"/>
<path d="M37.4595 105.774H34.0541V109.18H37.4595V105.774Z" fill="black"/>
<path d="M40.8649 105.774H37.4595V109.18H40.8649V105.774Z" fill="black"/>
<path d="M44.2703 105.774H40.8649V109.18H44.2703V105.774Z" fill="black"/>
<path d="M54.4865 105.774H51.0811L51.0811 109.18H54.4865L54.4865 105.774Z" fill="black"/>
<path d="M64.7027 105.774H61.2973V109.18H64.7027V105.774Z" fill="black"/>
<path d="M68.1081 105.774H64.7027V109.18H68.1081V105.774Z" fill="black"/>
<path d="M71.5135 105.774H68.1081V109.18H71.5135V105.774Z" fill="black"/>
<path d="M78.3243 105.774H74.9189V109.18H78.3243V105.774Z" fill="black"/>
<path d="M81.7297 105.774H78.3243V109.18H81.7297V105.774Z" fill="black"/>
<path d="M88.5405 105.774H85.1351V109.18H88.5405V105.774Z" fill="black"/>
<path d="M91.9459 105.774H88.5405V109.18H91.9459V105.774Z" fill="black"/>
<path d="M95.3514 105.774H91.9459V109.18H95.3514V105.774Z" fill="black"/>
<path d="M98.7568 105.774H95.3514V109.18H98.7568V105.774Z" fill="black"/>
<path d="M112.378 105.774H108.973V109.18H112.378V105.774Z" fill="black"/>
<path d="M126 105.774H122.595V109.18H126V105.774Z" fill="black"/>
<path d="M3.40541 109.18H0V112.585H3.40541V109.18Z" fill="black"/>
<path d="M10.2162 109.18H6.81081V112.585H10.2162V109.18Z" fill="black"/>
<path d="M13.6216 109.18H10.2162V112.585H13.6216V109.18Z" fill="black"/>
<path d="M17.027 109.18H13.6216V112.585H17.027V109.18Z" fill="black"/>
<path d="M23.8378 109.18H20.4324V112.585H23.8378V109.18Z" fill="black"/>
<path d="M30.6487 109.18H27.2432V112.585H30.6487V109.18Z" fill="black"/>
<path d="M34.0541 109.18H30.6487V112.585H34.0541V109.18Z" fill="black"/>
<path d="M37.4595 109.18H34.0541V112.585H37.4595V109.18Z" fill="black"/>
<path d="M40.8649 109.18H37.4595V112.585H40.8649V109.18Z" fill="black"/>
<path d="M47.6757 109.18H44.2703L44.2703 112.585H47.6757V109.18Z" fill="black"/>
<path d="M51.0811 109.18H47.6757V112.585H51.0811L51.0811 109.18Z" fill="black"/>
<path d="M68.1081 109.18H64.7027V112.585H68.1081V109.18Z" fill="black"/>
<path d="M71.5135 109.18H68.1081V112.585H71.5135V109.18Z" fill="black"/>
<path d="M74.9189 109.18H71.5135V112.585H74.9189V109.18Z" fill="black"/>
<path d="M81.7297 109.18H78.3243V112.585H81.7297V109.18Z" fill="black"/>
<path d="M88.5405 109.18H85.1351V112.585H88.5405V109.18Z" fill="black"/>
<path d="M91.9459 109.18H88.5405V112.585H91.9459V109.18Z" fill="black"/>
<path d="M95.3514 109.18H91.9459V112.585H95.3514V109.18Z" fill="black"/>
<path d="M98.7568 109.18H95.3514V112.585H98.7568V109.18Z" fill="black"/>
<path d="M102.162 109.18H98.7568V112.585H102.162V109.18Z" fill="black"/>
<path d="M105.568 109.18H102.162V112.585H105.568V109.18Z" fill="black"/>
<path d="M108.973 109.18H105.568V112.585H108.973V109.18Z" fill="black"/>
<path d="M112.378 109.18H108.973V112.585H112.378V109.18Z" fill="black"/>
<path d="M119.189 109.18H115.784V112.585H119.189V109.18Z" fill="black"/>
<path d="M122.595 109.18H119.189V112.585H122.595V109.18Z" fill="black"/>
<path d="M3.40541 112.585H0V115.99H3.40541V112.585Z" fill="black"/>
<path d="M10.2162 112.585H6.81081V115.99H10.2162V112.585Z" fill="black"/>
<path d="M13.6216 112.585H10.2162V115.99H13.6216V112.585Z" fill="black"/>
<path d="M17.027 112.585H13.6216V115.99H17.027V112.585Z" fill="black"/>
<path d="M23.8378 112.585H20.4324V115.99H23.8378V112.585Z" fill="black"/>
<path d="M34.0541 112.585H30.6487V115.99H34.0541V112.585Z" fill="black"/>
<path d="M47.6757 112.585H44.2703V115.99H47.6757V112.585Z" fill="black"/>
<path d="M51.0811 112.585H47.6757V115.99H51.0811V112.585Z" fill="black"/>
<path d="M54.4865 112.585H51.0811V115.99H54.4865V112.585Z" fill="black"/>
<path d="M61.2973 112.585H57.8919V115.99H61.2973V112.585Z" fill="black"/>
<path d="M68.1081 112.585H64.7027V115.99H68.1081V112.585Z" fill="black"/>
<path d="M71.5135 112.585H68.1081V115.99H71.5135V112.585Z" fill="black"/>
<path d="M78.3243 112.585H74.9189V115.99H78.3243V112.585Z" fill="black"/>
<path d="M81.7297 112.585H78.3243V115.99H81.7297V112.585Z" fill="black"/>
<path d="M88.5405 112.585H85.1351V115.99H88.5405V112.585Z" fill="black"/>
<path d="M91.9459 112.585H88.5405V115.99H91.9459V112.585Z" fill="black"/>
<path d="M3.40541 115.99H0V119.396H3.40541V115.99Z" fill="black"/>
<path d="M10.2162 115.99H6.81081V119.396H10.2162V115.99Z" fill="black"/>
<path d="M13.6216 115.99H10.2162V119.396H13.6216V115.99Z" fill="black"/>
<path d="M17.027 115.99H13.6216V119.396H17.027V115.99Z" fill="black"/>
<path d="M23.8378 115.99H20.4324V119.396H23.8378V115.99Z" fill="black"/>
<path d="M30.6487 115.99H27.2432V119.396H30.6487V115.99Z" fill="black"/>
<path d="M34.0541 115.99H30.6487V119.396H34.0541V115.99Z" fill="black"/>
<path d="M40.8649 115.99H37.4595V119.396H40.8649V115.99Z" fill="black"/>
<path d="M51.0811 115.99H47.6757V119.396H51.0811V115.99Z" fill="black"/>
<path d="M54.4865 115.99H51.0811V119.396H54.4865V115.99Z" fill="black"/>
<path d="M57.8919 115.99H54.4865V119.396H57.8919L57.8919 115.99Z" fill="black"/>
<path d="M61.2973 115.99H57.8919L57.8919 119.396H61.2973V115.99Z" fill="black"/>
<path d="M74.9189 115.99H71.5135V119.396H74.9189V115.99Z" fill="black"/>
<path d="M81.7297 115.99H78.3243V119.396H81.7297V115.99Z" fill="black"/>
<path d="M91.9459 115.99H88.5405V119.396H91.9459V115.99Z" fill="black"/>
<path d="M95.3514 115.99H91.9459V119.396H95.3514V115.99Z" fill="black"/>
<path d="M98.7568 115.99H95.3514V119.396H98.7568V115.99Z" fill="black"/>
<path d="M102.162 115.99H98.7568V119.396H102.162V115.99Z" fill="black"/>
<path d="M122.595 115.99H119.189V119.396H122.595V115.99Z" fill="black"/>
<path d="M3.40541 119.396H0V122.801H3.40541V119.396Z" fill="black"/>
<path d="M23.8378 119.396H20.4324V122.801H23.8378V119.396Z" fill="black"/>
<path d="M30.6487 119.396H27.2432V122.801H30.6487V119.396Z" fill="black"/>
<path d="M34.0541 119.396H30.6487V122.801H34.0541V119.396Z" fill="black"/>
<path d="M40.8649 119.396H37.4595V122.801H40.8649V119.396Z" fill="black"/>
<path d="M51.0811 119.396H47.6757V122.801H51.0811V119.396Z" fill="black"/>
<path d="M54.4865 119.396H51.0811V122.801H54.4865V119.396Z" fill="black"/>
<path d="M74.9189 119.396H71.5135V122.801H74.9189V119.396Z" fill="black"/>
<path d="M78.3243 119.396H74.9189V122.801H78.3243V119.396Z" fill="black"/>
<path d="M81.7297 119.396H78.3243V122.801H81.7297V119.396Z" fill="black"/>
<path d="M91.9459 119.396H88.5405V122.801H91.9459V119.396Z" fill="black"/>
<path d="M102.162 119.396H98.7568V122.801H102.162V119.396Z" fill="black"/>
<path d="M108.973 119.396H105.568V122.801H108.973V119.396Z" fill="black"/>
<path d="M112.378 119.396H108.973V122.801H112.378V119.396Z" fill="black"/>
<path d="M122.595 119.396H119.189V122.801H122.595V119.396Z" fill="black"/>
<path d="M3.40541 122.801H0V126.207H3.40541V122.801Z" fill="black"/>
<path d="M6.81081 122.801H3.40541V126.207H6.81081V122.801Z" fill="black"/>
<path d="M10.2162 122.801H6.81081V126.207H10.2162V122.801Z" fill="black"/>
<path d="M13.6216 122.801H10.2162V126.207H13.6216V122.801Z" fill="black"/>
<path d="M17.027 122.801H13.6216V126.207H17.027V122.801Z" fill="black"/>
<path d="M20.4324 122.801H17.027V126.207H20.4324V122.801Z" fill="black"/>
<path d="M23.8378 122.801H20.4324V126.207H23.8378V122.801Z" fill="black"/>
<path d="M30.6487 122.801H27.2432V126.207H30.6487V122.801Z" fill="black"/>
<path d="M37.4595 122.801H34.0541V126.207H37.4595V122.801Z" fill="black"/>
<path d="M40.8649 122.801H37.4595V126.207H40.8649V122.801Z" fill="black"/>
<path d="M44.2703 122.801H40.8649V126.207H44.2703V122.801Z" fill="black"/>
<path d="M51.0811 122.801H47.6757V126.207H51.0811V122.801Z" fill="black"/>
<path d="M57.8919 122.801H54.4865L54.4865 126.207H57.8919V122.801Z" fill="black"/>
<path d="M64.7027 122.801H61.2973V126.207H64.7027V122.801Z" fill="black"/>
<path d="M68.1081 122.801H64.7027V126.207H68.1081V122.801Z" fill="black"/>
<path d="M78.3243 122.801H74.9189V126.207H78.3243V122.801Z" fill="black"/>
<path d="M85.1351 122.801H81.7297V126.207H85.1351V122.801Z" fill="black"/>
<path d="M91.9459 122.801H88.5405V126.207H91.9459V122.801Z" fill="black"/>
<path d="M105.568 122.801H102.162V126.207H105.568V122.801Z" fill="black"/>
<path d="M115.784 122.801H112.378V126.207H115.784V122.801Z" fill="black"/>
<path d="M119.189 122.801H115.784V126.207H119.189V122.801Z" fill="black"/>
<path d="M122.595 122.801H119.189V126.207H122.595V122.801Z" fill="black"/>
<path d="M126 122.801H122.595V126.207H126V122.801Z" fill="black"/>
</svg>
