<svg width="20" height="20" viewBox="0 0 20 20" fill="none" xmlns="http://www.w3.org/2000/svg">
<path d="M9.99984 1.6665C5.39984 1.6665 1.6665 5.39984 1.6665 9.99984C1.6665 14.5998 5.39984 18.3332 9.99984 18.3332C14.5998 18.3332 18.3332 14.5998 18.3332 9.99984C18.3332 5.39984 14.5998 1.6665 9.99984 1.6665ZM5.49984 9.35817C5.6415 8.3665 6.08317 7.47484 6.77484 6.77484C8.4415 5.1165 11.0665 5.02484 12.8498 6.47484V5.68317C12.8498 5.3415 13.1332 5.05817 13.4748 5.05817C13.8165 5.05817 14.0998 5.3415 14.0998 5.68317V7.90817C14.0998 8.24984 13.8165 8.53317 13.4748 8.53317H11.2498C10.9082 8.53317 10.6248 8.24984 10.6248 7.90817C10.6248 7.5665 10.9082 7.28317 11.2498 7.28317H11.8748C10.5832 6.38317 8.79984 6.50817 7.64984 7.65817C7.14984 8.15817 6.83317 8.80817 6.72484 9.53317C6.68317 9.8415 6.4165 10.0665 6.10817 10.0665C6.07484 10.0665 6.04984 10.0665 6.0165 10.0582C5.6915 10.0165 5.44984 9.69984 5.49984 9.35817ZM13.2248 13.2248C12.3332 14.1165 11.1665 14.5582 9.99984 14.5582C8.98317 14.5582 7.97484 14.1998 7.1415 13.5248V14.3082C7.1415 14.6498 6.85817 14.9332 6.5165 14.9332C6.17484 14.9332 5.8915 14.6498 5.8915 14.3082V12.0832C5.8915 11.7415 6.17484 11.4582 6.5165 11.4582H8.7415C9.08317 11.4582 9.3665 11.7415 9.3665 12.0832C9.3665 12.4248 9.08317 12.7082 8.7415 12.7082H8.1165C9.40817 13.6082 11.1915 13.4832 12.3415 12.3332C12.8415 11.8332 13.1582 11.1832 13.2665 10.4582C13.3165 10.1165 13.6248 9.87484 13.9748 9.92484C14.3165 9.97484 14.5498 10.2915 14.5082 10.6332C14.3582 11.6415 13.9165 12.5332 13.2248 13.2248Z" fill="#8F7A63"/>
</svg>
