<svg width="20" height="20" viewBox="0 0 20 20" fill="none" xmlns="http://www.w3.org/2000/svg">
<path d="M14.6762 12.72C13.9442 12.7198 13.2414 13.0064 12.7183 13.5183L7.61937 10.6515C7.72414 10.2191 7.72414 9.76793 7.61937 9.33555L12.7167 6.46873C13.1929 6.93193 13.8184 7.21053 14.4813 7.25463C15.1441 7.29873 15.8011 7.10545 16.3344 6.70941C16.8678 6.31337 17.2428 5.74042 17.3923 5.09313C17.5418 4.44584 17.456 3.76647 17.1503 3.17665C16.8446 2.58684 16.3389 2.12509 15.7239 1.87406C15.1088 1.62303 14.4245 1.59912 13.7934 1.80661C13.1623 2.0141 12.6256 2.43944 12.2795 3.00649C11.9334 3.57353 11.8004 4.24525 11.9044 4.9014L6.68675 7.83638C6.27692 7.49493 5.77827 7.27733 5.24922 7.20909C4.72018 7.14085 4.18264 7.22479 3.69958 7.45107C3.21652 7.67735 2.80795 8.03661 2.52173 8.48675C2.23551 8.93689 2.0835 9.45928 2.0835 9.99271C2.0835 10.5261 2.23551 11.0485 2.52173 11.4987C2.80795 11.9488 3.21652 12.3081 3.69958 12.5343C4.18264 12.7606 4.72018 12.8446 5.24922 12.7763C5.77827 12.7081 6.27692 12.4905 6.68675 12.149L11.9044 15.0856C11.8142 15.6525 11.8999 16.2334 12.1501 16.7499C12.4003 17.2665 12.8028 17.694 13.3034 17.9748C13.8041 18.2555 14.3788 18.376 14.95 18.32C15.5213 18.264 16.0616 18.0342 16.4982 17.6615C16.9348 17.2889 17.2466 16.7914 17.3917 16.2361C17.5368 15.6807 17.5081 15.0942 17.3095 14.5557C17.111 14.0172 16.7521 13.5524 16.2812 13.2242C15.8103 12.896 15.2501 12.72 14.6762 12.72Z" fill="white"/>
</svg>
