<svg width="17" height="16" viewBox="0 0 17 16" fill="none" xmlns="http://www.w3.org/2000/svg">
<path d="M13.8999 5.74001C15.2599 5.96668 15.5799 6.95334 14.5999 7.92668L12.9466 9.58001C12.6666 9.86001 12.5133 10.4 12.5999 10.7867L13.0733 12.8333C13.4466 14.4533 12.5866 15.08 11.1533 14.2333L9.15994 13.0533C8.79994 12.84 8.20661 12.84 7.83994 13.0533L5.84661 14.2333C4.41994 15.08 3.55327 14.4467 3.92661 12.8333L4.39994 10.7867C4.48661 10.4 4.33327 9.86001 4.05327 9.58001L2.39994 7.92668C1.42661 6.95334 1.73994 5.96668 3.09994 5.74001L5.22661 5.38668C5.57994 5.32668 6.00661 5.01334 6.16661 4.68668L7.33994 2.34001C7.97327 1.06668 9.01327 1.06668 9.65327 2.34001L10.8266 4.68668C10.8933 4.82668 11.0133 4.96668 11.1533 5.08001" fill="#FDB022"/>
</svg>
