<svg width="87" height="88" viewBox="0 0 87 88" fill="none" xmlns="http://www.w3.org/2000/svg">
<path fill-rule="evenodd" clip-rule="evenodd" d="M86.9167 43.9998C86.9167 55.4925 82.3512 66.5145 74.2246 74.6411C66.0981 82.7677 55.076 87.3332 43.5833 87.3332C32.0906 87.3332 21.0686 82.7677 12.942 74.6411C4.81546 66.5145 0.25 55.4925 0.25 43.9998C0.25 32.5071 4.81546 21.4851 12.942 13.3585C21.0686 5.23197 32.0906 0.666504 43.5833 0.666504C55.076 0.666504 66.0981 5.23197 74.2246 13.3585C82.3512 21.4851 86.9167 32.5071 86.9167 43.9998Z" fill="url(#paint0_linear_269_15522)"/>
<path fill-rule="evenodd" clip-rule="evenodd" d="M49.8824 17.9083C49.2283 16.7684 48.303 15.8273 47.1979 15.1777C46.0927 14.528 44.8456 14.1922 43.5795 14.2034C42.3134 14.1922 41.0663 14.528 39.9611 15.1777C38.8559 15.8273 37.9307 16.7684 37.2766 17.9083L31.4369 28.3602L20.2815 30.9473C19.0983 31.2068 17.9976 31.7792 17.0834 32.6105C16.1692 33.4418 15.4717 34.5045 15.0569 35.6981C14.6676 36.8745 14.5863 38.1392 14.8214 39.3599C15.0565 40.5807 15.5995 41.7124 16.3934 42.6368L24.1392 51.8192L23.0001 64.0916C22.8896 65.3702 23.1118 66.6563 23.6428 67.8124C24.1738 68.9685 24.9938 69.9511 26.0149 70.655C27.0629 71.391 28.27 71.8381 29.5253 71.9553C30.7806 72.0725 32.0437 71.856 33.1987 71.3257L43.5795 66.5669L53.9603 71.3257C55.1153 71.856 56.3784 72.0725 57.6337 71.9553C58.889 71.8381 60.0961 71.391 61.1441 70.655C62.1652 69.9511 62.9851 68.9685 63.5162 67.8124C64.0472 66.6563 64.2693 65.3702 64.1589 64.0916L63.0198 51.8192L70.7656 42.6368C71.5595 41.7124 72.1024 40.5807 72.3376 39.3599C72.5727 38.1392 72.4914 36.8745 72.1021 35.6981C71.6872 34.5045 70.9897 33.4418 70.0756 32.6105C69.1614 31.7792 68.0607 31.2068 66.8775 30.9473L55.7221 28.3602L49.8824 17.9083Z" fill="url(#paint1_linear_269_15522)"/>
<defs>
<linearGradient id="paint0_linear_269_15522" x1="14.6944" y1="80.1109" x2="72.4722" y2="15.1109" gradientUnits="userSpaceOnUse">
<stop stop-color="#FFA720"/>
<stop offset="1" stop-color="#FBE12F"/>
</linearGradient>
<linearGradient id="paint1_linear_269_15522" x1="29.1359" y1="71.9885" x2="65.2469" y2="21.433" gradientUnits="userSpaceOnUse">
<stop stop-color="#FFE056"/>
<stop offset="1" stop-color="#FFFAE4"/>
</linearGradient>
</defs>
</svg>
