<svg width="22" height="22" viewBox="0 0 22 22" fill="none" xmlns="http://www.w3.org/2000/svg">
<path d="M19.3145 4.79433C17.8387 4.64766 16.3628 4.53766 14.8778 4.45516V4.446L14.6762 3.25433C14.5387 2.411 14.337 1.146 12.192 1.146H9.79035C7.65451 1.146 7.45285 2.356 7.30618 3.24516L7.11368 4.4185C6.26118 4.4735 5.40868 4.5285 4.55618 4.611L2.68618 4.79433C2.30118 4.831 2.02618 5.17016 2.06285 5.546C2.09951 5.92183 2.42951 6.19683 2.81451 6.16016L4.68451 5.97683C9.48785 5.50016 14.3278 5.6835 19.1862 6.16933C19.2137 6.16933 19.232 6.16933 19.2595 6.16933C19.6078 6.16933 19.9103 5.9035 19.947 5.546C19.9745 5.17016 19.6995 4.831 19.3145 4.79433Z" fill="#F97066"/>
<path d="M17.6271 7.4615C17.4071 7.23234 17.1046 7.104 16.7929 7.104H5.20627C4.89461 7.104 4.58294 7.23234 4.37211 7.4615C4.16127 7.69067 4.04211 8.00234 4.06044 8.32317L4.62877 17.7282C4.72961 19.1215 4.85794 20.8632 8.05711 20.8632H13.9421C17.1413 20.8632 17.2696 19.1307 17.3704 17.7282L17.9388 8.33234C17.9571 8.00234 17.8379 7.69067 17.6271 7.4615ZM12.5213 16.2707H9.46877C9.09294 16.2707 8.78127 15.959 8.78127 15.5832C8.78127 15.2073 9.09294 14.8957 9.46877 14.8957H12.5213C12.8971 14.8957 13.2088 15.2073 13.2088 15.5832C13.2088 15.959 12.8971 16.2707 12.5213 16.2707ZM13.2913 12.604H8.70794C8.33211 12.604 8.02044 12.2923 8.02044 11.9165C8.02044 11.5407 8.33211 11.229 8.70794 11.229H13.2913C13.6671 11.229 13.9788 11.5407 13.9788 11.9165C13.9788 12.2923 13.6671 12.604 13.2913 12.604Z" fill="#F97066"/>
</svg>
