<svg width="45" height="44" viewBox="0 0 45 44" fill="none" xmlns="http://www.w3.org/2000/svg">
<path d="M25 6.76738L25.0007 6.76879L28.2246 13.2166C28.2251 13.2176 28.2256 13.2187 28.2261 13.2197C28.5136 13.805 29.0102 14.3307 29.5483 14.7277C30.0878 15.1258 30.7369 15.4446 31.3782 15.5515L31.3786 15.5516L37.2265 16.5232C38.9672 16.8133 39.7845 17.5434 40.0114 18.2496C40.2379 18.954 40 20.0194 38.7463 21.2646L38.7445 21.2664L34.1978 25.813C33.7004 26.3104 33.3494 26.9978 33.1523 27.6861C32.9552 28.3748 32.8899 29.1425 33.043 29.8257L33.043 29.8257L33.0441 29.8307L34.3457 35.4585C34.8444 37.6227 34.4249 38.7393 33.8578 39.1527C33.2894 39.5671 32.0933 39.6257 30.1779 38.4943L24.6972 35.2498C24.0582 34.8712 23.2619 34.705 22.5067 34.705C21.7509 34.705 20.9528 34.8714 20.3077 35.2468L20.3077 35.2468L20.3028 35.2496L14.8211 38.4947L14.8204 38.4951C12.9179 39.6242 11.7208 39.5633 11.149 39.1461C10.5777 38.7292 10.1561 37.6102 10.6539 35.4591L10.6539 35.459L11.9555 29.8307L11.9556 29.8307L11.9567 29.8257C12.1098 29.1425 12.0445 28.3748 11.8473 27.6861C11.6503 26.9978 11.2992 26.3104 10.8018 25.813L6.25516 21.2664C5.00983 20.0211 4.77002 18.9544 4.99554 18.2482C5.22083 17.5427 6.03324 16.8132 7.77313 16.5232L13.6211 15.5516L13.6237 15.5511C14.2567 15.4436 14.9009 15.124 15.4367 14.7267C15.9716 14.3301 16.4679 13.8047 16.7553 13.2196L19.98 6.77019C19.9801 6.76998 19.9802 6.76977 19.9803 6.76957C20.806 5.12705 21.761 4.55713 22.4975 4.55713C23.2328 4.55713 24.1833 5.12553 25 6.76738Z" fill="#E7E5E4" stroke="#E7E5E4" stroke-width="1.5" stroke-linecap="round" stroke-linejoin="round"/>
<path d="M18.6114 21.1174C19.2991 21.1174 19.8566 20.5599 19.8566 19.8722C19.8566 19.1844 19.2991 18.627 18.6114 18.627C17.9237 18.627 17.3662 19.1844 17.3662 19.8722C17.3662 20.5599 17.9237 21.1174 18.6114 21.1174Z" fill="#A8A29E"/>
<path d="M26.5265 21.1174C27.2142 21.1174 27.7716 20.5599 27.7716 19.8722C27.7716 19.1844 27.2142 18.627 26.5265 18.627C25.8388 18.627 25.2812 19.1844 25.2812 19.8722C25.2812 20.5599 25.8388 21.1174 26.5265 21.1174Z" fill="#A8A29E"/>
<path d="M17.9959 25.6113C17.6655 25.6202 17.4717 25.9377 17.4717 26.7932C17.4717 29.6344 21.6387 29.7228 22.4485 29.7131C23.2242 29.7238 27.4388 29.6499 27.4388 26.7934C27.4388 25.9643 27.2567 25.6404 26.9446 25.6132" fill="#A8A29E"/>
</svg>
