<svg width="25" height="24" viewBox="0 0 25 24" fill="none" xmlns="http://www.w3.org/2000/svg">
<path d="M8.375 5.75C7.965 5.75 7.625 5.41 7.625 5V2C7.625 1.59 7.965 1.25 8.375 1.25C8.785 1.25 9.125 1.59 9.125 2V5C9.125 5.41 8.785 5.75 8.375 5.75Z" fill="white"/>
<path d="M16.375 5.75C15.965 5.75 15.625 5.41 15.625 5V2C15.625 1.59 15.965 1.25 16.375 1.25C16.785 1.25 17.125 1.59 17.125 2V5C17.125 5.41 16.785 5.75 16.375 5.75Z" fill="white"/>
<path d="M8.875 14.4998C8.745 14.4998 8.615 14.4698 8.495 14.4198C8.365 14.3698 8.265 14.2998 8.165 14.2098C7.985 14.0198 7.875 13.7698 7.875 13.4998C7.875 13.3698 7.905 13.2398 7.955 13.1198C8.005 12.9998 8.075 12.8898 8.165 12.7898C8.265 12.6998 8.365 12.6298 8.495 12.5798C8.855 12.4298 9.305 12.5098 9.585 12.7898C9.765 12.9798 9.875 13.2398 9.875 13.4998C9.875 13.5598 9.865 13.6298 9.855 13.6998C9.845 13.7598 9.825 13.8198 9.795 13.8798C9.775 13.9398 9.745 13.9998 9.705 14.0598C9.675 14.1098 9.625 14.1598 9.585 14.2098C9.395 14.3898 9.135 14.4998 8.875 14.4998Z" fill="white"/>
<path d="M12.375 14.4999C12.245 14.4999 12.115 14.4699 11.995 14.4199C11.865 14.3699 11.765 14.2999 11.665 14.2099C11.485 14.0199 11.375 13.7699 11.375 13.4999C11.375 13.3699 11.405 13.2399 11.455 13.1199C11.505 12.9999 11.575 12.8899 11.665 12.7899C11.765 12.6999 11.865 12.6299 11.995 12.5799C12.355 12.4199 12.805 12.5099 13.085 12.7899C13.265 12.9799 13.375 13.2399 13.375 13.4999C13.375 13.5599 13.365 13.6299 13.355 13.6999C13.345 13.7599 13.325 13.8199 13.295 13.8799C13.275 13.9399 13.245 13.9999 13.205 14.0599C13.175 14.1099 13.125 14.1599 13.085 14.2099C12.895 14.3899 12.635 14.4999 12.375 14.4999Z" fill="white"/>
<path d="M15.875 14.4999C15.745 14.4999 15.615 14.4699 15.495 14.4199C15.365 14.3699 15.265 14.2999 15.165 14.2099C15.125 14.1599 15.085 14.1099 15.045 14.0599C15.005 13.9999 14.975 13.9399 14.955 13.8799C14.925 13.8199 14.905 13.7599 14.895 13.6999C14.885 13.6299 14.875 13.5599 14.875 13.4999C14.875 13.2399 14.985 12.9799 15.165 12.7899C15.265 12.6999 15.365 12.6299 15.495 12.5799C15.865 12.4199 16.305 12.5099 16.585 12.7899C16.765 12.9799 16.875 13.2399 16.875 13.4999C16.875 13.5599 16.865 13.6299 16.855 13.6999C16.845 13.7599 16.825 13.8199 16.795 13.8799C16.775 13.9399 16.745 13.9999 16.705 14.0599C16.675 14.1099 16.625 14.1599 16.585 14.2099C16.395 14.3899 16.135 14.4999 15.875 14.4999Z" fill="white"/>
<path d="M8.875 18.0002C8.745 18.0002 8.615 17.9702 8.495 17.9202C8.375 17.8702 8.265 17.8002 8.165 17.7102C7.985 17.5202 7.875 17.2602 7.875 17.0002C7.875 16.8702 7.905 16.7402 7.955 16.6202C8.005 16.4902 8.075 16.3802 8.165 16.2902C8.535 15.9202 9.215 15.9202 9.585 16.2902C9.765 16.4802 9.875 16.7402 9.875 17.0002C9.875 17.2602 9.765 17.5202 9.585 17.7102C9.395 17.8902 9.135 18.0002 8.875 18.0002Z" fill="white"/>
<path d="M12.375 18.0002C12.115 18.0002 11.855 17.8902 11.665 17.7102C11.485 17.5202 11.375 17.2602 11.375 17.0002C11.375 16.8702 11.405 16.7402 11.455 16.6202C11.505 16.4902 11.575 16.3802 11.665 16.2902C12.035 15.9202 12.715 15.9202 13.085 16.2902C13.175 16.3802 13.245 16.4902 13.295 16.6202C13.345 16.7402 13.375 16.8702 13.375 17.0002C13.375 17.2602 13.265 17.5202 13.085 17.7102C12.895 17.8902 12.635 18.0002 12.375 18.0002Z" fill="white"/>
<path d="M15.875 17.9999C15.615 17.9999 15.355 17.8899 15.165 17.7099C15.075 17.6199 15.005 17.5099 14.955 17.3799C14.905 17.2599 14.875 17.1299 14.875 16.9999C14.875 16.8699 14.905 16.7399 14.955 16.6199C15.005 16.4899 15.075 16.3799 15.165 16.2899C15.395 16.0599 15.745 15.9499 16.065 16.0199C16.135 16.0299 16.195 16.0499 16.255 16.0799C16.315 16.0999 16.375 16.1299 16.435 16.1699C16.485 16.1999 16.535 16.2499 16.585 16.2899C16.765 16.4799 16.875 16.7399 16.875 16.9999C16.875 17.2599 16.765 17.5199 16.585 17.7099C16.395 17.8899 16.135 17.9999 15.875 17.9999Z" fill="white"/>
<path d="M20.875 9.83984H3.875C3.465 9.83984 3.125 9.49984 3.125 9.08984C3.125 8.67984 3.465 8.33984 3.875 8.33984H20.875C21.285 8.33984 21.625 8.67984 21.625 9.08984C21.625 9.49984 21.285 9.83984 20.875 9.83984Z" fill="white"/>
<path d="M16.375 22.75H8.375C4.725 22.75 2.625 20.65 2.625 17V8.5C2.625 4.85 4.725 2.75 8.375 2.75H16.375C20.025 2.75 22.125 4.85 22.125 8.5V17C22.125 20.65 20.025 22.75 16.375 22.75ZM8.375 4.25C5.515 4.25 4.125 5.64 4.125 8.5V17C4.125 19.86 5.515 21.25 8.375 21.25H16.375C19.235 21.25 20.625 19.86 20.625 17V8.5C20.625 5.64 19.235 4.25 16.375 4.25H8.375Z" fill="white"/>
</svg>
