<svg width="25" height="24" viewBox="0 0 25 24" fill="none" xmlns="http://www.w3.org/2000/svg">
<path d="M12.625 22.7498C11.995 22.7498 11.405 22.5099 10.965 22.0599L9.44501 20.5399C9.32501 20.4199 9.005 20.2899 8.845 20.2899H6.685C5.385 20.2899 4.33499 19.2398 4.33499 17.9398V15.7799C4.33499 15.6199 4.20499 15.2999 4.08499 15.1799L2.565 13.6599C2.125 13.2199 1.875 12.6298 1.875 11.9998C1.875 11.3698 2.115 10.7798 2.565 10.3398L4.08499 8.81979C4.20499 8.69979 4.33499 8.37981 4.33499 8.21981V6.0599C4.33499 4.7599 5.385 3.7098 6.685 3.7098H8.845C9.005 3.7098 9.32501 3.5798 9.44501 3.4598L10.965 1.93979C11.845 1.05979 13.405 1.05979 14.285 1.93979L15.805 3.4598C15.925 3.5798 16.245 3.7098 16.405 3.7098H18.565C19.865 3.7098 20.915 4.7599 20.915 6.0599V8.21981C20.915 8.37981 21.045 8.69979 21.165 8.81979L22.685 10.3398C23.125 10.7798 23.375 11.3698 23.375 11.9998C23.375 12.6298 23.135 13.2199 22.685 13.6599L21.165 15.1799C21.045 15.2999 20.915 15.6199 20.915 15.7799V17.9398C20.915 19.2398 19.865 20.2899 18.565 20.2899H16.405C16.245 20.2899 15.925 20.4199 15.805 20.5399L14.285 22.0599C13.845 22.5099 13.255 22.7498 12.625 22.7498ZM5.14499 14.1198C5.54499 14.5198 5.83499 15.2199 5.83499 15.7799V17.9398C5.83499 18.4098 6.215 18.7899 6.685 18.7899H8.845C9.405 18.7899 10.105 19.0798 10.505 19.4798L12.025 20.9998C12.345 21.3198 12.905 21.3198 13.225 20.9998L14.745 19.4798C15.145 19.0798 15.845 18.7899 16.405 18.7899H18.565C19.035 18.7899 19.415 18.4098 19.415 17.9398V15.7799C19.415 15.2199 19.705 14.5198 20.105 14.1198L21.625 12.5998C21.785 12.4398 21.875 12.2298 21.875 11.9998C21.875 11.7698 21.785 11.5599 21.625 11.3999L20.105 9.87985C19.705 9.47985 19.415 8.77981 19.415 8.21981V6.0599C19.415 5.5899 19.035 5.2098 18.565 5.2098H16.405C15.845 5.2098 15.145 4.91986 14.745 4.51986L13.225 2.99984C12.905 2.67984 12.345 2.67984 12.025 2.99984L10.505 4.51986C10.105 4.91986 9.405 5.2098 8.845 5.2098H6.685C6.215 5.2098 5.83499 5.5899 5.83499 6.0599V8.21981C5.83499 8.77981 5.54499 9.47985 5.14499 9.87985L3.625 11.3999C3.465 11.5599 3.375 11.7698 3.375 11.9998C3.375 12.2298 3.465 12.4398 3.625 12.5998L5.14499 14.1198Z" fill="white"/>
<path d="M15.6252 16C15.0652 16 14.6152 15.55 14.6152 15C14.6152 14.45 15.0652 14 15.6152 14C16.1652 14 16.6152 14.45 16.6152 15C16.6152 15.55 16.1752 16 15.6252 16Z" fill="white"/>
<path d="M9.63501 10C9.07501 10 8.625 9.55 8.625 9C8.625 8.45 9.075 8 9.625 8C10.175 8 10.625 8.45 10.625 9C10.625 9.55 10.185 10 9.63501 10Z" fill="white"/>
<path d="M9.62445 15.75C9.43445 15.75 9.24445 15.68 9.09445 15.53C8.80445 15.24 8.80445 14.7599 9.09445 14.4699L15.0945 8.46994C15.3845 8.17994 15.8645 8.17994 16.1545 8.46994C16.4445 8.75994 16.4445 9.24 16.1545 9.53L10.1545 15.53C10.0045 15.68 9.81445 15.75 9.62445 15.75Z" fill="white"/>
</svg>
