<svg width="25" height="24" viewBox="0 0 25 24" fill="none" xmlns="http://www.w3.org/2000/svg">
<path d="M12.875 12.75C9.705 12.75 7.125 10.17 7.125 7C7.125 3.83 9.705 1.25 12.875 1.25C16.045 1.25 18.625 3.83 18.625 7C18.625 10.17 16.045 12.75 12.875 12.75ZM12.875 2.75C10.535 2.75 8.625 4.66 8.625 7C8.625 9.34 10.535 11.25 12.875 11.25C15.215 11.25 17.125 9.34 17.125 7C17.125 4.66 15.215 2.75 12.875 2.75Z" fill="white"/>
<path d="M21.4651 22.75C21.0551 22.75 20.7151 22.41 20.7151 22C20.7151 18.55 17.1952 15.75 12.8752 15.75C8.55515 15.75 5.03516 18.55 5.03516 22C5.03516 22.41 4.69516 22.75 4.28516 22.75C3.87516 22.75 3.53516 22.41 3.53516 22C3.53516 17.73 7.72515 14.25 12.8752 14.25C18.0252 14.25 22.2151 17.73 22.2151 22C22.2151 22.41 21.8751 22.75 21.4651 22.75Z" fill="white"/>
</svg>
