<svg width="32" height="32" viewBox="0 0 32 32" fill="none" xmlns="http://www.w3.org/2000/svg">
<path d="M20.992 18.624C20.608 16.32 19.008 13.504 19.904 11.712C20.544 10.432 25.728 5.05599 29.056 1.34399H17.024C15.744 4.09599 14.592 6.52799 13.888 7.99999C11.584 12.736 5.18402 21.056 4.99202 23.232C4.86402 24.768 2.68802 25.536 1.47202 25.856C0.768022 26.048 0.448022 26.752 0.704022 27.392C0.960022 27.968 1.66402 28.48 3.20002 28.288C6.46402 27.904 8.32002 27.2 10.304 25.408C12.288 23.616 14.656 22.144 15.936 22.08C17.28 22.016 21.376 20.928 20.992 18.624ZM31.296 28.224C31.232 27.84 31.04 27.456 30.72 27.2L27.392 23.872L24.448 26.816L27.776 30.144C28.608 30.976 29.888 30.976 30.72 30.144C31.232 29.568 31.424 28.864 31.296 28.224ZM27.2 20.16L24.96 17.92C24.64 17.6 24.192 17.6 23.872 17.92C23.552 18.24 23.552 18.688 23.872 19.008L26.112 21.248C26.368 21.504 26.368 21.888 26.112 22.144L22.784 25.472C22.528 25.728 22.144 25.728 21.888 25.472L19.648 23.232C18.944 22.528 17.856 23.616 18.56 24.32L20.8 26.56C21.632 27.392 23.04 27.392 23.872 26.56L27.2 23.232C28.032 22.336 28.032 20.992 27.2 20.16Z" fill="#7F6957"/>
<path d="M23.6801 19.712L23.6161 19.776L23.4881 19.648C23.1681 19.328 22.5921 19.328 22.2721 19.648L20.3521 21.568C20.0321 21.888 20.0321 22.464 20.3521 22.784L20.4801 22.912L20.4161 23.04L20.9281 23.552L21.0561 23.424L21.1841 23.552C21.5041 23.872 22.0801 23.872 22.4001 23.552L24.3201 21.632C24.6401 21.312 24.6401 20.736 24.3201 20.416L24.1921 20.288L24.2561 20.224L23.6801 19.712Z" fill="#7F6957"/>
</svg>
