<svg width="14" height="32" viewBox="0 0 14 32" fill="none" xmlns="http://www.w3.org/2000/svg">
<path d="M12.0561 13.376C12.0561 12.992 11.7361 12.672 11.3521 12.672H2.77606C2.39206 12.672 2.07206 12.992 2.07206 13.376V17.472H12.0561V13.376ZM1.36807 21.12H1.24006V29.312C1.24006 30.4 2.13606 31.296 3.22406 31.296H10.9041C11.9921 31.296 12.8881 30.4 12.8881 29.312V21.12H1.36807ZM12.6321 18.176H1.36807C0.728065 18.176 0.216064 18.688 0.216064 19.328C0.216064 19.968 0.728065 20.48 1.36807 20.48H12.6961C14.2321 20.48 14.2321 18.176 12.6321 18.176ZM10.9681 4.22397C10.9681 3.96797 10.9681 3.64797 10.9041 3.39197C10.7761 2.36797 10.1361 1.40797 9.30406 0.895968C8.40806 0.191968 6.48806 1.34397 4.95206 3.00797C3.73606 4.28797 3.09606 5.69597 3.22406 6.71997H3.16006V12.096H10.9681V4.22397Z" fill="#7F6957"/>
</svg>
