<svg width="32" height="32" viewBox="0 0 32 32" fill="none" xmlns="http://www.w3.org/2000/svg">
<path d="M27.1999 28.48C27.2639 29.632 26.3679 30.656 25.1519 30.656H6.78394C5.63194 30.656 4.67194 29.632 4.73594 28.48C4.86394 27.008 5.18394 25.408 5.43994 24.256C5.88794 22.464 6.97594 22.144 7.35994 21.952C8.44794 21.312 12.2239 20.544 12.9279 19.072C14.6559 20.864 17.0239 21.12 19.0079 19.264C19.7119 20.416 23.7439 21.568 24.4479 21.952C24.8319 22.144 25.9199 22.464 26.3679 24.256C26.8159 25.472 27.0719 27.008 27.1999 28.48Z" fill="#7F6957"/>
<path d="M16.1281 9.40795C13.6961 10.88 12.6721 11.648 12.0961 14.784C11.5201 17.792 15.3601 22.208 18.8801 18.688C19.2001 18.368 19.9041 15.872 19.9041 15.872C21.1841 12.032 17.7281 8.44795 16.1281 9.40795Z" fill="#7F6957"/>
<path d="M10.4959 15.872C10.4959 15.872 10.6879 17.408 12.0959 17.728C12.0959 17.728 11.1999 16.384 11.5199 14.72C11.8399 12.928 12.4159 11.648 13.2479 10.816C14.0799 9.91996 16.6399 8.44796 16.6399 8.44796C16.6399 8.44796 19.0719 9.15196 20.2239 11.456C21.3119 13.76 20.5439 16.064 20.5439 16.064C20.5439 16.064 21.5039 15.232 21.6319 14.272C21.6319 14.272 22.1439 13.696 22.0159 12.928C22.0159 12.928 23.1039 11.008 21.3119 8.76796C21.3119 8.76796 20.4159 7.48796 19.2639 6.78396C19.2639 6.78396 19.0079 6.84796 18.8799 5.95196C18.8159 4.99196 17.4079 3.45596 15.6799 3.32796C13.8879 3.19996 11.7759 4.67196 11.6479 6.39996C11.4559 8.12796 11.6479 8.25596 11.6479 8.25596C11.6479 8.25596 9.66389 11.456 9.85589 12.992C9.85589 12.992 9.53589 14.4 10.4959 15.872ZM24.2559 12.096C24.2559 11.648 24.2559 11.2 24.1279 10.752C24.0639 11.008 23.6159 12.096 23.3599 12.992C23.1039 13.952 22.7839 14.528 23.1679 15.232C23.5519 14.272 23.4239 14.656 24.2559 12.096ZM24.5119 14.336C24.4479 13.824 24.3839 13.312 24.3199 12.928C23.8719 13.824 23.7439 14.016 23.1679 15.36C23.1679 15.296 23.2319 15.232 23.2319 15.168C23.1679 15.232 23.1679 15.296 23.1679 15.36C23.1679 15.616 22.2079 17.216 23.1039 17.856C23.4879 16.832 23.8079 15.744 24.5119 14.336Z" fill="#7F6957"/>
<path d="M27.84 10.496C27.584 9.72799 26.496 5.63199 26.688 4.35199C26.816 3.51999 26.88 2.55999 26.944 1.98399C26.944 1.66399 26.752 1.40799 26.432 1.40799L22.72 1.34399C22.4 1.34399 22.144 1.59999 22.144 1.91999C22.208 2.81599 22.336 4.41599 22.4 5.56799C22.784 10.112 23.936 9.27999 24.64 12.48C25.152 14.912 25.024 14.272 25.088 14.528C25.28 15.296 25.344 15.68 25.92 15.424C26.176 15.296 26.368 15.104 26.368 14.848C26.304 12.16 26.304 12.288 26.304 11.84C25.984 10.496 26.112 10.88 26.112 9.91999V9.85599C26.048 11.136 26.56 10.56 26.88 13.696C26.944 14.72 27.2 15.488 26.176 16C25.984 16.064 25.728 16.192 25.472 16.128C25.28 16.96 25.088 18.432 25.664 19.072C26.368 19.84 26.496 18.56 26.56 17.6C26.624 16.576 27.264 15.552 27.264 14.976C27.264 14.4 27.968 11.648 27.968 11.648C27.968 11.648 28.096 11.264 27.84 10.496ZM23.168 17.856C23.232 17.856 23.232 17.792 23.232 17.728C23.232 17.728 23.168 17.792 23.168 17.856Z" fill="#7F6957"/>
<path d="M25.472 16.064C24.96 16 24.832 15.552 24.704 15.104L24.512 15.424C24.512 15.424 23.552 17.152 23.552 17.216C23.424 17.472 22.784 18.752 23.296 19.392C23.488 19.648 24 19.584 24.192 18.88C24.384 18.112 25.472 16.64 25.536 16.384C25.472 16.256 25.472 16.192 25.472 16.064ZM7.74404 12.096C7.74404 11.648 7.74404 11.2 7.87204 10.752C7.93604 11.008 8.38404 12.096 8.64004 12.992C8.89604 13.952 9.21604 14.528 8.83204 15.232C8.44804 14.272 8.57604 14.656 7.74404 12.096ZM8.64004 17.152C8.51204 16.704 8.06404 15.488 7.48804 14.336C7.55204 13.824 7.61604 13.312 7.68004 12.928C8.12804 13.824 8.25604 14.016 8.83204 15.36C8.83204 15.296 8.76804 15.232 8.76804 15.168C8.83204 15.232 8.83204 15.296 8.83204 15.36C8.83204 15.36 9.34404 16.576 9.28004 17.152C9.28004 17.536 9.02404 17.792 8.89604 17.856C8.83204 17.6 8.76804 17.408 8.64004 17.152Z" fill="#7F6957"/>
<path d="M4.16 10.496C4.416 9.72799 5.504 5.63199 5.312 4.35199C5.184 3.51999 5.12 2.55999 5.056 1.98399C5.056 1.66399 5.248 1.40799 5.568 1.40799L9.28 1.34399C9.6 1.34399 9.856 1.59999 9.856 1.91999C9.792 2.81599 9.664 4.41599 9.6 5.56799C9.216 10.112 8.064 9.27999 7.36 12.48C6.848 14.912 6.976 14.272 6.912 14.528C6.72 15.296 6.656 15.68 6.08 15.424C5.824 15.296 5.632 15.104 5.632 14.848C5.696 12.16 5.696 12.288 5.696 11.84C6.016 10.496 5.888 10.88 5.888 9.91999V9.85599C5.952 11.136 5.44 10.56 5.12 13.696C5.056 14.72 4.8 15.488 5.824 16C6.016 16.064 6.272 16.192 6.528 16.128C6.72 16.96 6.912 18.432 6.336 19.072C5.632 19.84 5.504 18.56 5.44 17.6C5.376 16.576 4.736 15.552 4.736 14.976C4.736 14.4 4.032 11.648 4.032 11.648C4.032 11.648 3.904 11.264 4.16 10.496ZM8.832 17.856C8.768 17.856 8.768 17.792 8.768 17.728C8.768 17.728 8.832 17.792 8.832 17.856Z" fill="#7F6957"/>
<path d="M6.52811 16.064C7.04011 16 7.16811 15.552 7.29611 15.104L7.48811 15.424C7.48811 15.424 8.44811 17.152 8.44811 17.216L8.70411 17.856C8.70411 17.856 9.08811 18.88 8.70411 19.392C8.51211 19.648 8.00011 19.584 7.80811 18.88C7.61611 18.112 6.52811 16.64 6.46411 16.384C6.52811 16.256 6.52811 16.192 6.52811 16.064Z" fill="#7F6957"/>
</svg>
