<svg width="32" height="32" viewBox="0 0 32 32" fill="none" xmlns="http://www.w3.org/2000/svg">
<g clip-path="url(#clip0_267_9355)">
<path d="M20.224 6.97601L21.44 5.05601C20.288 4.86401 19.2 4.86401 18.56 4.86401H12.864C12.928 4.86401 14.4 4.86401 19.776 6.78401C19.904 6.91201 20.096 6.97601 20.224 6.97601ZM28.48 21.952C25.984 16.64 27.52 11.968 26.048 8.19201C25.728 7.36001 25.216 6.78401 24.512 6.33601L22.848 9.60001C23.552 11.776 22.656 14.656 23.232 17.472C24.192 21.76 27.648 24.96 27.648 24.96C25.472 21.44 25.408 17.472 25.408 17.472C25.984 20.736 28.352 21.888 28.48 21.952ZM31.296 6.52801C31.168 6.20801 30.912 6.08001 30.592 6.08001C30.464 6.08001 30.4 6.08001 30.272 6.14401L26.624 7.93601C26.88 8.57601 27.008 9.21601 27.136 9.85601L30.976 7.42401C31.296 7.23201 31.424 6.84801 31.296 6.52801Z" fill="#7F6957"/>
<path d="M21.76 10.368L25.984 1.85601C26.048 1.72801 26.048 1.66401 26.048 1.53601C26.048 1.21601 25.856 0.960009 25.6 0.832009C25.28 0.704009 24.832 0.832009 24.64 1.15201L17.472 12.544L15.296 13.632L15.616 14.272C15.68 14.4 15.744 14.592 15.744 14.72L16.192 14.528L16.704 15.04L16.896 15.232C17.088 15.488 17.28 15.68 17.6 16L17.536 16.256L17.92 16.448L18.56 16.896L19.648 14.72L22.528 12.864C22.592 11.84 22.592 10.88 22.336 10.112L21.76 10.368ZM18.752 14.464C18.496 14.72 18.112 14.72 17.856 14.464C17.6 14.208 17.6 13.824 17.856 13.568C18.112 13.312 18.496 13.312 18.752 13.568C18.944 13.824 18.944 14.208 18.752 14.464ZM18.688 18.24C18.816 17.984 18.752 17.728 18.624 17.536L18.368 17.28V17.344C17.856 17.152 16.96 16.32 16.576 17.024L11.584 25.6C10.496 27.456 11.264 29.824 13.184 30.784C15.232 31.808 17.664 30.976 18.752 28.992C20.224 26.24 18.176 23.168 18.176 23.168C18.176 23.168 16.896 21.248 18.688 18.24ZM16.896 29.504C15.68 30.4 14.016 30.272 13.12 29.056C12.16 27.776 12.352 25.792 13.696 24.64C15.104 23.488 16.96 23.808 17.792 25.28C18.624 26.688 18.176 28.544 16.896 29.504ZM15.104 14.976C15.168 14.848 15.168 14.656 15.04 14.528L14.72 13.888L14.464 13.376C14.336 13.056 13.952 12.992 13.632 13.12C10.624 14.912 8.70399 13.632 8.70399 13.632C8.70399 13.632 5.632 11.584 2.87999 13.056C0.895995 14.144 0.0639949 16.576 1.08799 18.624C2.04799 20.544 4.416 21.248 6.272 20.224L14.784 15.36C14.976 15.232 15.04 15.104 15.104 14.976ZM7.232 18.112C6.08 19.456 4.09599 19.648 2.81599 18.688C1.6 17.792 1.47199 16.128 2.36799 14.912C3.32799 13.696 5.18399 13.184 6.52799 14.016C8.06399 14.848 8.384 16.704 7.232 18.112Z" fill="#7F6957"/>
</g>
<defs>
<clipPath id="clip0_267_9355">
<rect width="32" height="32" fill="white"/>
</clipPath>
</defs>
</svg>
