<svg width="32" height="32" viewBox="0 0 32 32" fill="none" xmlns="http://www.w3.org/2000/svg">
<path d="M8.12795 23.36C8.57595 20.992 7.67995 21.504 10.5599 19.2C11.7759 17.152 15.424 8.83203 15.488 8.76803C14.976 8.64003 14.144 8.70403 13.568 9.60003C12.544 11.136 8.76795 17.408 7.16795 18.688C5.56795 19.904 2.62395 23.552 2.62395 23.552C2.62395 23.552 1.79195 24.32 0.83195 24.512C0.57595 24.576 0.51195 24.96 0.76795 25.024C0.83195 25.088 0.95995 25.088 1.08795 25.088C1.91995 25.216 2.94395 25.024 3.71195 24.832C4.54395 24.64 5.56795 24.32 6.39995 24.192C6.59195 24.192 6.78395 24.128 6.97595 24.128C7.55195 24.192 7.99995 24.064 8.12795 23.36ZM28.4799 19.52C28.8639 20.736 29.3759 23.168 28.6719 25.6C29.0559 25.536 29.3759 25.536 29.7599 25.536V25.344C29.8879 24.128 29.9519 21.824 29.0559 19.456L28.4799 19.52Z" fill="#7F6957"/>
<path d="M27.3279 18.56C24.1919 12.16 21.6959 6.14396 19.0079 6.07996C17.6639 6.07996 16.3839 8.25596 15.9359 9.47196C15.4879 10.688 12.7359 16.448 11.9039 18.176C11.0719 19.904 8.76789 22.912 8.70389 23.744C8.63989 24.32 7.87189 24.576 7.42389 24.704C7.16789 24.768 7.03989 25.024 7.16789 25.28C7.29589 25.472 7.48789 25.664 8.06389 25.6C9.27989 25.472 9.91989 25.216 10.6239 24.576C11.3279 23.936 12.2239 23.424 12.6719 23.36C13.1199 23.296 14.5919 22.912 14.4639 22.08C14.3359 21.248 13.7599 20.224 14.0799 19.584C14.3999 18.944 17.9199 15.424 18.3679 14.656C18.8159 13.888 18.9439 13.504 18.9439 13.504C18.9439 13.504 19.1999 17.152 19.7119 18.752C20.2239 20.352 21.1839 24.128 21.7599 24.768C22.3999 25.408 25.9839 26.24 27.3279 25.856C27.5199 25.792 27.7119 25.792 27.8399 25.728V25.664C28.4799 23.808 28.4799 21.312 27.3279 18.56ZM31.3599 19.328L29.8239 19.456C30.7199 21.888 30.6559 24.192 30.5279 25.472V25.536H31.4239V24.704L31.3599 19.328Z" fill="#7F6957"/>
</svg>
