<svg width="22" height="22" viewBox="0 0 22 22" fill="none" xmlns="http://www.w3.org/2000/svg">
<path d="M11.6875 14.5935H12.2833C12.8792 14.5935 13.3742 14.0618 13.3742 13.4201C13.3742 12.6226 13.09 12.4668 12.6225 12.3018L11.6967 11.981V14.5935H11.6875Z" fill="#8F7A63"/>
<path d="M10.9722 1.74171C5.91224 1.76005 1.81474 5.87588 1.83307 10.9359C1.8514 15.9959 5.96724 20.0934 11.0272 20.075C16.0872 20.0567 20.1847 15.9409 20.1664 10.8809C20.1481 5.82088 16.0322 1.73255 10.9722 1.74171ZM13.0714 11C13.7864 11.2475 14.7489 11.7792 14.7489 13.42C14.7489 14.8317 13.6397 15.9684 12.2831 15.9684H11.6872V16.5C11.6872 16.8759 11.3756 17.1875 10.9997 17.1875C10.6239 17.1875 10.3122 16.8759 10.3122 16.5V15.9684H9.98223C8.4789 15.9684 7.25974 14.7034 7.25974 13.145C7.25974 12.7692 7.5714 12.4575 7.94724 12.4575C8.32307 12.4575 8.63474 12.7692 8.63474 13.145C8.63474 13.9425 9.23974 14.5934 9.98223 14.5934H10.3122V11.495L8.92807 11C8.21307 10.7525 7.25057 10.2209 7.25057 8.58005C7.25057 7.16838 8.35974 6.03171 9.7164 6.03171H10.3122V5.50005C10.3122 5.12421 10.6239 4.81255 10.9997 4.81255C11.3756 4.81255 11.6872 5.12421 11.6872 5.50005V6.03171H12.0172C13.5206 6.03171 14.7397 7.29671 14.7397 8.85505C14.7397 9.23088 14.4281 9.54255 14.0522 9.54255C13.6764 9.54255 13.3647 9.23088 13.3647 8.85505C13.3647 8.05755 12.7597 7.40671 12.0172 7.40671H11.6872V10.505L13.0714 11Z" fill="#8F7A63"/>
<path d="M8.63477 8.58924C8.63477 9.38674 8.91893 9.54257 9.38643 9.70757L10.3123 10.0284V7.40674H9.71643C9.1206 7.40674 8.63477 7.9384 8.63477 8.58924Z" fill="#8F7A63"/>
</svg>
