<svg width="22" height="22" viewBox="0 0 22 22" fill="none" xmlns="http://www.w3.org/2000/svg">
<path d="M13.6128 3.62106V7.10439H12.2378V3.62106C12.2378 3.37356 12.0178 3.25439 11.8712 3.25439C11.8253 3.25439 11.7795 3.26356 11.7337 3.28189L4.46449 6.02273C3.97866 6.20606 3.66699 6.66439 3.66699 7.18689V7.80106C2.83283 8.42439 2.29199 9.42356 2.29199 10.5511V7.18689C2.29199 6.09606 2.96116 5.12439 3.97866 4.73939L11.257 1.98939C11.4587 1.91606 11.6695 1.87939 11.8712 1.87939C12.7878 1.87939 13.6128 2.62189 13.6128 3.62106Z" fill="#8F7A63"/>
<path d="M19.7083 13.2918V14.2085C19.7083 14.456 19.5158 14.6577 19.2591 14.6668H17.9208C17.435 14.6668 16.995 14.3093 16.9583 13.8327C16.9308 13.5485 17.0408 13.2827 17.2241 13.0993C17.3891 12.9252 17.6183 12.8335 17.8658 12.8335H19.25C19.5158 12.8427 19.7083 13.0443 19.7083 13.2918Z" fill="#8F7A63"/>
<path d="M17.857 11.8707H18.792C19.2962 11.8707 19.7087 11.4582 19.7087 10.954V10.5507C19.7087 8.65317 18.1595 7.104 16.262 7.104H5.73866C4.95949 7.104 4.24449 7.36067 3.66699 7.80067C2.83283 8.424 2.29199 9.42317 2.29199 10.5507V16.7198C2.29199 18.6173 3.84116 20.1665 5.73866 20.1665H16.262C18.1595 20.1665 19.7087 18.6173 19.7087 16.7198V16.5457C19.7087 16.0415 19.2962 15.629 18.792 15.629H17.9945C17.1145 15.629 16.2712 15.0882 16.042 14.2357C15.8495 13.539 16.0787 12.8698 16.537 12.4207C16.8762 12.0723 17.3437 11.8707 17.857 11.8707ZM12.8337 11.6873H6.41699C6.04116 11.6873 5.72949 11.3757 5.72949 10.9998C5.72949 10.624 6.04116 10.3123 6.41699 10.3123H12.8337C13.2095 10.3123 13.5212 10.624 13.5212 10.9998C13.5212 11.3757 13.2095 11.6873 12.8337 11.6873Z" fill="#8F7A63"/>
</svg>
