<svg width="22" height="23" viewBox="0 0 22 23" fill="none" xmlns="http://www.w3.org/2000/svg">
<path d="M10.9997 2.26562C5.93967 2.26562 1.83301 6.37229 1.83301 11.4323C1.83301 16.4923 5.93967 20.599 10.9997 20.599C16.0597 20.599 20.1663 16.4923 20.1663 11.4323C20.1663 6.37229 16.0597 2.26562 10.9997 2.26562ZM15.583 16.4465C14.0155 16.4465 12.5488 15.7681 11.3755 14.5123C10.0463 15.7131 8.31384 16.4465 6.41634 16.4465C6.04051 16.4465 5.72884 16.1348 5.72884 15.759C5.72884 15.3831 6.04051 15.0715 6.41634 15.0715C9.59717 15.0715 12.228 12.5506 12.5672 9.32396H10.9997H6.42551C6.04967 9.32396 5.73801 9.01229 5.73801 8.63646C5.73801 8.26062 6.04967 7.95812 6.42551 7.95812H10.3122V7.10563C10.3122 6.72979 10.6238 6.41813 10.9997 6.41813C11.3755 6.41813 11.6872 6.72979 11.6872 7.10563V7.95812H13.2363C13.2547 7.95812 13.273 7.94896 13.2913 7.94896C13.3097 7.94896 13.328 7.95812 13.3463 7.95812H15.5738C15.9497 7.95812 16.2613 8.26979 16.2613 8.64562C16.2613 9.02146 15.9497 9.33312 15.5738 9.33312H13.9422C13.8047 10.9006 13.218 12.3398 12.3197 13.5131C13.2363 14.5306 14.3822 15.0806 15.583 15.0806C15.9588 15.0806 16.2705 15.3923 16.2705 15.7681C16.2705 16.144 15.9588 16.4465 15.583 16.4465Z" fill="#8F7A63"/>
</svg>
