<svg width="22" height="22" viewBox="0 0 22 22" fill="none" xmlns="http://www.w3.org/2000/svg">
<path d="M17.1875 7.3335V9.2585C16.7842 9.2035 16.3258 9.176 15.8125 9.16683V7.3335C15.8125 4.446 14.9967 2.521 11 2.521C7.00333 2.521 6.1875 4.446 6.1875 7.3335V9.16683C5.67417 9.176 5.21583 9.2035 4.8125 9.2585V7.3335C4.8125 4.67516 5.45417 1.146 11 1.146C16.5458 1.146 17.1875 4.67516 17.1875 7.3335Z" fill="#8F7A63"/>
<path d="M17.1872 9.25817C16.7838 9.20317 16.3255 9.17567 15.8122 9.1665H6.18717C5.67384 9.17567 5.21551 9.20317 4.81217 9.25817C2.47467 9.54234 1.83301 10.6882 1.83301 13.7498V15.5832C1.83301 19.2498 2.74967 20.1665 6.41634 20.1665H15.583C19.2497 20.1665 20.1663 19.2498 20.1663 15.5832V13.7498C20.1663 10.6882 19.5247 9.54234 17.1872 9.25817ZM7.98384 15.3173C7.80967 15.4823 7.57134 15.5832 7.33301 15.5832C7.21384 15.5832 7.09467 15.5557 6.98467 15.5098C6.86551 15.464 6.77384 15.3998 6.68217 15.3173C6.51717 15.1432 6.41634 14.9048 6.41634 14.6665C6.41634 14.5473 6.44384 14.4282 6.48967 14.3182C6.53551 14.2082 6.59967 14.1073 6.68217 14.0157C6.77384 13.9332 6.86551 13.869 6.98467 13.8232C7.32384 13.6765 7.72717 13.759 7.98384 14.0157C8.06634 14.1073 8.13051 14.2082 8.17634 14.3182C8.22217 14.4282 8.24967 14.5473 8.24967 14.6665C8.24967 14.9048 8.14884 15.1432 7.98384 15.3173ZM11.843 15.0148C11.7972 15.1248 11.733 15.2257 11.6505 15.3173C11.4763 15.4823 11.238 15.5832 10.9997 15.5832C10.7522 15.5832 10.523 15.4823 10.3488 15.3173C10.2663 15.2257 10.2022 15.1248 10.1563 15.0148C10.1105 14.9048 10.083 14.7857 10.083 14.6665C10.083 14.419 10.1838 14.1898 10.3488 14.0157C10.688 13.6765 11.3022 13.6765 11.6505 14.0157C11.8155 14.1898 11.9163 14.419 11.9163 14.6665C11.9163 14.7857 11.8888 14.9048 11.843 15.0148ZM15.3172 15.3173C15.143 15.4823 14.9047 15.5832 14.6663 15.5832C14.428 15.5832 14.1897 15.4823 14.0155 15.3173C13.8505 15.1432 13.7497 14.914 13.7497 14.6665C13.7497 14.419 13.8505 14.1898 14.0155 14.0157C14.3638 13.6765 14.978 13.6765 15.3172 14.0157C15.3538 14.0615 15.3905 14.1073 15.4272 14.1623C15.4638 14.2082 15.4913 14.2632 15.5097 14.3182C15.5372 14.3732 15.5555 14.4282 15.5647 14.4832C15.5738 14.5473 15.583 14.6115 15.583 14.6665C15.583 14.9048 15.4822 15.1432 15.3172 15.3173Z" fill="#8F7A63"/>
</svg>
