<svg width="22" height="22" viewBox="0 0 22 22" fill="none" xmlns="http://www.w3.org/2000/svg">
<path d="M20.1663 6.92087C20.1663 7.52587 19.6713 8.02087 19.0663 8.02087H2.93301C2.32801 8.02087 1.83301 7.52587 1.83301 6.92087V6.9117C1.83301 4.81253 3.52884 3.1167 5.62801 3.1167H16.3622C18.4613 3.1167 20.1663 4.8217 20.1663 6.92087Z" fill="#8F7A63"/>
<path d="M1.83301 10.496V15.0885C1.83301 17.1877 3.52884 18.8835 5.62801 18.8835H16.3622C18.4613 18.8835 20.1663 17.1785 20.1663 15.0793V10.496C20.1663 9.891 19.6713 9.396 19.0663 9.396H2.93301C2.32801 9.396 1.83301 9.891 1.83301 10.496ZM7.33301 15.8127H5.49967C5.12384 15.8127 4.81217 15.501 4.81217 15.1252C4.81217 14.7493 5.12384 14.4377 5.49967 14.4377H7.33301C7.70884 14.4377 8.02051 14.7493 8.02051 15.1252C8.02051 15.501 7.70884 15.8127 7.33301 15.8127ZM13.2913 15.8127H9.62467C9.24884 15.8127 8.93717 15.501 8.93717 15.1252C8.93717 14.7493 9.24884 14.4377 9.62467 14.4377H13.2913C13.6672 14.4377 13.9788 14.7493 13.9788 15.1252C13.9788 15.501 13.6672 15.8127 13.2913 15.8127Z" fill="#8F7A63"/>
</svg>
