<svg width="22" height="22" viewBox="0 0 22 22" fill="none" xmlns="http://www.w3.org/2000/svg">
<path d="M16.9947 3.77685L11.9531 1.88852C11.4306 1.69602 10.5781 1.69602 10.0556 1.88852L5.01391 3.77685C4.04224 4.14352 3.25391 5.28018 3.25391 6.31602V13.741C3.25391 14.4835 3.73974 15.4644 4.33557 15.9044L9.37724 19.6719C10.2664 20.341 11.7239 20.341 12.6131 19.6719L17.6547 15.9044C18.2506 15.4552 18.7364 14.4835 18.7364 13.741V6.31602C18.7456 5.28018 17.9572 4.14352 16.9947 3.77685ZM14.1897 8.91018L10.2481 12.8519C10.1106 12.9894 9.93641 13.0535 9.76224 13.0535C9.58807 13.0535 9.41391 12.9894 9.27641 12.8519L7.80974 11.3668C7.54391 11.101 7.54391 10.661 7.80974 10.3952C8.07557 10.1293 8.51557 10.1293 8.78141 10.3952L9.77141 11.3852L13.2272 7.92935C13.4931 7.66352 13.9331 7.66352 14.1989 7.92935C14.4647 8.19518 14.4647 8.64435 14.1897 8.91018Z" fill="#8F7A63"/>
</svg>
