<svg width="39" height="24" viewBox="0 0 39 24" fill="none" xmlns="http://www.w3.org/2000/svg">
<path d="M24.3171 21.1399L13.9631 21.1399L13.9631 2.53198L24.3171 2.53198L24.3171 21.1399Z" fill="#FF5F00"/>
<path d="M14.6263 11.8342C14.6263 8.05951 16.3937 4.69711 19.1459 2.53025C17.1333 0.94573 14.5932 -1.52588e-05 11.8327 -1.52588e-05C5.29753 -1.52588e-05 -1.86605e-09 5.29827 -1.20212e-09 11.8342C-5.38201e-10 18.3702 5.29753 23.6685 11.8327 23.6685C14.5932 23.6685 17.1333 22.7227 19.1459 21.1382C16.3937 18.9713 14.6263 15.6089 14.6263 11.8342Z" fill="#EB001B"/>
<path d="M38.2812 11.8342C38.2812 18.3702 32.9836 23.6685 26.4484 23.6685C23.6879 23.6685 21.1479 22.7227 19.1345 21.1382C21.8875 18.9713 23.6548 15.6089 23.6548 11.8342C23.6548 8.05951 21.8875 4.69711 19.1345 2.53025C21.1479 0.94573 23.6879 -1.52581e-05 26.4484 -1.52577e-05C32.9836 -1.52567e-05 38.2812 5.29827 38.2812 11.8342Z" fill="#F79E1B"/>
</svg>
