<svg width="32" height="32" viewBox="0 0 32 32" fill="none" xmlns="http://www.w3.org/2000/svg">
<path d="M18.85 7.95005V11.75H17.35V7.95005C17.35 7.68005 17.11 7.55005 16.95 7.55005C16.9 7.55005 16.85 7.56005 16.8 7.58005L8.87 10.57C8.34 10.77 8 11.27 8 11.84V12.51C7.09 13.19 6.5 14.28 6.5 15.51V11.84C6.5 10.65 7.23 9.59005 8.34 9.17005L16.28 6.17005C16.5 6.09005 16.73 6.05005 16.95 6.05005C17.95 6.05005 18.85 6.86005 18.85 7.95005Z" fill="#8F7A63"/>
<path d="M25.4999 18.5V19.5C25.4999 19.77 25.2899 19.99 25.0099 20H23.5499C23.0199 20 22.5399 19.61 22.4999 19.09C22.4699 18.78 22.5899 18.49 22.7899 18.29C22.9699 18.1 23.2199 18 23.4899 18H24.9999C25.2899 18.01 25.4999 18.23 25.4999 18.5Z" fill="#8F7A63"/>
<path d="M23.48 16.95H24.5C25.05 16.95 25.5 16.5 25.5 15.95V15.51C25.5 13.44 23.81 11.75 21.74 11.75H10.26C9.41 11.75 8.63 12.03 8 12.51C7.09 13.19 6.5 14.28 6.5 15.51V22.24C6.5 24.31 8.19 26 10.26 26H21.74C23.81 26 25.5 24.31 25.5 22.24V22.05C25.5 21.5 25.05 21.05 24.5 21.05H23.63C22.67 21.05 21.75 20.46 21.5 19.53C21.29 18.77 21.54 18.04 22.04 17.55C22.41 17.17 22.92 16.95 23.48 16.95ZM18 16.75H11C10.59 16.75 10.25 16.41 10.25 16C10.25 15.59 10.59 15.25 11 15.25H18C18.41 15.25 18.75 15.59 18.75 16C18.75 16.41 18.41 16.75 18 16.75Z" fill="#8F7A63"/>
</svg>
